<svg width="90" height="90" viewBox="0 0 90 90" fill="none" xmlns="http://www.w3.org/2000/svg">
<path d="M33.75 59.2825C52.0506 59.2825 67.5 62.4522 67.5 74.6941C67.5 86.9359 51.9515 90 33.75 90C15.4494 90 0 86.8255 0 74.5884C0 62.3466 15.544 59.2825 33.75 59.2825ZM76.4954 23.6842C78.7284 23.6842 80.5408 25.6237 80.5408 28.0024V33.5741H85.9546C88.183 33.5741 90 35.5136 90 37.8923C90 40.271 88.183 42.2105 85.9546 42.2105H80.5408V47.7871C80.5408 50.1658 78.7284 52.1053 76.4954 52.1053C74.267 52.1053 72.45 50.1658 72.45 47.7871V42.2105H67.0454C64.8123 42.2105 63 40.271 63 37.8923C63 35.5136 64.8123 33.5741 67.0454 33.5741H72.45V28.0024C72.45 25.6237 74.267 23.6842 76.4954 23.6842ZM33.75 0C46.1456 0 56.0818 10.5946 56.0818 23.8114C56.0818 37.0281 46.1456 47.6227 33.75 47.6227C21.3544 47.6227 11.4182 37.0281 11.4182 23.8114C11.4182 10.5946 21.3544 0 33.75 0Z" fill="black"/>
</svg>
