<svg width="86" height="86" viewBox="0 0 86 86" fill="none" xmlns="http://www.w3.org/2000/svg">
<path d="M38.8 44.1667V15C38.8 8 34.6 1 26.2 1C17.8 1 13.6 8 13.6 15V71" fill="url(#paint0_linear_373_325)" fill-opacity="0.9"/>
<path d="M38.8 44.1667V15C38.8 8 34.6 1 26.2 1C17.8 1 13.6 8 13.6 15V71" stroke="#F8F8F8"/>
<path d="M24.625 71H2.57495L0.999954 85H26.2L24.625 71ZM72.4 85H39.0394C38.9071 85 38.8 84.8833 38.8 84.734V45.9283C38.8 28.8483 51.2614 15 66.6355 15C69.8352 15 72.9038 16.4123 75.1663 18.9262C77.4289 21.4402 78.7 24.8498 78.7 28.405V59.3333" fill="url(#paint1_linear_373_325)" fill-opacity="0.9"/>
<path d="M72.4 85H39.0394C38.9071 85 38.8 84.8833 38.8 84.734V45.9283C38.8 28.8483 51.2614 15 66.6355 15C69.8352 15 72.9038 16.4123 75.1663 18.9262C77.4289 21.4402 78.7 24.8498 78.7 28.405V59.3333M24.625 71H2.57495L0.999955 85H26.2L24.625 71Z" stroke="#F8F8F8" stroke-linecap="round" stroke-linejoin="round"/>
<path d="M72.4 85C65.4412 85 59.8 78.732 59.8 71C59.8 63.268 65.4412 57 72.4 57C79.3588 57 85 63.268 85 71C85 78.732 79.3588 85 72.4 85Z" fill="url(#paint2_linear_373_325)" fill-opacity="0.9" stroke="#F8F8F8"/>
<path d="M64 15V59.3333V15Z" fill="url(#paint3_linear_373_325)" fill-opacity="0.9"/>
<path d="M64 15V59.3333" stroke="#F8F8F8" stroke-linecap="round" stroke-linejoin="round"/>
<defs>
<linearGradient id="paint0_linear_373_325" x1="39.556" y1="-0.819999" x2="-5.98118" y2="15.966" gradientUnits="userSpaceOnUse">
<stop stop-color="#3E5C76"/>
<stop offset="0.289168" stop-color="#748CAB"/>
<stop offset="0.540145" stop-color="#869EBD"/>
<stop offset="0.770479" stop-color="#90ACD0"/>
<stop offset="1" stop-color="#D2D2D0"/>
</linearGradient>
<linearGradient id="paint1_linear_373_325" x1="81.031" y1="13.18" x2="11.4424" y2="92.2734" gradientUnits="userSpaceOnUse">
<stop stop-color="#3E5C76"/>
<stop offset="0.289168" stop-color="#748CAB"/>
<stop offset="0.540145" stop-color="#869EBD"/>
<stop offset="0.770479" stop-color="#90ACD0"/>
<stop offset="1" stop-color="#D2D2D0"/>
</linearGradient>
<linearGradient id="paint2_linear_373_325" x1="85.756" y1="56.272" x2="57.7855" y2="82.0484" gradientUnits="userSpaceOnUse">
<stop stop-color="#3E5C76"/>
<stop offset="0.289168" stop-color="#748CAB"/>
<stop offset="0.540145" stop-color="#869EBD"/>
<stop offset="0.770479" stop-color="#90ACD0"/>
<stop offset="1" stop-color="#D2D2D0"/>
</linearGradient>
<linearGradient id="paint3_linear_373_325" x1="64.03" y1="13.8473" x2="61.9785" y2="13.8947" gradientUnits="userSpaceOnUse">
<stop stop-color="#3E5C76"/>
<stop offset="0.289168" stop-color="#748CAB"/>
<stop offset="0.540145" stop-color="#869EBD"/>
<stop offset="0.770479" stop-color="#90ACD0"/>
<stop offset="1" stop-color="#D2D2D0"/>
</linearGradient>
</defs>
</svg>
