<svg width="41" height="41" viewBox="0 0 41 41" fill="none" xmlns="http://www.w3.org/2000/svg">
<path d="M40.625 20.3125C40.625 9.09473 31.5303 0 20.3125 0C9.09473 0 0 9.09473 0 20.3125C0 31.5303 9.09473 40.625 20.3125 40.625C31.5303 40.625 40.625 31.5303 40.625 20.3125ZM19.8584 29.2344C19.7127 29.0899 19.5969 28.9181 19.5176 28.7288C19.4383 28.5395 19.397 28.3364 19.3962 28.1312C19.3954 27.926 19.435 27.7226 19.5128 27.5327C19.5906 27.3428 19.7051 27.1701 19.8496 27.0244L24.959 21.875H11.9141C11.4997 21.875 11.1022 21.7104 10.8092 21.4174C10.5162 21.1243 10.3516 20.7269 10.3516 20.3125C10.3516 19.8981 10.5162 19.5007 10.8092 19.2076C11.1022 18.9146 11.4997 18.75 11.9141 18.75H24.959L19.8496 13.6006C19.7051 13.4548 19.5907 13.2819 19.513 13.0919C19.4352 12.9019 19.3957 12.6984 19.3966 12.4931C19.3975 12.2878 19.4388 12.0847 19.5182 11.8953C19.5976 11.706 19.7136 11.5342 19.8594 11.3896C20.0052 11.2451 20.178 11.1307 20.3681 11.053C20.5581 10.9753 20.7616 10.9357 20.9669 10.9366C21.1722 10.9375 21.3753 10.9789 21.5646 11.0583C21.7539 11.1377 21.9258 11.2536 22.0703 11.3994L29.8232 19.2119C30.1137 19.5046 30.2766 19.9002 30.2766 20.3125C30.2766 20.7248 30.1137 21.1204 29.8232 21.4131L22.0703 29.2256C21.9258 29.3716 21.7538 29.4876 21.5644 29.5671C21.3749 29.6466 21.1716 29.6879 20.9662 29.6887C20.7607 29.6896 20.5571 29.6498 20.367 29.5719C20.177 29.4939 20.0041 29.3792 19.8584 29.2344V29.2344Z" fill="#F8F8F8"/>
</svg>
