<svg width="158" height="41" viewBox="0 0 158 41" fill="none" xmlns="http://www.w3.org/2000/svg">
<rect x="19.998" y="1.99902" width="6.64039" height="6.64039" fill="#D96262"/>
<rect width="3.32019" height="3.32019" transform="matrix(-1 0 0 1 19.9229 8.63965)" fill="#D96262"/>
<path d="M0.00195312 13.0512V13.0512C0.00195312 6.94727 4.9502 1.99902 11.0542 1.99902H13.0245H16.6029V8.63941H13.0245H11.0542C8.61758 8.63941 6.64234 10.6147 6.64234 13.0512V13.0512H0.00195312Z" fill="#D96262"/>
<path d="M26.5723 11.9685L26.5723 14.8857C26.5723 22.4403 20.4481 28.5645 12.8935 28.5645V28.5645L12.8935 21.9989V21.9989C16.7896 21.9557 19.9263 18.7866 19.9295 14.8902L19.9319 11.9652L26.5723 11.9685Z" fill="#D96262"/>
<path d="M1.90757 35.1045H0.868595L0.875276 34.4397H1.90757C2.20823 34.4397 2.4599 34.374 2.66258 34.2426C2.86748 34.1112 3.02115 33.923 3.1236 33.678C3.22828 33.433 3.28061 33.1412 3.28061 32.8027V32.5388C3.28061 32.276 3.25055 32.0433 3.19041 31.8406C3.13251 31.6379 3.04565 31.4675 2.92984 31.3294C2.81625 31.1914 2.67594 31.0867 2.5089 31.0154C2.34409 30.9441 2.15367 30.9085 1.93763 30.9085H0.84855V30.2404H1.93763C2.26057 30.2404 2.55567 30.2949 2.82293 30.4041C3.09019 30.511 3.3207 30.6658 3.51447 30.8684C3.71046 31.0711 3.86079 31.3139 3.96547 31.5967C4.07015 31.8796 4.12248 32.1958 4.12248 32.5455V32.8027C4.12248 33.1524 4.07015 33.4686 3.96547 33.7515C3.86079 34.0343 3.71046 34.2771 3.51447 34.4798C3.31848 34.6802 3.08462 34.835 2.81291 34.9441C2.54342 35.051 2.24164 35.1045 1.90757 35.1045ZM1.33296 30.2404V35.1045H0.494431V30.2404H1.33296ZM4.96435 30.2404H6.68484C7.05455 30.2404 7.36969 30.296 7.63027 30.4074C7.89085 30.5188 8.09018 30.6836 8.22826 30.9018C8.36857 31.1179 8.43873 31.3851 8.43873 31.7036C8.43873 31.9464 8.39419 32.1602 8.3051 32.345C8.21601 32.5299 8.09018 32.6858 7.9276 32.8127C7.76501 32.9375 7.57125 33.0343 7.34631 33.1034L7.09241 33.227H5.54564L5.53896 32.5622H6.6982C6.89865 32.5622 7.06568 32.5265 7.19931 32.4553C7.33294 32.384 7.43316 32.2871 7.49998 32.1646C7.56902 32.0399 7.60354 31.8996 7.60354 31.7437C7.60354 31.5744 7.57014 31.4274 7.50332 31.3027C7.43873 31.1758 7.33851 31.0789 7.20265 31.0121C7.0668 30.943 6.89419 30.9085 6.68484 30.9085H5.80288V35.1045H4.96435V30.2404ZM7.74051 35.1045L6.59798 32.9196L7.47659 32.9163L8.63583 35.0611V35.1045H7.74051ZM11.1681 30.8885L9.7149 35.1045H8.83628L10.667 30.2404H11.2283L11.1681 30.8885ZM12.3842 35.1045L10.9276 30.8885L10.8641 30.2404H11.4287L13.2661 35.1045H12.3842ZM12.314 33.3005V33.9653H9.66813V33.3005H12.314ZM17.4922 32.619V34.4764C17.4231 34.5677 17.3151 34.668 17.1681 34.7771C17.0233 34.884 16.8307 34.9764 16.5902 35.0544C16.3496 35.1323 16.0501 35.1713 15.6915 35.1713C15.3864 35.1713 15.1069 35.1201 14.853 35.0176C14.5991 34.913 14.3797 34.7604 14.1948 34.56C14.0122 34.3595 13.8708 34.1156 13.7706 33.8283C13.6703 33.5388 13.6202 33.2092 13.6202 32.8395V32.502C13.6202 32.1346 13.6659 31.8072 13.7572 31.5199C13.8507 31.2303 13.9844 30.9853 14.1581 30.7849C14.3318 30.5845 14.5412 30.433 14.7862 30.3306C15.0334 30.2259 15.3129 30.1735 15.6247 30.1735C16.0233 30.1735 16.353 30.2404 16.6135 30.374C16.8763 30.5054 17.079 30.688 17.2216 30.9219C17.3641 31.1557 17.4543 31.423 17.4922 31.7237H16.6703C16.6436 31.5544 16.5913 31.4029 16.5133 31.2693C16.4376 31.1357 16.3285 31.031 16.1859 30.9553C16.0456 30.8773 15.863 30.8384 15.638 30.8384C15.4443 30.8384 15.2739 30.8751 15.1269 30.9486C14.9799 31.0221 14.8574 31.1301 14.7594 31.2727C14.6637 31.4152 14.5913 31.5889 14.5423 31.7938C14.4933 31.9987 14.4688 32.2326 14.4688 32.4954V32.8395C14.4688 33.1067 14.4966 33.3439 14.5523 33.551C14.6102 33.7582 14.6926 33.933 14.7995 34.0755C14.9086 34.2181 15.0412 34.3261 15.1971 34.3996C15.353 34.4709 15.5289 34.5065 15.7249 34.5065C15.9164 34.5065 16.0735 34.4909 16.1959 34.4597C16.3184 34.4263 16.4153 34.3873 16.4866 34.3428C16.5601 34.296 16.6169 34.2515 16.657 34.2092V33.2437H15.6447V32.619H17.4922ZM22.2995 32.5388V32.8061C22.2995 33.1735 22.2516 33.5032 22.1558 33.7949C22.0601 34.0867 21.9231 34.335 21.7449 34.5399C21.569 34.7448 21.3574 34.9018 21.1102 35.011C20.863 35.1179 20.589 35.1713 20.2884 35.1713C19.9899 35.1713 19.7171 35.1179 19.4699 35.011C19.2249 34.9018 19.0122 34.7448 18.8318 34.5399C18.6514 34.335 18.5111 34.0867 18.4109 33.7949C18.3129 33.5032 18.2639 33.1735 18.2639 32.8061V32.5388C18.2639 32.1713 18.3129 31.8428 18.4109 31.5533C18.5089 31.2615 18.6469 31.0132 18.8251 30.8083C19.0055 30.6012 19.2182 30.4441 19.4632 30.3372C19.7104 30.2281 19.9832 30.1735 20.2817 30.1735C20.5824 30.1735 20.8563 30.2281 21.1035 30.3372C21.3507 30.4441 21.5634 30.6012 21.7416 30.8083C21.9198 31.0132 22.0567 31.2615 22.1525 31.5533C22.2505 31.8428 22.2995 32.1713 22.2995 32.5388ZM21.461 32.8061V32.5321C21.461 32.2604 21.4342 32.021 21.3808 31.8139C21.3296 31.6045 21.2527 31.4297 21.1503 31.2894C21.0501 31.1468 20.9264 31.0399 20.7795 30.9686C20.6325 30.8951 20.4665 30.8584 20.2817 30.8584C20.0968 30.8584 19.932 30.8951 19.7873 30.9686C19.6425 31.0399 19.5189 31.1468 19.4164 31.2894C19.3162 31.4297 19.2394 31.6045 19.1859 31.8139C19.1325 32.021 19.1057 32.2604 19.1057 32.5321V32.8061C19.1057 33.0778 19.1325 33.3183 19.1859 33.5277C19.2394 33.737 19.3173 33.9141 19.4198 34.0588C19.5244 34.2014 19.6492 34.3094 19.7939 34.3829C19.9387 34.4542 20.1035 34.4898 20.2884 34.4898C20.4754 34.4898 20.6414 34.4542 20.7861 34.3829C20.9309 34.3094 21.0534 34.2014 21.1536 34.0588C21.2538 33.9141 21.3296 33.737 21.3808 33.5277C21.4342 33.3183 21.461 33.0778 21.461 32.8061ZM26.9966 30.2404V35.1045H26.1581L23.9766 31.6201V35.1045H23.138V30.2404H23.9766L26.1647 33.7314V30.2404H26.9966Z" fill="#D96262"/>
<path d="M11.5791 22.2622L12.6317 21.999V23.0516L11.5791 23.3148V22.2622Z" fill="#D96262"/>
<path d="M0.269005 14.3963L0.00112143 13.3449L1.0537 13.3401L1.32159 14.3915L0.269005 14.3963Z" fill="#D96262"/>
<path d="M10 22.2622L11.0526 21.999V23.0516L10 23.3148V22.2622Z" fill="#D96262"/>
<path d="M0.273888 15.9754L0.00600424 14.924L1.05859 14.9192L1.32647 15.9706L0.273888 15.9754Z" fill="#D96262"/>
<path d="M8.68359 23.525L9.52567 23.3145V24.1565L8.68359 24.367V23.525Z" fill="#D96262" fill-opacity="0.9"/>
<path d="M1.54352 17.2852L1.32922 16.4441L2.17128 16.4403L2.38559 17.2814L1.54352 17.2852Z" fill="#D96262" fill-opacity="0.9"/>
<path d="M7.36816 24.5338L8.03481 24.3672V25.0338L7.36816 25.2005V24.5338Z" fill="#D96262" fill-opacity="0.8"/>
<path d="M2.55924 18.5969L2.38958 17.931L3.05621 17.928L3.22587 18.5939L2.55924 18.5969Z" fill="#D96262" fill-opacity="0.8"/>
<path d="M8.68359 22.4732L9.52567 22.2627V23.1048L8.68359 23.3153V22.4732Z" fill="#D96262" fill-opacity="0.9"/>
<path d="M0.49079 17.2891L0.276483 16.448L1.11855 16.4442L1.33286 17.2853L0.49079 17.2891Z" fill="#D96262" fill-opacity="0.9"/>
<path d="M7.36816 23.4811L8.03481 23.3145V23.9811L7.36816 24.1478V23.4811Z" fill="#D96262" fill-opacity="0.8"/>
<path d="M1.50553 18.6008L1.33587 17.9349L2.0025 17.9319L2.17216 18.5978L1.50553 18.6008Z" fill="#D96262" fill-opacity="0.8"/>
<path d="M7.36816 22.4294L8.03481 22.2627V22.9293L7.36816 23.096V22.4294Z" fill="#D96262" fill-opacity="0.8"/>
<path d="M0.452792 18.6057L0.283132 17.9398L0.949767 17.9368L1.11943 18.6027L0.452792 18.6057Z" fill="#D96262" fill-opacity="0.8"/>
<path d="M6.05273 24.4609L6.5798 24.3291V24.8562L6.05273 24.9879V24.4609Z" fill="#D96262" fill-opacity="0.7"/>
<path d="M3.05266 19.6351L2.91853 19.1087L3.44558 19.1063L3.57972 19.6328L3.05266 19.6351Z" fill="#D96262" fill-opacity="0.7"/>
<path d="M6.05273 25.5136L6.5798 25.3818V25.9089L6.05273 26.0407V25.5136Z" fill="#D96262" fill-opacity="0.7"/>
<path d="M4.1054 19.6303L3.97126 19.1038L4.49832 19.1014L4.63246 19.6279L4.1054 19.6303Z" fill="#D96262" fill-opacity="0.7"/>
<path d="M6.05273 26.5654L6.5798 26.4336V26.9607L6.05273 27.0924V26.5654Z" fill="#D96262" fill-opacity="0.7"/>
<path d="M5.15813 19.6254L5.02399 19.0989L5.55105 19.0965L5.68519 19.623L5.15813 19.6254Z" fill="#D96262" fill-opacity="0.7"/>
<path d="M6.05273 27.6572L6.5798 27.5254V28.0525L6.05273 28.1842V27.6572Z" fill="#D96262" fill-opacity="0.7"/>
<path d="M6.24993 19.6205L6.11579 19.094L6.64285 19.0917L6.77699 19.6181L6.24993 19.6205Z" fill="#D96262" fill-opacity="0.7"/>
<path d="M6.05273 23.4091L6.5798 23.2773V23.8044L6.05273 23.9362V23.4091Z" fill="#D96262" fill-opacity="0.7"/>
<path d="M2.00091 19.64L1.86677 19.1136L2.39383 19.1112L2.52796 19.6377L2.00091 19.64Z" fill="#D96262" fill-opacity="0.7"/>
<path d="M6.05273 22.3554L6.5798 22.2236V22.7507L6.05273 22.8825V22.3554Z" fill="#D96262" fill-opacity="0.7"/>
<path d="M0.948171 19.6449L0.814034 19.1184L1.34109 19.1161L1.47523 19.6425L0.948171 19.6449Z" fill="#D96262" fill-opacity="0.7"/>
<path d="M11.5791 23.5776L12.6317 23.3145V24.367L11.5791 24.6302V23.5776Z" fill="#D96262"/>
<path d="M1.58346 14.3904L1.31557 13.339L2.36816 13.3343L2.63604 14.3857L1.58346 14.3904Z" fill="#D96262"/>
<path d="M10 23.5776L11.0526 23.3145V24.367L10 24.6302V23.5776Z" fill="#D96262"/>
<path d="M1.59029 15.9685L1.32241 14.9171L2.37499 14.9124L2.64288 15.9638L1.59029 15.9685Z" fill="#D96262"/>
<path d="M8.68359 24.5777L9.52567 24.3672V25.2093L8.68359 25.4198V24.5777Z" fill="#D96262" fill-opacity="0.9"/>
<path d="M2.59626 17.2803L2.38195 16.4392L3.22402 16.4354L3.43832 17.2765L2.59626 17.2803Z" fill="#D96262" fill-opacity="0.9"/>
<path d="M7.36816 25.5866L8.03481 25.4199V26.0866L7.36816 26.2532V25.5866Z" fill="#D96262" fill-opacity="0.8"/>
<path d="M3.61197 18.591L3.44231 17.9252L4.10895 17.9222L4.27861 18.588L3.61197 18.591Z" fill="#D96262" fill-opacity="0.8"/>
<path d="M11.5791 24.894L12.6317 24.6309V25.6835L11.5791 25.9466V24.894Z" fill="#D96262"/>
<path d="M2.89889 14.3836L2.631 13.3322L3.68359 13.3274L3.95147 14.3788L2.89889 14.3836Z" fill="#D96262"/>
<path d="M10 24.894L11.0526 24.6309V25.6835L10 25.9466V24.894Z" fill="#D96262"/>
<path d="M2.90768 15.9637L2.63979 14.9123L3.69238 14.9075L3.96026 15.9589L2.90768 15.9637Z" fill="#D96262"/>
<path d="M8.68359 25.6304L9.52567 25.4199V26.262L8.68359 26.4725V25.6304Z" fill="#D96262" fill-opacity="0.9"/>
<path d="M3.64802 17.2754L3.43371 16.4343L4.27578 16.4305L4.49008 17.2716L3.64802 17.2754Z" fill="#D96262" fill-opacity="0.9"/>
<path d="M7.36816 26.6393L8.03481 26.4727V27.1393L7.36816 27.306V26.6393Z" fill="#D96262" fill-opacity="0.8"/>
<path d="M4.66373 18.5862L4.49407 17.9203L5.1607 17.9173L5.33036 18.5832L4.66373 18.5862Z" fill="#D96262" fill-opacity="0.8"/>
<path d="M11.5791 26.2094L12.6317 25.9463V26.9989L11.5791 27.262V26.2094Z" fill="#D96262"/>
<path d="M4.21529 14.3787L3.94741 13.3273L4.99999 13.3226L5.26788 14.374L4.21529 14.3787Z" fill="#D96262"/>
<path d="M10 26.2094L11.0526 25.9463V26.9989L10 27.262V26.2094Z" fill="#D96262"/>
<path d="M4.22213 15.9568L3.95425 14.9054L5.00683 14.9007L5.27471 15.9521L4.22213 15.9568Z" fill="#D96262"/>
<path d="M8.68359 26.6832L9.52567 26.4727V27.3147L8.68359 27.5252V26.6832Z" fill="#D96262" fill-opacity="0.9"/>
<path d="M4.7027 17.2705L4.4884 16.4294L5.33046 16.4256L5.54477 17.2667L4.7027 17.2705Z" fill="#D96262" fill-opacity="0.9"/>
<path d="M7.36816 27.6921L8.03481 27.5254V28.192L7.36816 28.3587V27.6921Z" fill="#D96262" fill-opacity="0.8"/>
<path d="M5.71646 18.5823L5.5468 17.9164L6.21344 17.9134L6.3831 18.5793L5.71646 18.5823Z" fill="#D96262" fill-opacity="0.8"/>
<path d="M11.5791 27.5258L12.6317 27.2627V28.3153L11.5791 28.5784V27.5258Z" fill="#D96262"/>
<path d="M5.53072 14.3728L5.26284 13.3214L6.31542 13.3167L6.58331 14.3681L5.53072 14.3728Z" fill="#D96262"/>
<path d="M10 27.5258L11.0526 27.2627V28.3153L10 28.5784V27.5258Z" fill="#D96262"/>
<path d="M5.53756 15.951L5.26968 14.8996L6.32226 14.8948L6.59014 15.9462L5.53756 15.951Z" fill="#D96262"/>
<path d="M8.68359 27.7359L9.52567 27.5254V28.3675L8.68359 28.578V27.7359Z" fill="#D96262" fill-opacity="0.9"/>
<path d="M5.75446 17.2657L5.54015 16.4245L6.38222 16.4207L6.59653 17.2619L5.75446 17.2657Z" fill="#D96262" fill-opacity="0.9"/>
<path d="M44.4973 14.5273H41.4919L41.5106 12.0151H44.4973C45.1176 12.0151 45.6417 11.8663 46.0697 11.5685C46.504 11.2708 46.8327 10.8273 47.056 10.238C47.2855 9.6425 47.4003 8.91055 47.4003 8.04213V7.45595C47.4003 6.80463 47.3351 6.23396 47.2049 5.74392C47.0808 5.24769 46.8947 4.83519 46.6466 4.50643C46.3985 4.17147 46.0884 3.92025 45.7162 3.75277C45.3502 3.58529 44.9284 3.50155 44.4508 3.50155H41.4361V0.980036H44.4508C45.3688 0.980036 46.2093 1.13821 46.9723 1.45456C47.7414 1.76471 48.4052 2.21133 48.9634 2.79441C49.5279 3.37128 49.9621 4.05671 50.2661 4.8507C50.5762 5.63847 50.7313 6.51309 50.7313 7.47456V8.04213C50.7313 8.99739 50.5762 9.87201 50.2661 10.666C49.9621 11.46 49.531 12.1454 48.9727 12.7223C48.4145 13.2992 47.7539 13.7458 46.9909 14.0621C46.2341 14.3723 45.4029 14.5273 44.4973 14.5273ZM43.3621 0.980036V14.5273H40.0963V0.980036H43.3621ZM55.4486 6.95351V14.5273H52.313V4.45991H55.2439L55.4486 6.95351ZM58.4261 4.38547L58.3703 7.29777C58.2462 7.28537 58.0787 7.26986 57.8678 7.25125C57.6569 7.23264 57.4801 7.22334 57.3375 7.22334C56.9715 7.22334 56.6551 7.26676 56.3884 7.3536C56.1279 7.43424 55.9108 7.5583 55.7371 7.72578C55.5696 7.88705 55.4455 8.09175 55.3649 8.33987C55.2905 8.58799 55.2564 8.87643 55.2626 9.20519L54.695 8.83301C54.695 8.15688 54.7601 7.54279 54.8904 6.99072C55.0268 6.43246 55.2191 5.95172 55.4673 5.54853C55.7154 5.13913 56.0162 4.82588 56.3698 4.60878C56.7234 4.38547 57.1204 4.27382 57.5608 4.27382C57.7158 4.27382 57.8678 4.28312 58.0167 4.30173C58.1718 4.32034 58.3082 4.34825 58.4261 4.38547ZM64.4554 11.9965V7.84673C64.4554 7.5614 64.4151 7.31638 64.3344 7.11168C64.2538 6.90698 64.1266 6.74881 63.9529 6.63715C63.7792 6.5193 63.5466 6.46037 63.2551 6.46037C63.0194 6.46037 62.8178 6.50069 62.6503 6.58133C62.4828 6.66197 62.3557 6.78292 62.2688 6.9442C62.182 7.10548 62.1386 7.31018 62.1386 7.5583H59.003C59.003 7.09307 59.1053 6.66197 59.31 6.26497C59.5209 5.86178 59.8186 5.51131 60.2032 5.21357C60.594 4.91583 61.0592 4.68632 61.5989 4.52504C62.1448 4.35756 62.7527 4.27382 63.4226 4.27382C64.2228 4.27382 64.9361 4.40718 65.5626 4.67391C66.1953 4.94064 66.6946 5.34073 67.0606 5.87419C67.4266 6.40144 67.6096 7.06516 67.6096 7.86534V11.9872C67.6096 12.6447 67.6468 13.1441 67.7212 13.4852C67.7957 13.8202 67.9011 14.1148 68.0376 14.3692V14.5273H64.8927C64.7438 14.2172 64.6322 13.8388 64.5577 13.3922C64.4895 12.9394 64.4554 12.4742 64.4554 11.9965ZM64.8369 8.37709L64.8555 10.0519H63.4691C63.1776 10.0519 62.9294 10.0922 62.7247 10.1729C62.5262 10.2535 62.365 10.3651 62.2409 10.5078C62.1231 10.6443 62.0362 10.7994 61.9804 10.973C61.9308 11.1467 61.9059 11.3297 61.9059 11.522C61.9059 11.7081 61.9494 11.8756 62.0362 12.0244C62.1293 12.1671 62.2533 12.2788 62.4084 12.3594C62.5635 12.44 62.7371 12.4804 62.9294 12.4804C63.2768 12.4804 63.5714 12.4152 63.8134 12.285C64.0615 12.1485 64.2507 11.9841 64.3809 11.7918C64.5112 11.5995 64.5763 11.4197 64.5763 11.2522L65.2649 12.5362C65.1408 12.7843 64.9981 13.0355 64.8369 13.2898C64.6818 13.5442 64.4864 13.7799 64.2507 13.997C64.0212 14.2079 63.7389 14.3816 63.404 14.518C63.069 14.6483 62.6627 14.7134 62.1851 14.7134C61.5648 14.7134 60.9941 14.5863 60.4731 14.3319C59.9582 14.0776 59.5457 13.7241 59.2356 13.2712C58.9254 12.8122 58.7703 12.285 58.7703 11.6895C58.7703 11.1684 58.8634 10.7032 59.0495 10.2938C59.2418 9.88441 59.5302 9.53705 59.9148 9.25171C60.2994 8.96637 60.7894 8.74927 61.3849 8.6004C61.9804 8.45153 62.6813 8.37709 63.4877 8.37709H64.8369ZM75.6766 4.45991H78.5237V14.1366C78.5237 15.067 78.3097 15.8548 77.8817 16.4999C77.4537 17.1512 76.8551 17.6443 76.086 17.9793C75.323 18.3205 74.4298 18.491 73.4063 18.491C72.9535 18.491 72.4913 18.4321 72.0199 18.3143C71.5485 18.2026 71.1081 18.0351 70.6987 17.8118C70.2893 17.5885 69.945 17.3125 69.6659 16.9837L70.9778 15.1414C71.2321 15.4268 71.5516 15.6687 71.9362 15.8672C72.3208 16.0719 72.7736 16.1742 73.2946 16.1742C73.7474 16.1742 74.1258 16.0936 74.4298 15.9323C74.7399 15.771 74.9756 15.5353 75.1369 15.2252C75.2982 14.9212 75.3788 14.5522 75.3788 14.1179V6.84185L75.6766 4.45991ZM68.9866 9.61458V9.41919C68.9866 8.65622 69.0797 7.96149 69.2658 7.33499C69.4581 6.70228 69.731 6.15952 70.0846 5.70671C70.4443 5.24769 70.8786 4.89412 71.3872 4.646C71.8958 4.39788 72.4696 4.27382 73.1085 4.27382C73.7971 4.27382 74.3615 4.40718 74.8019 4.67391C75.2486 4.93444 75.6052 5.30041 75.872 5.77184C76.1449 6.24326 76.3558 6.79533 76.5047 7.42803C76.6597 8.05453 76.79 8.73066 76.8954 9.45641V9.68902C76.79 10.3713 76.6442 11.0165 76.4581 11.6243C76.2783 12.226 76.0425 12.7595 75.751 13.2247C75.4595 13.6899 75.0935 14.0559 74.6531 14.3226C74.2189 14.5832 73.6978 14.7134 73.0899 14.7134C72.4572 14.7134 71.8865 14.5863 71.3779 14.3319C70.8755 14.0776 70.4443 13.721 70.0846 13.2619C69.731 12.8029 69.4581 12.2633 69.2658 11.643C69.0797 11.0227 68.9866 10.3465 68.9866 9.61458ZM72.1223 9.41919V9.61458C72.1223 9.99297 72.1564 10.3434 72.2246 10.666C72.299 10.9885 72.4107 11.2739 72.5596 11.522C72.7084 11.7639 72.8914 11.9531 73.1085 12.0896C73.3318 12.226 73.5924 12.2943 73.8901 12.2943C74.3429 12.2943 74.7089 12.1981 74.988 12.0058C75.2672 11.8135 75.4688 11.5406 75.5928 11.187C75.7169 10.8335 75.7696 10.4179 75.751 9.94024V9.20519C75.7634 8.79579 75.7355 8.43602 75.6673 8.12587C75.599 7.80952 75.4905 7.54589 75.3416 7.33499C75.1989 7.12409 75.0066 6.96591 74.7647 6.86046C74.529 6.74881 74.2437 6.69298 73.9087 6.69298C73.6172 6.69298 73.3597 6.76121 73.1364 6.89768C72.9131 7.03414 72.727 7.22644 72.5782 7.47456C72.4293 7.71647 72.3145 8.00491 72.2339 8.33987C72.1595 8.66863 72.1223 9.0284 72.1223 9.41919ZM79.938 9.59597V9.40058C79.938 8.66243 80.0435 7.9832 80.2544 7.3629C80.4653 6.7364 80.7754 6.19364 81.1848 5.73462C81.5942 5.2756 82.0997 4.91893 82.7014 4.66461C83.3031 4.40408 83.9979 4.27382 84.7856 4.27382C85.5796 4.27382 86.2775 4.40408 86.8791 4.66461C87.487 4.91893 87.9957 5.2756 88.4051 5.73462C88.8145 6.19364 89.1246 6.7364 89.3355 7.3629C89.5464 7.9832 89.6519 8.66243 89.6519 9.40058V9.59597C89.6519 10.3279 89.5464 11.0072 89.3355 11.6337C89.1246 12.254 88.8145 12.7967 88.4051 13.2619C87.9957 13.721 87.4901 14.0776 86.8884 14.3319C86.2868 14.5863 85.592 14.7134 84.8042 14.7134C84.0165 14.7134 83.3186 14.5863 82.7107 14.3319C82.1029 14.0776 81.5942 13.721 81.1848 13.2619C80.7754 12.7967 80.4653 12.254 80.2544 11.6337C80.0435 11.0072 79.938 10.3279 79.938 9.59597ZM83.0736 9.40058V9.59597C83.0736 9.97436 83.1015 10.3279 83.1574 10.6567C83.2132 10.9854 83.3062 11.2739 83.4365 11.522C83.5668 11.7639 83.7435 11.9531 83.9668 12.0896C84.1902 12.226 84.4693 12.2943 84.8042 12.2943C85.133 12.2943 85.4059 12.226 85.623 12.0896C85.8463 11.9531 86.0231 11.7639 86.1534 11.522C86.2837 11.2739 86.3767 10.9854 86.4325 10.6567C86.4884 10.3279 86.5163 9.97436 86.5163 9.59597V9.40058C86.5163 9.03461 86.4884 8.69034 86.4325 8.36778C86.3767 8.03903 86.2837 7.75059 86.1534 7.50247C86.0231 7.24815 85.8463 7.04965 85.623 6.90698C85.3997 6.76431 85.1206 6.69298 84.7856 6.69298C84.4569 6.69298 84.1808 6.76431 83.9575 6.90698C83.7404 7.04965 83.5668 7.24815 83.4365 7.50247C83.3062 7.75059 83.2132 8.03903 83.1574 8.36778C83.1015 8.69034 83.0736 9.03461 83.0736 9.40058ZM94.1273 6.60924V14.5273H90.9917V4.45991H93.9319L94.1273 6.60924ZM93.7551 9.14936L93.0201 9.16797C93.0201 8.3988 93.1131 7.71337 93.2992 7.11168C93.4853 6.50379 93.7489 5.98894 94.0901 5.56714C94.4313 5.14534 94.8376 4.82588 95.309 4.60878C95.7866 4.38547 96.317 4.27382 96.9001 4.27382C97.3653 4.27382 97.7902 4.34205 98.1748 4.47852C98.5656 4.61498 98.9005 4.83519 99.1797 5.13913C99.465 5.44308 99.6821 5.84627 99.831 6.34872C99.986 6.84495 100.064 7.45905 100.064 8.191V14.5273H96.9094V8.1817C96.9094 7.7785 96.8535 7.47145 96.7419 7.26055C96.6302 7.04345 96.469 6.89458 96.2581 6.81394C96.0471 6.7333 95.7897 6.69298 95.4858 6.69298C95.1632 6.69298 94.8903 6.75501 94.667 6.87907C94.4437 7.00313 94.2638 7.17681 94.1273 7.40012C93.9971 7.61722 93.9009 7.87465 93.8389 8.17239C93.7831 8.47013 93.7551 8.79579 93.7551 9.14936ZM46.6559 22.98V36.5273H43.3901V22.98H46.6559ZM50.7313 22.98V25.5015H39.4077V22.98H50.7313ZM56.0069 36.7134C55.1881 36.7134 54.4562 36.5863 53.8111 36.3319C53.166 36.0714 52.6201 35.7148 52.1735 35.2619C51.7331 34.8091 51.395 34.2881 51.1593 33.6988C50.9298 33.1095 50.815 32.4861 50.815 31.8286V31.475C50.815 30.7369 50.9174 30.0545 51.1221 29.428C51.3268 28.7953 51.6307 28.2433 52.0339 27.7718C52.4371 27.3004 52.9426 26.9344 53.5505 26.6739C54.1584 26.4072 54.8656 26.2738 55.672 26.2738C56.3853 26.2738 57.0242 26.3886 57.5887 26.6181C58.1531 26.8476 58.6308 27.1764 59.0216 27.6044C59.4186 28.0324 59.7194 28.5503 59.9241 29.1582C60.135 29.7661 60.2404 30.4484 60.2404 31.2052V32.4799H52.0153V30.5167H57.1793V30.2747C57.1855 29.9398 57.1266 29.6544 57.0025 29.4187C56.8846 29.183 56.711 29.0031 56.4814 28.8791C56.2519 28.755 55.9728 28.693 55.644 28.693C55.3029 28.693 55.0206 28.7674 54.7973 28.9163C54.5802 29.0652 54.4096 29.2699 54.2856 29.5304C54.1677 29.7847 54.084 30.0793 54.0344 30.4143C53.9847 30.7493 53.9599 31.1028 53.9599 31.475V31.8286C53.9599 32.2008 54.0096 32.5388 54.1088 32.8428C54.2143 33.1467 54.3631 33.4072 54.5554 33.6243C54.7539 33.8353 54.9896 33.9996 55.2626 34.1175C55.5417 34.2353 55.858 34.2943 56.2116 34.2943C56.6396 34.2943 57.0614 34.2136 57.477 34.0524C57.8926 33.8911 58.2493 33.6243 58.547 33.2522L59.9706 34.9456C59.7659 35.2371 59.4744 35.5194 59.096 35.7923C58.7238 36.0652 58.2772 36.2885 57.7562 36.4622C57.2351 36.6297 56.652 36.7134 56.0069 36.7134ZM65.7673 34.2943C66.0588 34.2943 66.307 34.2415 66.5117 34.1361C66.7226 34.0244 66.8807 33.8694 66.9862 33.6709C67.0978 33.4662 67.1506 33.2212 67.1444 32.9358H70.0939C70.1001 33.6926 69.914 34.3563 69.5356 34.927C69.1634 35.4914 68.6548 35.9319 68.0097 36.2482C67.3708 36.5584 66.6481 36.7134 65.8417 36.7134C65.054 36.7134 64.3654 36.5863 63.7761 36.3319C63.1869 36.0714 62.6937 35.7117 62.2967 35.2526C61.9059 34.7874 61.6113 34.2446 61.4128 33.6243C61.2205 33.0041 61.1244 32.331 61.1244 31.6053V31.3913C61.1244 30.6655 61.2205 29.9925 61.4128 29.3722C61.6113 28.7457 61.9059 28.2029 62.2967 27.7439C62.6937 27.2787 63.1838 26.9189 63.7668 26.6646C64.3561 26.4041 65.0416 26.2738 65.8231 26.2738C66.6605 26.2738 67.3987 26.432 68.0376 26.7483C68.6827 27.0647 69.1882 27.5237 69.5542 28.1254C69.9202 28.7271 70.1001 29.4559 70.0939 30.312H67.1444C67.1506 30.008 67.104 29.7351 67.0048 29.4932C66.9056 29.2512 66.7505 29.059 66.5396 28.9163C66.3349 28.7674 66.0713 28.693 65.7487 28.693C65.4261 28.693 65.1656 28.7643 64.9671 28.907C64.7686 29.0497 64.6167 29.2481 64.5112 29.5025C64.412 29.7506 64.3437 30.0359 64.3065 30.3585C64.2755 30.681 64.26 31.0253 64.26 31.3913V31.6053C64.26 31.9775 64.2755 32.3279 64.3065 32.6567C64.3437 32.9792 64.4151 33.2646 64.5205 33.5127C64.626 33.7546 64.7779 33.9469 64.9764 34.0896C65.1749 34.226 65.4385 34.2943 65.7673 34.2943ZM74.5042 22.2357V36.5273H71.3686V22.2357H74.5042ZM74.132 31.1494L73.397 31.168C73.397 30.4608 73.4838 29.8095 73.6575 29.214C73.8312 28.6185 74.0793 28.1006 74.4019 27.6602C74.7244 27.2198 75.1121 26.8786 75.5649 26.6367C76.0177 26.3948 76.5202 26.2738 77.0722 26.2738C77.5685 26.2738 78.0213 26.3452 78.4307 26.4878C78.8463 26.6305 79.203 26.86 79.5007 27.1764C79.8046 27.4927 80.0373 27.9052 80.1985 28.4138C80.366 28.9225 80.4498 29.5428 80.4498 30.2747V36.5273H77.2955V30.2561C77.2955 29.8467 77.2366 29.5304 77.1188 29.3071C77.0071 29.0776 76.8458 28.9194 76.6349 28.8325C76.424 28.7395 76.1666 28.693 75.8627 28.693C75.4967 28.693 75.1989 28.755 74.9694 28.8791C74.7399 29.0031 74.5631 29.1768 74.4391 29.4001C74.3212 29.6172 74.2406 29.8746 74.1972 30.1724C74.1537 30.4701 74.132 30.7958 74.132 31.1494ZM85.2695 28.6092V36.5273H82.1339V26.4599H85.0741L85.2695 28.6092ZM84.8973 31.1494L84.1622 31.168C84.1622 30.3988 84.2553 29.7134 84.4414 29.1117C84.6275 28.5038 84.8911 27.9889 85.2323 27.5671C85.5734 27.1453 85.9797 26.8259 86.4511 26.6088C86.9288 26.3855 87.4591 26.2738 88.0422 26.2738C88.5074 26.2738 88.9323 26.3421 89.3169 26.4785C89.7077 26.615 90.0427 26.8352 90.3218 27.1391C90.6071 27.4431 90.8242 27.8463 90.9731 28.3487C91.1282 28.845 91.2057 29.459 91.2057 30.191V36.5273H88.0515V30.1817C88.0515 29.7785 87.9957 29.4715 87.884 29.2606C87.7724 29.0434 87.6111 28.8946 87.4002 28.8139C87.1893 28.7333 86.9319 28.693 86.6279 28.693C86.3054 28.693 86.0324 28.755 85.8091 28.8791C85.5858 29.0031 85.4059 29.1768 85.2695 29.4001C85.1392 29.6172 85.0431 29.8746 84.981 30.1724C84.9252 30.4701 84.8973 30.7958 84.8973 31.1494ZM92.5549 31.596V31.4006C92.5549 30.6624 92.6603 29.9832 92.8712 29.3629C93.0821 28.7364 93.3923 28.1936 93.8017 27.7346C94.2111 27.2756 94.7166 26.9189 95.3183 26.6646C95.92 26.4041 96.6147 26.2738 97.4025 26.2738C98.1965 26.2738 98.8943 26.4041 99.496 26.6646C100.104 26.9189 100.613 27.2756 101.022 27.7346C101.431 28.1936 101.741 28.7364 101.952 29.3629C102.163 29.9832 102.269 30.6624 102.269 31.4006V31.596C102.269 32.3279 102.163 33.0072 101.952 33.6337C101.741 34.254 101.431 34.7967 101.022 35.2619C100.613 35.721 100.107 36.0776 99.5053 36.3319C98.9036 36.5863 98.2089 36.7134 97.4211 36.7134C96.6333 36.7134 95.9355 36.5863 95.3276 36.3319C94.7197 36.0776 94.2111 35.721 93.8017 35.2619C93.3923 34.7967 93.0821 34.254 92.8712 33.6337C92.6603 33.0072 92.5549 32.3279 92.5549 31.596ZM95.6905 31.4006V31.596C95.6905 31.9744 95.7184 32.3279 95.7742 32.6567C95.83 32.9854 95.9231 33.2739 96.0534 33.522C96.1836 33.7639 96.3604 33.9531 96.5837 34.0896C96.807 34.226 97.0862 34.2943 97.4211 34.2943C97.7499 34.2943 98.0228 34.226 98.2399 34.0896C98.4632 33.9531 98.64 33.7639 98.7703 33.522C98.9005 33.2739 98.9936 32.9854 99.0494 32.6567C99.1052 32.3279 99.1331 31.9744 99.1331 31.596V31.4006C99.1331 31.0346 99.1052 30.6903 99.0494 30.3678C98.9936 30.039 98.9005 29.7506 98.7703 29.5025C98.64 29.2481 98.4632 29.0497 98.2399 28.907C98.0166 28.7643 97.7375 28.693 97.4025 28.693C97.0737 28.693 96.7977 28.7643 96.5744 28.907C96.3573 29.0497 96.1836 29.2481 96.0534 29.5025C95.9231 29.7506 95.83 30.039 95.7742 30.3678C95.7184 30.6903 95.6905 31.0346 95.6905 31.4006ZM106.977 22.2357V36.5273H103.832V22.2357H106.977ZM108.521 31.596V31.4006C108.521 30.6624 108.627 29.9832 108.838 29.3629C109.049 28.7364 109.359 28.1936 109.768 27.7346C110.178 27.2756 110.683 26.9189 111.285 26.6646C111.886 26.4041 112.581 26.2738 113.369 26.2738C114.163 26.2738 114.861 26.4041 115.462 26.6646C116.07 26.9189 116.579 27.2756 116.988 27.7346C117.398 28.1936 117.708 28.7364 117.919 29.3629C118.13 29.9832 118.235 30.6624 118.235 31.4006V31.596C118.235 32.3279 118.13 33.0072 117.919 33.6337C117.708 34.254 117.398 34.7967 116.988 35.2619C116.579 35.721 116.073 36.0776 115.472 36.3319C114.87 36.5863 114.175 36.7134 113.388 36.7134C112.6 36.7134 111.902 36.5863 111.294 36.3319C110.686 36.0776 110.178 35.721 109.768 35.2619C109.359 34.7967 109.049 34.254 108.838 33.6337C108.627 33.0072 108.521 32.3279 108.521 31.596ZM111.657 31.4006V31.596C111.657 31.9744 111.685 32.3279 111.741 32.6567C111.797 32.9854 111.89 33.2739 112.02 33.522C112.15 33.7639 112.327 33.9531 112.55 34.0896C112.773 34.226 113.053 34.2943 113.388 34.2943C113.716 34.2943 113.989 34.226 114.206 34.0896C114.43 33.9531 114.606 33.7639 114.737 33.522C114.867 33.2739 114.96 32.9854 115.016 32.6567C115.072 32.3279 115.1 31.9744 115.1 31.596V31.4006C115.1 31.0346 115.072 30.6903 115.016 30.3678C114.96 30.039 114.867 29.7506 114.737 29.5025C114.606 29.2481 114.43 29.0497 114.206 28.907C113.983 28.7643 113.704 28.693 113.369 28.693C113.04 28.693 112.764 28.7643 112.541 28.907C112.324 29.0497 112.15 29.2481 112.02 29.5025C111.89 29.7506 111.797 30.039 111.741 30.3678C111.685 30.6903 111.657 31.0346 111.657 31.4006ZM125.958 26.4599H128.805V36.1366C128.805 37.067 128.591 37.8548 128.163 38.4999C127.735 39.1512 127.136 39.6443 126.367 39.9793C125.604 40.3205 124.711 40.491 123.688 40.491C123.235 40.491 122.773 40.4321 122.301 40.3143C121.83 40.2026 121.389 40.0351 120.98 39.8118C120.571 39.5885 120.226 39.3125 119.947 38.9837L121.259 37.1414C121.513 37.4268 121.833 37.6687 122.218 37.8672C122.602 38.0719 123.055 38.1742 123.576 38.1742C124.029 38.1742 124.407 38.0936 124.711 37.9323C125.021 37.771 125.257 37.5353 125.418 37.2252C125.58 36.9212 125.66 36.5522 125.66 36.1179V28.8419L125.958 26.4599ZM119.268 31.6146V31.4192C119.268 30.6562 119.361 29.9615 119.547 29.335C119.739 28.7023 120.012 28.1595 120.366 27.7067C120.726 27.2477 121.16 26.8941 121.669 26.646C122.177 26.3979 122.751 26.2738 123.39 26.2738C124.078 26.2738 124.643 26.4072 125.083 26.6739C125.53 26.9344 125.887 27.3004 126.153 27.7718C126.426 28.2433 126.637 28.7953 126.786 29.428C126.941 30.0545 127.071 30.7307 127.177 31.4564V31.689C127.071 32.3713 126.926 33.0165 126.739 33.6243C126.56 34.226 126.324 34.7595 126.032 35.2247C125.741 35.6899 125.375 36.0559 124.934 36.3226C124.5 36.5832 123.979 36.7134 123.371 36.7134C122.739 36.7134 122.168 36.5863 121.659 36.3319C121.157 36.0776 120.726 35.721 120.366 35.2619C120.012 34.8029 119.739 34.2633 119.547 33.643C119.361 33.0227 119.268 32.3465 119.268 31.6146ZM122.404 31.4192V31.6146C122.404 31.993 122.438 32.3434 122.506 32.666C122.58 32.9885 122.692 33.2739 122.841 33.522C122.99 33.7639 123.173 33.9531 123.39 34.0896C123.613 34.226 123.874 34.2943 124.171 34.2943C124.624 34.2943 124.99 34.1981 125.269 34.0058C125.549 33.8135 125.75 33.5406 125.874 33.187C125.998 32.8335 126.051 32.4179 126.032 31.9402V31.2052C126.045 30.7958 126.017 30.436 125.949 30.1259C125.88 29.8095 125.772 29.5459 125.623 29.335C125.48 29.1241 125.288 28.9659 125.046 28.8605C124.81 28.7488 124.525 28.693 124.19 28.693C123.899 28.693 123.641 28.7612 123.418 28.8977C123.194 29.0341 123.008 29.2264 122.86 29.4746C122.711 29.7165 122.596 30.0049 122.515 30.3399C122.441 30.6686 122.404 31.0284 122.404 31.4192ZM133.699 35.3457L136.304 26.4599H139.673L135.625 38.0254C135.538 38.2797 135.424 38.5526 135.281 38.8442C135.138 39.1419 134.943 39.4241 134.695 39.6909C134.447 39.9576 134.127 40.1747 133.736 40.3422C133.352 40.5097 132.874 40.5934 132.304 40.5934C132 40.5934 131.776 40.5779 131.634 40.5469C131.497 40.5221 131.286 40.4755 131.001 40.4073V38.1649C131.082 38.1649 131.15 38.1649 131.206 38.1649C131.268 38.1649 131.336 38.1649 131.41 38.1649C131.745 38.1649 132.012 38.1308 132.211 38.0626C132.415 37.9943 132.57 37.8951 132.676 37.7648C132.787 37.6346 132.874 37.4764 132.936 37.2903L133.699 35.3457ZM133.039 26.4599L135.02 33.5034L135.365 36.8251H133.262L129.68 26.4599H133.039Z" fill="white"/>
</svg>
