<svg width="16" height="15" viewBox="0 0 16 15" fill="none" xmlns="http://www.w3.org/2000/svg">
<path d="M7.3559 14.2801C7.66273 14.2731 7.95717 14.1576 8.18714 13.9541C8.41712 13.7506 8.56781 13.4722 8.61255 13.1682H6.05054C6.09655 13.4804 6.25429 13.7654 6.49441 13.9699C6.73453 14.1744 7.04068 14.2847 7.3559 14.2801Z" fill="white"/>
<path d="M13.3565 4.8771C14.7015 4.8771 15.7919 3.78532 15.7919 2.43855C15.7919 1.09178 14.7015 0 13.3565 0C12.0115 0 10.9211 1.09178 10.9211 2.43855C10.9211 3.78532 12.0115 4.8771 13.3565 4.8771Z" fill="#4FF914"/>
<path d="M14.7204 11.8334L14.5548 11.7135C14.085 11.37 13.6738 10.9762 13.3323 10.5425C12.9593 9.94407 12.7357 9.29051 12.6747 8.62021V6.64593C12.6727 6.40612 12.6467 6.16685 12.5968 5.93056C11.7717 5.79141 11.0306 5.42261 10.4989 4.88658C9.96725 4.35055 9.67766 3.68024 9.67919 2.98912V2.73734C9.17064 2.532 8.62426 2.39697 8.0621 2.33769V1.83413C8.0621 1.69263 7.99359 1.55692 7.87164 1.45687C7.7497 1.35681 7.5843 1.3006 7.41185 1.3006C7.23939 1.3006 7.074 1.35681 6.95206 1.45687C6.83011 1.55692 6.7616 1.69263 6.7616 1.83413V2.35768C5.50286 2.50337 4.35086 3.0178 3.51827 3.80598C2.68569 4.59417 2.22875 5.6029 2.2318 6.64593V8.62021C2.1708 9.29051 1.94724 9.94407 1.57425 10.5425C1.2386 10.9751 0.833989 11.3689 0.371172 11.7135L0.205566 11.8334V12.9604H14.7204V11.8334Z" fill="white"/>
</svg>
