<svg width="158" height="121" viewBox="0 0 158 121" fill="none" xmlns="http://www.w3.org/2000/svg">
<path d="M10.7727 3H147.227C151.861 3 155.5 6.58924 155.5 11.4091V95.0455C155.5 99.8653 151.861 103.455 147.227 103.455H10.7727C6.07845 103.455 2.5 99.8763 2.5 95.0455V11.4091C2.5 6.57824 6.07845 3 10.7727 3ZM116.705 118H40.5773C40.0776 118 39.8512 117.843 39.7527 117.743C39.6515 117.641 39.4864 117.396 39.4864 116.864C39.4864 116.331 39.6515 116.086 39.7527 115.984C39.8512 115.884 40.0776 115.727 40.5773 115.727H117.423C117.922 115.727 118.149 115.884 118.247 115.984C118.349 116.086 118.514 116.331 118.514 116.864C118.514 117.057 118.438 117.286 118.12 117.536C117.775 117.808 117.249 118 116.705 118Z" fill="white" stroke="black" stroke-width="5"/>
<path d="M39.9688 31.2812V45.5H36.541V31.2812H39.9688ZM44.2461 31.2812V33.9277H32.3613V31.2812H44.2461ZM57.459 38.1074V38.6836C57.459 39.7708 57.306 40.7474 57 41.6133C56.7005 42.4727 56.2741 43.2083 55.7207 43.8203C55.1673 44.4258 54.513 44.8913 53.7578 45.2168C53.0026 45.5358 52.1693 45.6953 51.2578 45.6953C50.3398 45.6953 49.5 45.5358 48.7383 45.2168C47.9831 44.8913 47.3255 44.4258 46.7656 43.8203C46.2122 43.2083 45.7826 42.4727 45.4766 41.6133C45.1771 40.7474 45.0273 39.7708 45.0273 38.6836V38.1074C45.0273 37.0202 45.1771 36.0436 45.4766 35.1777C45.7826 34.3118 46.209 33.5762 46.7559 32.9707C47.3092 32.3587 47.9635 31.8932 48.7188 31.5742C49.4805 31.2487 50.3203 31.0859 51.2383 31.0859C52.1497 31.0859 52.9831 31.2487 53.7383 31.5742C54.5 31.8932 55.1576 32.3587 55.7109 32.9707C56.2643 33.5762 56.694 34.3118 57 35.1777C57.306 36.0436 57.459 37.0202 57.459 38.1074ZM53.9824 38.6836V38.0879C53.9824 37.3848 53.9206 36.7663 53.7969 36.2324C53.6797 35.6921 53.5039 35.2396 53.2695 34.875C53.0352 34.5104 52.7454 34.237 52.4004 34.0547C52.0618 33.8659 51.6745 33.7715 51.2383 33.7715C50.7826 33.7715 50.3854 33.8659 50.0469 34.0547C49.7083 34.237 49.4251 34.5104 49.1973 34.875C48.9694 35.2396 48.7969 35.6921 48.6797 36.2324C48.569 36.7663 48.5137 37.3848 48.5137 38.0879V38.6836C48.5137 39.3802 48.569 39.9987 48.6797 40.5391C48.7969 41.0729 48.9694 41.5254 49.1973 41.8965C49.4316 42.2676 49.7181 42.5475 50.0566 42.7363C50.4017 42.9251 50.8021 43.0195 51.2578 43.0195C51.694 43.0195 52.0814 42.9251 52.4199 42.7363C52.7585 42.5475 53.0417 42.2676 53.2695 41.8965C53.5039 41.5254 53.6797 41.0729 53.7969 40.5391C53.9206 39.9987 53.9824 39.3802 53.9824 38.6836ZM64.9102 40.6758H61.375V38.0293H64.9102C65.3919 38.0293 65.7826 37.9479 66.082 37.7852C66.3815 37.6224 66.5996 37.3978 66.7363 37.1113C66.8796 36.8184 66.9512 36.4896 66.9512 36.125C66.9512 35.7344 66.8796 35.373 66.7363 35.041C66.5996 34.709 66.3815 34.4421 66.082 34.2402C65.7826 34.0319 65.3919 33.9277 64.9102 33.9277H62.6641V45.5H59.2363V31.2812H64.9102C66.0495 31.2812 67.0293 31.4896 67.8496 31.9062C68.6764 32.3229 69.3112 32.8958 69.7539 33.625C70.1966 34.3477 70.418 35.1745 70.418 36.1055C70.418 37.0234 70.1966 37.8242 69.7539 38.5078C69.3112 39.1914 68.6764 39.7253 67.8496 40.1094C67.0293 40.487 66.0495 40.6758 64.9102 40.6758ZM41.1699 63.6855H44.5879C44.5423 64.6751 44.2754 65.5475 43.7871 66.3027C43.2988 67.0579 42.6217 67.6471 41.7559 68.0703C40.8965 68.487 39.8809 68.6953 38.709 68.6953C37.7585 68.6953 36.9089 68.5358 36.1602 68.2168C35.418 67.8978 34.7865 67.4388 34.2656 66.8398C33.7513 66.2409 33.3574 65.515 33.084 64.6621C32.8171 63.8092 32.6836 62.849 32.6836 61.7812V61.0098C32.6836 59.9421 32.8236 58.9818 33.1035 58.1289C33.39 57.2695 33.7936 56.5404 34.3145 55.9414C34.8418 55.3359 35.4733 54.8737 36.209 54.5547C36.9447 54.2357 37.7617 54.0762 38.6602 54.0762C39.8971 54.0762 40.9421 54.2975 41.7949 54.7402C42.6478 55.1829 43.3086 55.7917 43.7773 56.5664C44.2461 57.3346 44.5228 58.2103 44.6074 59.1934H41.1895C41.1764 58.6595 41.0853 58.2135 40.916 57.8555C40.7467 57.4909 40.4798 57.2174 40.1152 57.0352C39.7507 56.8529 39.2656 56.7617 38.6602 56.7617C38.237 56.7617 37.8691 56.8398 37.5566 56.9961C37.2441 57.1523 36.9837 57.3997 36.7754 57.7383C36.5671 58.0768 36.4108 58.5163 36.3066 59.0566C36.209 59.5905 36.1602 60.235 36.1602 60.9902V61.7812C36.1602 62.5365 36.2057 63.181 36.2969 63.7148C36.388 64.2487 36.5345 64.6849 36.7363 65.0234C36.9382 65.362 37.1986 65.6126 37.5176 65.7754C37.8431 65.9316 38.2402 66.0098 38.709 66.0098C39.2298 66.0098 39.6693 65.9284 40.0273 65.7656C40.3854 65.5964 40.6621 65.3424 40.8574 65.0039C41.0527 64.6589 41.1569 64.2194 41.1699 63.6855ZM55.7891 59.9258V62.5625H48.4941V59.9258H55.7891ZM49.6367 54.2812V68.5H46.209V54.2812H49.6367ZM58.0938 54.2812V68.5H54.6758V54.2812H58.0938ZM66.4727 57.2695L63.0059 68.5H59.3242L64.5488 54.2812H66.8828L66.4727 57.2695ZM69.3438 68.5L65.8672 57.2695L65.418 54.2812H67.7812L73.0352 68.5H69.3438ZM69.207 63.1973V65.8438H61.9121V63.1973H69.207ZM85.9551 54.2812V68.5H82.5371L77.5078 59.6523V68.5H74.0801V54.2812H77.5078L82.5371 63.1289V54.2812H85.9551ZM99.998 54.2812V68.5H96.5801L91.5508 59.6523V68.5H88.123V54.2812H91.5508L96.5801 63.1289V54.2812H99.998ZM111.951 65.8633V68.5H104.373V65.8633H111.951ZM105.594 54.2812V68.5H102.166V54.2812H105.594ZM110.975 59.9258V62.4746H104.373V59.9258H110.975ZM111.98 54.2812V56.9277H104.373V54.2812H111.98ZM122.752 65.8633V68.5H115.564V65.8633H122.752ZM116.785 54.2812V68.5H113.357V54.2812H116.785Z" fill="black"/>
</svg>
