<svg width="160" height="121" viewBox="0 0 160 121" fill="none" xmlns="http://www.w3.org/2000/svg">
<path d="M10.9091 3H149.091C153.83 3 157.5 6.61891 157.5 11.4091V95.0455C157.5 99.8356 153.83 103.455 149.091 103.455H10.9091C6.10799 103.455 2.5 99.8466 2.5 95.0455V11.4091C2.5 6.60799 6.10799 3 10.9091 3ZM118.182 118H41.0909C40.5681 118 40.3267 117.837 40.2223 117.732C40.1179 117.628 39.9545 117.386 39.9545 116.864C39.9545 116.341 40.1179 116.099 40.2223 115.995C40.3267 115.891 40.5681 115.727 41.0909 115.727H118.909C119.432 115.727 119.673 115.891 119.778 115.995C119.882 116.099 120.045 116.341 120.045 116.864C120.045 117.044 119.975 117.271 119.647 117.527C119.292 117.803 118.748 118 118.182 118Z" fill="white" stroke="black" stroke-width="5"/>
</svg>
