<svg width="168" height="129" viewBox="0 0 168 129" fill="none" xmlns="http://www.w3.org/2000/svg">
<g filter="url(#filter0_d_3004_17350)">
<path d="M14.9091 0.5H153.091C159.2 0.5 164 5.22727 164 11.4091V95.0455C164 101.227 159.2 105.955 153.091 105.955H14.9091C8.72727 105.955 4 101.227 4 95.0455V11.4091C4 5.22727 8.72727 0.5 14.9091 0.5ZM67.3455 29.5909V76.8636V51V29.5909ZM122.182 120.5H45.0909C42.9091 120.5 41.4545 119.045 41.4545 116.864C41.4545 114.682 42.9091 113.227 45.0909 113.227H122.909C125.091 113.227 126.545 114.682 126.545 116.864C126.545 119.045 124.364 120.5 122.182 120.5Z" fill="white"/>
<path d="M97.8455 29.5909V76.8636V51V29.5909Z" fill="white"/>
<path d="M14.9091 3H153.091C157.83 3 161.5 6.61891 161.5 11.4091V95.0455C161.5 99.8356 157.83 103.455 153.091 103.455H14.9091C10.108 103.455 6.5 99.8466 6.5 95.0455V11.4091C6.5 6.60798 10.108 3 14.9091 3ZM69.8455 76.8636V51V29.5909H64.8455V51V76.8636H69.8455ZM122.182 118H45.0909C44.5681 118 44.3267 117.837 44.2223 117.732C44.1179 117.628 43.9545 117.386 43.9545 116.864C43.9545 116.341 44.1179 116.099 44.2223 115.995C44.3267 115.891 44.5681 115.727 45.0909 115.727H122.909C123.432 115.727 123.673 115.891 123.778 115.995C123.882 116.099 124.045 116.341 124.045 116.864C124.045 117.044 123.975 117.271 123.647 117.527C123.292 117.803 122.748 118 122.182 118ZM100.345 76.8636V51V29.5909H95.3455V51V76.8636H100.345Z" stroke="black" stroke-width="5"/>
</g>
<defs>
<filter id="filter0_d_3004_17350" x="0" y="0.5" width="168" height="128" filterUnits="userSpaceOnUse" color-interpolation-filters="sRGB">
<feFlood flood-opacity="0" result="BackgroundImageFix"/>
<feColorMatrix in="SourceAlpha" type="matrix" values="0 0 0 0 0 0 0 0 0 0 0 0 0 0 0 0 0 0 127 0" result="hardAlpha"/>
<feOffset dy="4"/>
<feGaussianBlur stdDeviation="2"/>
<feComposite in2="hardAlpha" operator="out"/>
<feColorMatrix type="matrix" values="0 0 0 0 0 0 0 0 0 0 0 0 0 0 0 0 0 0 0.25 0"/>
<feBlend mode="normal" in2="BackgroundImageFix" result="effect1_dropShadow_3004_17350"/>
<feBlend mode="normal" in="SourceGraphic" in2="effect1_dropShadow_3004_17350" result="shape"/>
</filter>
</defs>
</svg>
