<svg width="120" height="120" viewBox="0 0 120 120" fill="none" xmlns="http://www.w3.org/2000/svg">
<rect x="2.5" y="2.5" width="115" height="115" rx="7.5" fill="white"/>
<path d="M110 40.9999C110 51.4926 100.821 59.9999 89.5 59.9999C86.1486 60.0118 82.837 59.2417 79.8081 57.746L69 59.9999L72.1775 51.1649C70.1662 48.2247 69 44.7382 69 40.9999C69 30.5072 78.1794 22 89.5 22C100.821 22 110 30.5072 110 40.9999Z" fill="white"/>
<path d="M80.3889 40.9999H80.4117M89.5 40.9999H89.5228M98.6111 40.9999H98.6339M110 40.9999C110 51.4926 100.821 59.9999 89.5 59.9999C86.1486 60.0118 82.837 59.2417 79.8081 57.746L69 59.9999L72.1775 51.1649C70.1662 48.2247 69 44.7382 69 40.9999C69 30.5072 78.1794 22 89.5 22C100.821 22 110 30.5072 110 40.9999Z" stroke="black" stroke-width="5" stroke-linecap="round" stroke-linejoin="round"/>
<path d="M54.5 77.5938C50.3359 77.5938 48.3337 79.625 41.5 79.625C34.6663 79.625 32.6786 77.5938 28.5 77.5938C17.7344 77.5938 9 85.2363 9 94.6562V97.9062C9 101.271 12.1194 104 15.9643 104H67.0357C70.8806 104 74 101.271 74 97.9062V94.6562C74 85.2363 65.2656 77.5938 54.5 77.5938ZM67.0357 97.9062H15.9643V94.6562C15.9643 88.6133 21.5937 83.6875 28.5 83.6875C30.6183 83.6875 34.0569 85.7188 41.5 85.7188C49.0011 85.7188 52.3672 83.6875 54.5 83.6875C61.4062 83.6875 67.0357 88.6133 67.0357 94.6562V97.9062ZM41.5 75.5625C53.0346 75.5625 62.3929 67.374 62.3929 57.2812C62.3929 47.1885 53.0346 39 41.5 39C29.9654 39 20.6071 47.1885 20.6071 57.2812C20.6071 67.374 29.9654 75.5625 41.5 75.5625ZM41.5 45.0938C49.1752 45.0938 55.4286 50.5654 55.4286 57.2812C55.4286 63.9971 49.1752 69.4688 41.5 69.4688C33.8248 69.4688 27.5714 63.9971 27.5714 57.2812C27.5714 50.5654 33.8248 45.0938 41.5 45.0938Z" fill="black"/>
<rect x="2.5" y="2.5" width="115" height="115" rx="7.5" stroke="#24272B" stroke-width="5"/>
</svg>
