<svg width="22" height="23" viewBox="0 0 22 23" fill="none" xmlns="http://www.w3.org/2000/svg">
<path d="M12.9834 14.8484L14.2419 13.5363L19.5906 19.115L18.3321 20.4271L12.9834 14.8484Z" fill="#616161"/>
<path d="M8.90055 16.7096C12.833 16.7096 16.0208 13.3846 16.0208 9.28309C16.0208 5.18154 12.833 1.85657 8.90055 1.85657C4.96813 1.85657 1.78027 5.18154 1.78027 9.28309C1.78027 13.3846 4.96813 16.7096 8.90055 16.7096Z" fill="#1D1919"/>
<path d="M14.4409 16.4033L15.699 15.0907L19.5688 19.127L18.3103 20.4397L14.4409 16.4033Z" fill="#1D1919"/>
<path d="M8.90046 15.3171C12.0955 15.3171 14.6857 12.6156 14.6857 9.28307C14.6857 5.95056 12.0955 3.24902 8.90046 3.24902C5.70537 3.24902 3.11523 5.95056 3.11523 9.28307C3.11523 12.6156 5.70537 15.3171 8.90046 15.3171Z" fill="white"/>
<path d="M11.9709 6.59102C11.2143 5.6627 10.1018 5.10571 8.90025 5.10571C7.6987 5.10571 6.58616 5.6627 5.82963 6.59102C5.65162 6.77668 5.69612 7.10159 5.87413 7.24084C6.05214 7.4265 6.36365 7.38009 6.49715 7.19442C7.12018 6.45177 7.96571 6.03403 8.90025 6.03403C9.83478 6.03403 10.6803 6.45177 11.3033 7.19442C11.3923 7.28725 11.5258 7.38009 11.6594 7.38009C11.7484 7.38009 11.8819 7.33367 11.9264 7.28725C12.1044 7.10159 12.1044 6.77668 11.9709 6.59102Z" fill="#FDFEFF"/>
</svg>
