<svg width="209" height="112" viewBox="0 0 209 112" fill="none" xmlns="http://www.w3.org/2000/svg">
<g filter="url(#filter0_d_743_771)">
<path d="M1 21C1 9.95431 9.95431 1 21 1H181C192.046 1 201 9.95431 201 21V91C201 102.046 192.046 111 181 111H21C9.95431 111 1 102.046 1 91V21Z" fill="white" shape-rendering="crispEdges"/>
<path d="M23.457 29.3633V32H16.2695V29.3633H23.457ZM17.4902 17.7812V32H14.0625V17.7812H17.4902ZM31.9824 17.7812V32H28.6914V21.4922L25.4492 22.4395V19.9395L31.6797 17.7812H31.9824ZM43.584 17.7812V32H40.293V21.4922L37.0508 22.4395V19.9395L43.2812 17.7812H43.584Z" fill="black"/>
<path d="M63.5351 23.8157C65.8923 23.2942 68.2495 22.7836 70.6022 22.254C80.0445 20.1247 89.5049 18.0226 99.2911 16.518C101.255 16.2165 103.259 16.0183 105.25 15.7874C105.485 15.7603 105.747 15.8282 106.001 15.8526H105.992C105.046 16.3252 104.1 16.8005 103.155 17.2758L102.689 17.4822L102.716 17.474L102.065 17.7972L102.078 17.7782L101.58 18.096L101.594 18.0905C101.123 18.2508 100.576 18.3648 100.2 18.5821C97.4542 20.1899 94.6989 21.7923 92.0431 23.4517C90.7808 24.2421 89.7357 25.16 88.591 26.021L88.4191 26.1351L88.2426 26.2274L87.8852 26.5696C87.8219 26.5615 87.7585 26.556 87.6952 26.5615C86.917 26.4963 86.1433 26.4311 85.3651 26.3632C85.0349 26.3197 84.7091 26.2654 84.3788 26.2328C81.9764 25.9938 79.574 25.7575 77.1715 25.5185C75.5563 25.3692 73.9366 25.2279 72.3214 25.065C70.8329 24.9156 69.3444 24.7472 67.8604 24.5843L67.5121 24.5109L65.8923 24.3018C65.0825 24.1823 64.2726 24.0601 63.4673 23.9406L63.5397 23.8129L63.5351 23.8157Z" fill="#3D91DE"/>
<path d="M85.3646 26.3659C86.1428 26.431 86.9164 26.4962 87.6946 26.5641C87.6584 26.9009 87.6222 27.235 87.5815 27.5717C87.4096 27.952 87.2377 28.3322 87.0612 28.7124C86.6902 29.5163 86.2378 30.3012 84.5683 30.3773C83.3015 30.4343 82.012 30.5049 80.7588 30.4207C77.6144 30.2034 74.4699 29.9563 71.3572 29.6168C68.4435 29.299 65.5796 28.8373 63.8241 27.1888L63.7201 26.7732L63.6477 26.5804L63.0098 24.72L63.4577 23.9514C64.2675 24.0709 65.0774 24.1931 65.8827 24.3126C66.4211 24.3832 66.964 24.4511 67.5024 24.5218C67.6201 24.5462 67.7332 24.5706 67.8508 24.5951C69.8008 24.883 71.7463 25.198 73.7099 25.4479C74.8998 25.6 76.1259 25.6489 77.3339 25.7439C78.1347 25.8444 78.9264 25.9775 79.7363 26.0345C81.6048 26.1676 83.4824 26.2627 85.3555 26.3713L85.3646 26.3659Z" fill="#0B0D0C"/>
<path d="M109.29 15.6C114.525 16.1269 119.524 17.1453 124.406 18.343C133.255 20.5185 142.033 22.808 150.837 25.0513C151.041 25.1029 151.217 25.1899 151.407 25.2632C150.262 25.4289 149.118 25.5972 147.973 25.7656L147.435 25.8009H147.444L146.932 25.839H146.941L146.43 25.877H146.439L145.638 25.9992L145.648 25.9938L145.344 26.0752H145.353L144.842 26.116H144.856L144.345 26.1567H143.634L143.132 26.1947H143.137C141.096 26.3251 139.056 26.4528 137.015 26.5885C136.943 26.594 136.888 26.6918 136.825 26.7461L136.314 26.7841H136.323C134.531 26.8384 132.74 26.8954 130.952 26.9525C129.686 27.0693 128.414 27.1888 127.147 27.3056C127.089 27.2947 127.034 27.2838 126.976 27.2702C126.903 27.2485 126.835 27.2295 126.763 27.2078C126.491 26.9688 126.215 26.7298 125.944 26.4908L125.768 26.3115L125.781 26.336L125.424 26.097L125.437 26.1105L124.741 25.657V25.6624C124.573 25.4397 124.469 25.1817 124.207 25.0052C120.777 22.6722 117.343 20.3392 113.864 18.0334C113.276 17.6423 112.457 17.3789 111.742 17.0557L111.756 17.0639L111.258 16.8004L109.109 15.8553L109.281 15.6054L109.29 15.6Z" fill="#3D91DE"/>
<path d="M126.768 27.205C126.84 27.2267 126.908 27.2457 126.98 27.2674C127.003 27.3299 127.03 27.3924 127.053 27.4521L127.084 27.835L127.071 27.8595L127.093 28.2153L127.021 28.2044V28.161C126.709 28.7204 126.401 29.2799 126.089 29.8394C125.469 30.6243 124.392 31.1376 123.026 31.2788C120.18 31.5749 117.316 31.8437 114.439 31.9795C108.091 32.281 101.752 32.0936 95.4998 31.3956C92.9028 31.105 89.9801 31.0425 88.3377 29.4184C88.0844 28.8019 87.831 28.1854 87.5776 27.5689C87.6138 27.2321 87.6546 26.8981 87.6907 26.5613C87.7541 26.5586 87.8174 26.5613 87.8808 26.5721C88.8445 26.6428 89.8081 26.7297 90.7764 26.784C99.9065 27.3136 109.059 27.482 118.226 27.4195C121.071 27.4005 123.917 27.2783 126.763 27.2022L126.768 27.205Z" fill="#0B0D0C"/>
<path d="M127.083 27.8351C127.074 27.7075 127.061 27.5798 127.052 27.4522C127.083 27.4033 127.115 27.3517 127.147 27.3028C128.414 27.186 129.685 27.0665 130.952 26.9497C132.743 26.8927 134.535 26.8357 136.322 26.7813H136.313C136.485 26.7705 136.657 26.7569 136.824 26.7433C138.788 26.6265 140.747 26.5098 142.711 26.3767C142.864 26.3658 142.996 26.2599 143.14 26.1974H143.136C143.303 26.1838 143.471 26.1703 143.638 26.1567C143.878 26.1567 144.118 26.1567 144.357 26.1567H144.348L144.86 26.116H144.846L145.357 26.0752H145.348L145.651 25.9964L145.642 26.0019C145.909 25.9611 146.176 25.9231 146.443 25.8824H146.434C146.606 25.8661 146.773 25.8525 146.945 25.8416H146.936L147.448 25.8009H147.438C147.619 25.79 147.796 25.7792 147.977 25.7683C149.122 25.5999 150.266 25.4343 151.411 25.2659C151.501 25.437 151.696 25.6189 151.66 25.7792C151.528 26.3794 151.325 26.9769 151.148 27.5744C151.117 27.5825 151.062 27.5934 151.062 27.6016C151.062 27.6369 151.09 27.6695 151.103 27.7048C151.022 27.9356 150.94 28.1665 150.854 28.3973C150.117 29.5733 148.339 29.9074 146.606 30.2686C143.204 30.9774 139.666 31.2083 136.1 31.2517C133.282 31.287 130.409 31.4663 127.744 30.6542L127.807 30.6216L127.749 30.6542C127.676 30.475 127.599 30.2957 127.527 30.1192C127.518 30.0567 127.513 29.9943 127.504 29.9318C127.473 29.8476 127.445 29.7607 127.414 29.6765V29.6955C127.359 29.4837 127.301 29.2691 127.246 29.0573C127.201 28.7775 127.156 28.4978 127.111 28.2208H127.097C127.088 28.104 127.079 27.9872 127.074 27.8677L127.088 27.8433L127.083 27.8351Z" fill="#0B0D0C"/>
<path d="M88.3423 29.4213C89.9801 31.0454 92.9074 31.1106 95.5043 31.3985C101.757 32.0965 108.096 32.2839 114.443 31.9824C117.321 31.8466 120.185 31.575 123.03 31.2817C124.392 31.1405 125.469 30.6272 126.093 29.8423C125.858 31.1622 124.573 31.8575 122.438 31.996C118.33 32.2621 114.217 32.5066 110.109 32.7591C109.666 32.7863 109.227 32.8162 108.783 32.8433C108.087 32.8352 107.394 32.8243 106.698 32.8162C104.309 32.6831 101.902 32.6234 99.5355 32.3979C96.6128 32.1209 93.7172 31.7298 90.8262 31.3469C89.1567 31.1269 88.4735 30.3882 88.3468 29.4186L88.3423 29.4213Z" fill="#574F4F"/>
<path d="M63.8291 27.1833C65.5845 28.8346 68.4485 29.2936 71.3621 29.6114C74.4749 29.9509 77.6193 30.198 80.7637 30.4153C82.017 30.5022 83.3064 30.4316 84.5732 30.3718C86.2427 30.2958 86.6952 29.5109 87.0662 28.707C87.2878 30.0432 86.3558 30.8879 84.2611 30.953C78.0265 31.1459 71.9277 30.7575 66.1908 29.1361C64.8018 28.745 63.8336 28.1747 63.8336 27.1833H63.8291Z" fill="#574F4F"/>
<path d="M127.744 30.6543C130.404 31.4663 133.282 31.2871 136.101 31.2518C139.666 31.2083 143.204 30.9775 146.606 30.2686C148.339 29.9074 150.113 29.5733 150.855 28.3973C150.764 29.3968 149.959 30.1056 148.389 30.4479C146.945 30.7629 145.502 31.1078 144.005 31.3006C139.313 31.9063 134.571 32.0991 129.798 31.6836C128.785 31.5967 127.88 31.3957 127.744 30.657V30.6543Z" fill="#574F4F"/>
<path d="M108.833 14.5652C108.734 14.6955 108.634 14.8259 108.535 14.9563C107.521 15.2088 108.747 15.5402 108.449 15.8172C107.824 15.771 107.204 15.7249 106.58 15.6787V15.6868C107.485 15.3881 107.354 14.9264 107.073 14.4674C106.625 13.7341 106.978 13.4544 108.295 13.5331C107.946 13.783 107.734 14.0057 108.412 14.2094C108.602 14.2664 108.693 14.4429 108.833 14.5624V14.5652Z" fill="#6B473D"/>
<path d="M108.832 14.5652C108.697 14.443 108.606 14.2665 108.412 14.2122C107.733 14.0112 107.946 13.7858 108.294 13.5359C109.262 13.8048 109.407 14.0791 108.832 14.5652Z" fill="#94756D"/>
<path d="M108.711 36.2655C108.697 35.524 108.688 34.7826 108.674 34.0411C108.688 34.7826 108.697 35.524 108.711 36.2655Z" fill="#1C1C1D"/>
<path d="M108.711 39.5732C108.697 38.8344 108.683 38.093 108.674 37.3542C108.688 38.093 108.702 38.8344 108.711 39.5732Z" fill="#1C1C1D"/>
<path d="M108.448 15.8175C108.747 15.5405 107.525 15.2064 108.534 14.9565C108.787 15.1711 109.036 15.3857 109.29 15.6029C109.231 15.6871 109.172 15.7686 109.118 15.8528C108.896 15.8419 108.67 15.8311 108.448 15.8202V15.8175Z" fill="#94756D"/>
<path d="M127.242 29.0519C127.301 29.2637 127.356 29.4783 127.415 29.6901C127.356 29.4783 127.301 29.2637 127.242 29.0519Z" fill="#631F2B"/>
<path d="M127.522 30.1166C127.595 30.2958 127.672 30.4751 127.744 30.6516C127.672 30.4724 127.595 30.2931 127.522 30.1166Z" fill="#631F2B"/>
<path d="M106.001 15.8527C106.195 15.7983 106.394 15.7413 106.589 15.687V15.6788C106.385 15.7359 106.186 15.7929 105.992 15.8499H106.001V15.8527Z" fill="#94756D"/>
<path d="M127.094 28.2193H127.108C127.067 28.2054 127.034 28.1888 127.016 28.1638V28.2082L127.094 28.2193Z" fill="#631F2B"/>
<path d="M127.409 29.674C127.441 29.7581 127.468 29.8451 127.5 29.9292C127.468 29.8451 127.441 29.7581 127.409 29.674Z" fill="#631F2B"/>
<path d="M151.095 27.7023C151.081 27.667 151.059 27.6344 151.054 27.5991C151.054 27.5909 151.109 27.58 151.141 27.5719L151.095 27.7023Z" fill="#631F2B"/>
<path d="M63.6523 26.5748L63.7251 26.7677L63.6523 26.5748Z" fill="#631F2B"/>
<path d="M105.987 15.8499C106.186 15.7929 106.381 15.7359 106.58 15.6788C107.204 15.725 107.824 15.7712 108.448 15.8173C108.67 15.8282 108.896 15.8391 109.118 15.8499C109.833 16.165 110.552 16.48 111.267 16.7951C111.434 16.882 111.597 16.9716 111.765 17.0585L111.751 17.0504C114.294 18.7044 116.855 20.3502 119.379 22.0178C121.193 23.2182 122.962 24.4431 124.754 25.6571V25.6517C124.98 25.8037 125.211 25.9531 125.446 26.1052L125.433 26.0916L125.79 26.3306L125.777 26.3062C125.835 26.3659 125.894 26.4257 125.953 26.4854C126.224 26.7244 126.496 26.9634 126.772 27.2024C123.926 27.2785 121.08 27.398 118.234 27.4197C109.068 27.4822 99.9154 27.3138 90.7852 26.7842C89.817 26.7272 88.8533 26.643 87.8896 26.5723C88.0073 26.4583 88.1294 26.3442 88.2471 26.2301C88.3059 26.2003 88.3647 26.1704 88.4235 26.1378L88.5954 26.0237C88.7176 25.9721 88.8533 25.9314 88.9574 25.8716C93.1741 23.2807 97.3863 20.687 101.598 18.0933L101.585 18.0987L102.083 17.7809L102.069 17.8C102.286 17.6913 102.503 17.5854 102.72 17.4768L102.693 17.4822C102.847 17.4143 103.005 17.3437 103.159 17.2758C104.105 16.8005 105.051 16.3252 105.996 15.8499H105.987Z" fill="#5C595A"/>
<path d="M101.594 18.0931C97.3816 20.6868 93.1695 23.2805 88.9528 25.8715C88.8532 25.934 88.713 25.9747 88.5908 26.0236C89.7355 25.1627 90.7806 24.2474 92.0429 23.4543C94.6987 21.7922 97.454 20.1925 100.2 18.5847C100.576 18.3647 101.128 18.2534 101.594 18.0931Z" fill="#3D91DE"/>
<path d="M77.3429 25.7386C76.1349 25.6435 74.9088 25.5946 73.7189 25.4425C71.7553 25.1927 69.8099 24.8776 67.8599 24.5897C69.3484 24.75 70.8324 24.9211 72.3209 25.0704C73.9361 25.2307 75.5558 25.3719 77.171 25.524C77.2298 25.5946 77.2841 25.6679 77.3429 25.7413V25.7386Z" fill="#3D91DE"/>
<path d="M77.3428 25.7385C77.284 25.6652 77.2297 25.5946 77.1709 25.5212C79.5733 25.7575 81.9758 25.9938 84.3782 26.2355C84.7085 26.2681 85.0342 26.3224 85.3645 26.3659C83.4914 26.2573 81.6138 26.1622 79.7453 26.0291C78.9354 25.9721 78.1436 25.8363 77.3428 25.7385Z" fill="#3D91DE"/>
<path d="M67.5074 24.5163C66.969 24.4456 66.4261 24.3777 65.8877 24.3071C66.4261 24.3777 66.969 24.4456 67.5074 24.5163Z" fill="#B85052"/>
<path d="M102.711 17.4767C102.494 17.5853 102.277 17.6912 102.06 17.7999C102.277 17.6912 102.494 17.5853 102.711 17.4767Z" fill="#8E4546"/>
<path d="M102.074 17.7809L101.576 18.0986L102.074 17.7809Z" fill="#8E4546"/>
<path d="M103.15 17.2759C102.996 17.3438 102.837 17.4144 102.684 17.4823C102.837 17.4144 102.996 17.3438 103.15 17.2759Z" fill="#8E4546"/>
<path d="M88.4196 26.1405C88.3604 26.1701 88.3013 26.1997 88.2422 26.232L88.4196 26.1405Z" fill="#8E4546"/>
<path d="M124.754 25.6597C122.962 24.4457 121.198 23.2181 119.379 22.0204C116.854 20.3528 114.298 18.707 111.751 17.053C112.461 17.3762 113.28 17.6396 113.873 18.0307C117.352 20.3365 120.786 22.6695 124.216 25.0024C124.473 25.179 124.578 25.4397 124.754 25.6597Z" fill="#5C595A"/>
<path d="M143.137 26.1975C142.997 26.26 142.861 26.3686 142.707 26.3768C140.748 26.5071 138.784 26.6239 136.821 26.7461C136.884 26.6918 136.938 26.594 137.011 26.5886C139.051 26.4528 141.092 26.3252 143.132 26.1975H143.137Z" fill="#0B0D0C"/>
<path d="M136.323 26.7812C134.531 26.8383 132.74 26.8953 130.953 26.9496C132.744 26.8926 134.536 26.8356 136.323 26.7812Z" fill="#C66767"/>
<path d="M125.441 26.1079C125.211 25.9558 124.975 25.8064 124.745 25.6543L125.441 26.1079Z" fill="#8E3F40"/>
<path d="M146.439 25.8798C146.172 25.9205 145.905 25.9585 145.638 25.9993L146.439 25.8798Z" fill="#C05557"/>
<path d="M111.765 17.0585C111.597 16.9716 111.434 16.882 111.267 16.795C111.434 16.882 111.597 16.9716 111.765 17.0585Z" fill="#8E3F40"/>
<path d="M136.825 26.7434C136.653 26.7571 136.481 26.7709 136.314 26.7846C136.486 26.7709 136.658 26.7571 136.825 26.7434Z" fill="#C66767"/>
<path d="M143.634 26.1569C143.467 26.1706 143.299 26.1843 143.132 26.198C143.299 26.1843 143.467 26.1706 143.634 26.1569Z" fill="#C05557"/>
<path d="M144.855 26.1161L144.344 26.16L144.855 26.1161Z" fill="#C05557"/>
<path d="M145.353 26.0753L144.841 26.1192C145.013 26.1055 145.185 26.089 145.353 26.0753Z" fill="#C05557"/>
<path d="M146.937 25.8389C146.765 25.8526 146.598 25.8663 146.426 25.88C146.598 25.8663 146.765 25.8526 146.937 25.8389Z" fill="#C05557"/>
<path d="M147.439 25.7982L146.928 25.8394L147.439 25.7982Z" fill="#C05557"/>
<path d="M147.969 25.7656C147.788 25.7766 147.612 25.7903 147.431 25.8013C147.612 25.7903 147.788 25.7766 147.969 25.7656Z" fill="#C05557"/>
<path d="M125.785 26.3332L125.428 26.0942L125.785 26.3332Z" fill="#8E3F40"/>
<path d="M125.949 26.4881C125.89 26.4283 125.831 26.3686 125.772 26.3088C125.831 26.3686 125.89 26.4283 125.949 26.4881Z" fill="#8E3F40"/>
<path d="M127.148 27.3029C127.116 27.3518 127.085 27.4034 127.053 27.4523C127.03 27.3898 127.003 27.3273 126.98 27.2676C127.035 27.2812 127.094 27.292 127.153 27.3029H127.148Z" fill="#631F2B"/>
<path d="M145.647 25.9966L145.344 26.0773L145.647 25.9966Z" fill="#C05557"/>
<path d="M127.085 27.8351L127.07 27.8613L127.085 27.8351Z" fill="#631F2B"/>
<ellipse cx="107.176" cy="76.848" rx="11.1404" ry="3.09455" fill="#363537"/>
<path d="M107.547 32.1847V74.1005" stroke="black" stroke-width="2.68261"/>
<path d="M103.826 93.456C103.32 93.128 103.209 92.8991 103.439 92.4703C104.553 90.4119 104.742 88.2373 104.406 85.9893C104.216 84.7184 104.403 83.5226 105.262 82.472C105.342 82.3747 105.544 82.2483 105.37 82.115C105.17 81.963 105.101 81.6145 104.764 81.6658C102.93 81.9425 101.263 82.5387 100.034 83.9394C99.9437 84.0436 99.8875 84.1495 99.9074 84.2896C99.9274 84.4263 99.882 84.5783 99.7551 84.6227C99.2762 84.7918 99.122 85.2155 98.9061 85.5742C97.8032 87.402 96.1361 88.4594 93.961 88.8403C93.8721 88.8557 93.7833 88.8711 93.6925 88.8796C93.1048 88.9326 92.6513 88.6524 92.6114 88.2117C92.5733 87.8069 92.918 87.4823 93.4948 87.4293C95.3216 87.2653 96.7147 86.4608 97.6762 84.9848C97.9047 84.633 98.1551 84.293 98.4199 83.9667C98.556 83.7976 98.5324 83.6746 98.4199 83.5106C97.2662 81.8092 96.1107 80.1078 94.9714 78.3979C94.7792 78.1092 94.6576 78.2049 94.469 78.3808C92.8817 79.8636 91.289 81.3412 89.698 82.8205C89.6128 82.9008 89.5293 82.9845 89.4332 83.0528C89.23 83.198 89.0323 83.1639 88.8636 83.0016C88.7058 82.8478 88.7076 82.6651 88.8327 82.496C88.9089 82.3918 89.0142 82.3063 89.1103 82.2158C90.723 80.716 92.3284 79.211 93.9538 77.7249C94.2241 77.4772 94.2495 77.308 94.0336 77.0108C93.6073 76.4266 93.2318 75.8082 92.8363 75.2052C92.5515 74.7816 92.2758 74.7559 91.9094 75.1095C91.7098 75.3009 91.581 75.5383 91.367 75.7279C90.6559 76.3566 89.9847 77.0262 89.2844 77.6685C88.5915 78.3039 87.9892 79.0282 87.2092 79.5783C87.1747 79.2127 87.5031 79.0863 87.7189 78.8813C88.5752 78.0665 89.4223 77.2448 90.2767 76.43C90.6831 76.0422 90.9824 75.5537 91.4831 75.2496C91.7062 75.1147 91.8168 74.8824 91.8985 74.6535C91.9837 74.4143 91.9039 74.2179 91.6318 74.1564C91.24 74.0675 90.8663 73.924 90.4436 73.9343C89.981 73.9462 89.5148 73.8865 89.0522 73.8472C87.7534 73.7395 86.4564 73.6268 85.1575 73.5175C84.2178 73.4389 83.2764 73.3689 82.3385 73.2766C82.0047 73.2442 81.7888 73.415 81.5984 73.6097C81.3988 73.8147 81.5167 74.0317 81.6637 74.2298C82.0156 74.7047 82.3403 75.1984 82.6687 75.6869C83.5521 76.9989 84.4065 78.3279 85.3262 79.6193C85.7326 80.1915 86.1843 80.2496 86.7448 79.7987C86.8827 79.6876 87.0006 79.551 87.2092 79.58C87.1475 79.8892 86.8464 80.019 86.6523 80.2274C86.3004 80.6049 86.2441 81.0269 86.518 81.4266C86.9117 82.0057 87.3053 82.5865 87.7008 83.1656C88.4609 84.2828 89.2409 85.3897 89.972 86.524C90.2078 86.8895 90.5252 87.197 90.7284 87.5762C90.7846 87.6804 90.9225 87.8274 90.7593 87.9111C90.5779 88.005 90.5144 87.8205 90.4345 87.7009C89.9048 86.8981 89.3733 86.0952 88.84 85.2957C88.4808 84.7577 88.1325 84.211 87.7534 83.6866C87.2799 83.034 86.9443 82.2978 86.362 81.7102C85.9303 81.2746 85.5856 81.237 85.143 81.6606C84.5226 82.2534 83.9258 82.8701 83.309 83.4645C82.5453 84.2025 81.7526 84.9148 81.0306 85.6904C80.9562 85.7706 80.8601 85.9261 80.7476 85.8458C80.5916 85.7365 80.7694 85.6271 80.8292 85.5229C81.3027 84.7047 82.1517 84.2161 82.8083 83.5602C83.5775 82.7932 84.4101 82.0757 85.2083 81.3292C85.5657 80.9961 85.6056 80.4905 85.3298 80.0788C84.7221 79.1751 84.1253 78.2629 83.494 77.373C82.6777 76.2199 81.9739 74.9985 81.114 73.8711C80.8528 73.5277 80.8818 72.9401 81.1358 72.6582C81.5929 72.6104 82.0356 72.759 82.4909 72.7488C82.5036 72.8171 82.5126 72.8906 82.6052 72.9025C82.7249 72.9179 82.7503 72.8376 82.7648 72.7505C82.9752 72.7778 83.1875 72.8051 83.3979 72.8342C83.4106 72.9025 83.4197 72.976 83.5122 72.9879C83.6319 73.0033 83.6573 72.923 83.6718 72.8359C83.8623 72.8051 84.0328 72.8906 84.2142 72.9179C84.3339 73.0887 84.4537 73.2032 84.5788 72.9213C84.7893 72.9213 84.9997 72.9247 85.2101 72.9264C85.2319 73.034 85.2573 73.1348 85.3933 73.005L86.1171 73.0101C86.1589 73.1861 86.2459 73.2271 86.3911 73.0904C86.6106 73.0648 86.8174 73.1263 87.026 73.1724C87.1457 73.2954 87.2672 73.2954 87.3888 73.1758C87.6373 73.1553 87.8768 73.1929 88.1144 73.2578C88.1743 73.3449 88.2341 73.3467 88.2958 73.2595C89.8976 73.4013 91.4994 73.5431 93.103 73.6866C93.2536 73.9548 93.0685 74.3426 93.4404 74.5322C93.464 74.6278 93.4567 74.7491 93.5184 74.814C93.9737 75.3111 94.2894 75.8936 94.654 76.4437C94.868 76.7665 94.9823 76.7614 95.2617 76.5001C96.7002 75.1488 98.1605 73.8198 99.6136 72.4823C100.196 72.6907 99.9455 73.0614 99.8149 73.4081C98.4308 74.6962 97.054 75.9876 95.659 77.2653C95.434 77.4703 95.4467 77.607 95.6045 77.8376C96.7129 79.4604 97.8122 81.0901 98.9006 82.7266C99.073 82.9862 99.1782 83.0682 99.4612 82.8154C100.921 81.512 102.739 80.9568 104.678 80.675C104.755 80.6784 104.856 80.6784 104.869 80.5998C104.938 80.183 105.203 79.8875 105.522 79.6227C105.578 79.5749 105.638 79.4878 105.574 79.4382C105.346 79.2623 105.377 78.9292 105.116 78.7788C104.417 75.9397 104.51 73.0802 104.903 70.2189C105.07 69.0112 105.299 67.812 105.5 66.6077C106.106 66.6111 106.714 66.6162 107.32 66.6196C106.443 70.6049 105.848 74.6005 106.852 78.6507C106.761 78.8403 106.906 78.9104 107.047 78.965C107.303 79.0641 107.448 79.2776 107.644 79.4314C107.889 79.6261 107.759 80.0634 108.183 80.0925C108.335 80.5281 108.609 80.938 108.455 81.4368C108.417 81.5598 108.584 81.6128 108.68 81.676C110.498 82.853 112.123 84.2076 113.418 85.9124C114.16 86.8878 115.301 87.25 116.531 87.3525C116.907 87.3832 117.286 87.3593 117.663 87.361C118.22 87.3644 118.639 87.7385 118.668 88.2578C118.697 88.7857 118.331 89.2435 117.776 89.252C115.43 89.2913 113.362 88.6849 112.005 86.7443C110.837 85.0737 109.31 83.7652 107.633 82.5831C107.269 82.3268 106.87 82.4259 106.59 82.7829C105.852 83.7242 105.776 84.7662 105.997 85.8731C106.313 87.4481 106.42 89.0299 106.064 90.6169C105.901 91.3429 105.651 92.0416 105.362 92.73C105.228 93.0511 105.021 93.2937 104.698 93.4492C104.404 93.5124 104.111 93.5055 103.815 93.4543L103.826 93.456Z" fill="#665E5E"/>
<path d="M136.465 54.0538C136.504 53.9957 136.54 53.9377 136.578 53.8796C136.761 53.8847 136.899 53.8352 136.919 53.637C137.008 53.6011 137.099 53.5994 137.189 53.6319C137.209 53.8471 137.363 53.8847 137.554 53.8762C137.714 54.0624 137.625 54.2708 137.619 54.4723C137.38 54.5629 137.421 54.6859 137.574 54.8225C137.558 55.019 137.539 55.2154 137.523 55.4119C137.325 55.4751 137.331 55.5673 137.481 55.6784C137.461 56.0183 137.485 56.3634 137.365 56.693C137.305 56.6982 137.238 56.7033 137.229 56.7716C137.22 56.8434 137.287 56.857 137.347 56.8656C137.383 57.0979 137.338 57.3234 137.273 57.5472C137.215 57.5523 137.148 57.5574 137.138 57.624C137.129 57.6941 137.193 57.7094 137.253 57.7197C137.293 57.952 137.247 58.1775 137.182 58.4013C137.124 58.4064 137.057 58.4115 137.048 58.4782C137.039 58.5482 137.102 58.5636 137.16 58.5738C137.157 59.1478 137.082 59.7132 136.982 60.2786C136.881 60.2872 136.756 60.2684 136.752 60.4136C136.75 60.5314 136.857 60.528 136.944 60.5417C136.972 61.0303 136.855 61.5051 136.805 61.9869C136.453 62.1201 136.473 62.2961 136.738 62.501L136.716 62.841C136.435 62.9776 136.54 63.1655 136.641 63.3535C136.632 63.4952 136.623 63.637 136.614 63.7805C136.373 63.8933 136.429 64.0453 136.549 64.2076C136.54 64.3494 136.531 64.4928 136.522 64.6346C136.264 64.773 136.364 64.9592 136.447 65.142C136.478 65.405 136.447 65.663 136.366 65.9158C136.308 65.9209 136.241 65.9278 136.231 65.9944C136.222 66.0644 136.288 66.0798 136.346 66.0883C136.384 66.2933 136.346 66.4898 136.284 66.6845C136.195 66.693 136.114 66.7135 136.115 66.8195C136.115 66.9032 136.182 66.9271 136.255 66.9425C136.293 67.1748 136.244 67.4003 136.184 67.624C136.126 67.6292 136.059 67.636 136.05 67.7009C136.041 67.7709 136.104 67.7863 136.163 67.7966C136.159 68.3415 136.092 68.8813 135.994 69.416C135.825 69.5133 135.606 69.6039 135.947 69.7627C135.963 70.0224 135.95 70.2803 135.869 70.5315C135.803 70.5366 135.713 70.5161 135.702 70.6032C135.689 70.6971 135.785 70.6835 135.847 70.6954C135.834 70.8663 135.823 71.0371 135.811 71.2079C135.533 71.348 135.635 71.5342 135.74 71.7204L135.713 72.1457C135.47 72.3114 135.482 72.484 135.7 72.6616L135.74 72.8307C135.649 72.8871 135.649 72.9435 135.74 72.9998L135.749 73.2544C135.566 73.4372 135.685 73.6609 135.656 73.8642C135.651 73.9343 135.62 73.9906 135.549 74.0214C135.441 74.0419 135.333 74.0641 135.462 74.1922C135.464 74.3647 135.333 74.4519 135.205 74.539C135.051 74.5475 135.014 74.6346 135.04 74.761C135.012 74.8789 134.954 74.9797 134.853 75.0549C134.644 75.1283 134.446 75.2086 134.572 75.4785C134.456 75.7279 134.289 75.9483 134.107 76.1584C133.92 76.1703 133.928 76.2967 133.933 76.4214C133.868 76.5786 133.788 76.7272 133.648 76.8383C133.47 76.8536 133.472 76.9749 133.476 77.0979C133.325 77.1099 133.291 77.1953 133.314 77.3183L133.318 77.3405L133.298 77.3541C133.106 77.3627 133.109 77.4891 133.117 77.6189C132.712 78.3295 132.228 78.9923 131.745 79.6568C131.564 79.6705 131.568 79.7935 131.571 79.9165C131.306 80.3823 131.381 80.8162 131.794 81.2182C132.025 81.4419 132.244 81.676 132.469 81.9049C132.705 82.4976 133.151 82.8991 133.759 83.1553L133.842 83.2356C133.815 83.4337 133.906 83.5209 134.116 83.4987C134.998 84.2827 135.85 85.0941 136.663 85.9431C136.779 86.3685 136.758 86.7511 136.289 86.992C136.211 87.004 136.144 86.992 136.103 86.9202C135.945 86.6111 135.841 86.2472 135.37 86.237C134.486 85.4546 133.639 84.6398 132.823 83.7959C132.444 83.1228 131.943 82.5608 131.194 82.226C131.031 82.0808 130.855 81.9459 130.704 81.7887C130.554 81.6316 130.432 81.6469 130.298 81.7938C130.189 81.8075 130.073 81.8195 130.194 81.9612L130.017 82.2192C129.841 82.2329 129.841 82.3524 129.842 82.4737C129.739 82.4908 129.623 82.4993 129.734 82.6411C129.639 82.87 129.48 83.0596 129.316 83.2475C129.11 83.2561 129.117 83.3893 129.131 83.5277C129.042 83.7412 128.919 83.9343 128.745 84.0965C128.605 84.1136 128.571 84.1973 128.593 84.3152C128.602 84.3374 128.593 84.3511 128.571 84.3562C128.424 84.3681 128.391 84.4553 128.413 84.5748C128.353 84.7508 128.253 84.9045 128.115 85.0361C127.961 85.0634 127.805 85.0907 127.939 85.294C127.66 85.7655 127.366 86.2267 127.018 86.6555C126.878 86.676 126.847 86.7597 126.869 86.8758C126.876 86.898 126.867 86.9117 126.842 86.9168C126.697 86.9305 126.666 87.0159 126.688 87.1338V87.1594L126.668 87.1731C126.519 87.185 126.485 87.2704 126.508 87.3934L126.512 87.4156L126.492 87.4293C126.28 87.4259 126.238 87.5916 126.149 87.7197C125.998 87.9384 125.861 88.239 125.572 88.2475C125.182 88.2578 125.247 87.8786 125.157 87.6428C125.137 87.5899 125.128 87.5335 125.113 87.4788C125.231 87.2089 125.393 86.9681 125.599 86.7494C125.735 86.7289 125.77 86.6469 125.746 86.5325C125.739 86.5086 125.746 86.4949 125.774 86.4898C126.135 86.3429 126.267 86.0576 126.301 85.7125L126.298 85.7159C126.661 85.6322 126.708 85.3572 126.74 85.0719C126.958 84.6705 127.203 84.2862 127.502 83.9325C127.642 83.9138 127.675 83.8283 127.651 83.7122C127.644 83.69 127.651 83.678 127.675 83.6729C127.82 83.6609 127.852 83.5755 127.831 83.456C127.856 83.3347 127.932 83.2424 128.025 83.1604C128.353 83.1058 128.382 82.8734 128.382 82.6257C128.582 82.2363 128.848 81.8878 129.117 81.5393C129.305 81.5291 129.304 81.4044 129.296 81.2762C129.302 81.2062 129.329 81.1481 129.402 81.1157C129.545 81.0969 129.576 81.0115 129.552 80.8936C129.625 80.704 129.465 80.6169 129.356 80.5075C128.97 80.1215 128.583 79.7371 128.197 79.3528C128.148 78.9958 127.843 78.8198 127.591 78.6131C127.381 78.4406 127.332 78.0665 126.927 78.1297C125.926 77.1833 124.926 76.2352 123.923 75.2906C123.553 74.9421 123.573 74.9575 123.319 75.3709C122.987 75.9124 122.635 76.4454 122.256 76.9561C122.057 77.2243 122.095 77.3815 122.334 77.6001C123.923 79.059 125.5 80.5332 127.08 82.0005C127.198 82.1099 127.319 82.2192 127.43 82.3354C127.606 82.5198 127.631 82.7214 127.441 82.9059C127.232 83.1109 127.011 83.075 126.802 82.8939C126.691 82.7983 126.584 82.6958 126.477 82.5967C124.93 81.1567 123.379 79.7218 121.841 78.2732C121.612 78.0579 121.518 78.0426 121.333 78.3193C120.043 80.2598 118.733 82.1884 117.429 84.1205C117.389 84.1802 117.349 84.24 117.307 84.3015C117.141 84.5475 116.932 84.7576 116.609 84.5595C116.288 84.3613 116.406 84.1034 116.576 83.854C117.93 81.8502 119.272 79.8396 120.642 77.8461C120.863 77.5233 120.857 77.3456 120.556 77.0706C118.499 75.1864 116.464 73.28 114.419 71.3839C114.213 71.1925 114.024 70.9944 113.942 70.7245C114.029 70.5895 114.144 70.6476 114.253 70.6869C114.65 70.8321 115.045 70.979 115.441 71.1259C115.464 71.1618 115.483 71.2045 115.513 71.2335C117.4 72.993 119.288 74.7474 121.171 76.5103C121.364 76.6896 121.463 76.6281 121.579 76.4471C121.855 76.0234 122.138 75.6032 122.427 75.1881C122.672 74.8362 123.02 74.5031 122.574 74.0709C122.566 74.0641 122.574 74.0436 122.574 74.0299C122.701 73.9513 122.71 73.8659 122.594 73.7703L122.613 73.6866C123.228 73.5414 123.858 73.5397 124.484 73.4901C125.587 73.403 126.684 73.2544 127.787 73.1775C128.894 73.1006 129.989 72.9503 131.098 72.8905C132.306 72.8239 133.51 72.6787 134.719 72.5745C134.954 72.554 135.237 72.6257 135.19 72.2534C135.152 71.9544 135.372 71.5069 134.74 71.5393L134.662 71.4624C134.644 71.4351 134.626 71.4061 134.608 71.3787C134.63 71.2079 134.651 71.0371 134.675 70.8663C134.945 70.7228 134.849 70.5383 134.74 70.3521C134.748 70.2393 134.755 70.1249 134.762 70.0121C135.04 69.8738 134.936 69.6859 134.835 69.4997C134.844 69.3579 134.853 69.2161 134.862 69.0726C135.103 68.9616 135.045 68.8078 134.929 68.6456C134.938 68.5038 134.947 68.3603 134.956 68.2185C135.192 68.1058 135.136 67.9537 135.021 67.7932C135.014 67.5335 134.991 67.2704 135.103 67.021C135.192 67.0125 135.274 66.992 135.272 66.8861C135.272 66.8024 135.205 66.7785 135.132 66.7648C135.094 66.5325 135.143 66.307 135.207 66.0832C135.265 66.0781 135.33 66.0713 135.339 66.0046C135.348 65.9363 135.286 65.9192 135.226 65.9107C135.188 65.7074 135.219 65.5092 135.288 65.3145C135.45 65.306 135.517 65.1966 135.524 65.0719C135.531 64.9575 135.41 64.9814 135.33 64.9694C135.295 64.58 135.393 64.2024 135.433 63.8198C135.462 63.514 135.493 63.2065 135.522 62.9008C135.589 62.1628 135.656 61.4266 135.722 60.6886L135.729 60.6971C136.041 60.6049 135.947 60.4409 135.812 60.2701C135.816 59.703 136.023 59.1461 135.899 58.5738C136.123 58.3193 135.947 57.9828 136.101 57.7146C136.192 57.6599 136.197 57.6035 136.106 57.5437C136.11 57.3456 136.114 57.1474 136.117 56.9493C136.23 56.9254 136.328 56.8963 136.195 56.775L136.467 54.047L136.465 54.0538ZM133.1 75.6408L133.097 75.6442C133.383 75.569 133.478 75.376 133.46 75.1164C133.706 74.5851 134.151 74.1597 134.37 73.6148C134.281 73.3586 134.16 73.362 134.011 73.5738L133.469 73.6011C133.271 73.4969 133.073 73.4047 132.923 73.6644C132.743 73.6746 132.562 73.6831 132.382 73.6934C132.184 73.362 132.057 73.5755 131.925 73.7463C131.745 73.7566 131.564 73.7668 131.384 73.7771C131.156 73.6541 130.933 73.5806 130.746 73.8403C130.448 73.8642 130.153 73.8864 129.855 73.9103L129.744 73.8027L129.657 73.9291C129.055 73.9992 128.455 74.0795 127.847 74.0777C127.834 74.0026 127.861 73.8864 127.74 73.8915C127.606 73.8967 127.49 73.9582 127.481 74.1119C127.243 74.1717 127.003 74.2093 126.757 74.1717C126.613 73.9599 126.492 73.9633 126.392 74.2024C126.154 74.2674 125.915 74.2964 125.668 74.2622C125.659 74.2059 125.645 74.1444 125.57 74.1512C125.498 74.158 125.492 74.2212 125.487 74.2776C125.249 74.3203 125.012 74.363 124.725 74.4143C124.975 74.6808 125.186 74.9079 125.398 75.1334C125.373 75.3282 125.463 75.4153 125.672 75.3948C126.55 76.184 127.413 76.9869 128.221 77.8427C128.21 77.9418 128.181 78.0613 128.271 78.1246C128.672 78.4047 128.95 78.7976 129.318 79.1051C129.374 79.1512 129.489 79.1358 129.578 79.1478C129.721 79.2708 129.877 79.3852 130.002 79.5219C130.182 79.7166 130.31 79.7508 130.466 79.4928C130.63 79.2247 130.831 78.9787 131.016 78.7224C131.208 78.7139 131.205 78.5875 131.196 78.4577C131.74 77.5882 132.3 76.7289 132.919 75.9056C133.113 75.8987 133.109 75.7723 133.097 75.6425L133.1 75.6408Z" fill="#665E5E"/>
<path d="M87.2185 79.5783C87.9985 79.0282 88.6008 78.304 89.2937 77.6685C89.9921 77.0262 90.6633 76.3566 91.3763 75.7279C91.5903 75.5383 91.7191 75.3009 91.9186 75.1096C92.2851 74.756 92.5608 74.7816 92.8456 75.2052C92.6406 75.1044 92.539 75.2548 92.4284 75.3624C90.598 77.1184 88.7731 78.883 86.9319 80.6289C86.6979 80.8509 86.8085 80.9859 86.9355 81.1721C88.3232 83.2237 89.7092 85.277 91.0951 87.3286C91.1767 87.4481 91.262 87.5677 91.3255 87.6958C91.476 87.9982 91.4016 88.2647 91.1041 88.4372C90.803 88.6114 90.511 88.5465 90.3078 88.2766C90.0393 87.9162 89.7944 87.5404 89.5423 87.168C88.3903 85.4632 87.2348 83.7618 86.0974 82.0501C85.8997 81.7529 85.7781 81.729 85.5115 81.9886C83.8534 83.6063 82.1809 85.2103 80.5138 86.8195C80.2852 87.0399 80.0476 87.2363 79.683 87.0928C79.2476 86.922 79.1732 86.4744 79.5433 86.114C80.3106 85.3675 81.0889 84.6313 81.8598 83.8882C82.8648 82.923 83.8589 81.9476 84.8766 80.9927C85.1106 80.7724 85.1414 80.6237 84.9546 80.3521C83.5487 78.2954 82.1791 76.2148 80.7569 74.1683C80.4304 73.6968 80.5102 73.2493 80.6136 72.7915C80.6626 72.578 80.6934 72.3798 80.6626 72.1697C79.8861 66.787 79.1116 61.4044 78.3333 56.0217C78.2626 55.5315 78.1719 55.0429 78.0903 54.5527C78.132 54.1307 77.8617 53.7105 78.0866 53.2886C78.6326 52.9333 78.8594 52.9794 79.244 53.5294C79.4562 55.0429 79.6703 56.5547 79.8825 58.0682C79.9188 58.7515 80.0476 59.4246 80.1546 60.0993C80.3288 61.1499 80.5029 62.2021 80.5991 63.263L80.5918 63.3552C80.4739 63.4645 80.4884 63.5516 80.639 63.6183L80.6825 63.9531C80.5719 64.0556 80.5791 64.1444 80.7188 64.2161C81.0725 66.6333 81.4245 69.0505 81.7782 71.4676L81.5986 71.6316C81.2539 71.6248 81.1106 71.7802 81.1451 72.1048C81.1632 72.2876 81.1505 72.472 81.1523 72.6548C80.8984 72.9384 80.8694 73.5243 81.1306 73.8677C81.9904 74.9951 82.6943 76.2165 83.5106 77.3695C84.1401 78.2595 84.7369 79.1717 85.3464 80.0754C85.6221 80.4854 85.5822 80.991 85.2249 81.3258C84.4267 82.0723 83.594 82.7898 82.8249 83.5568C82.1682 84.2127 81.3174 84.7013 80.8458 85.5195C80.7859 85.622 80.6081 85.7314 80.7641 85.8424C80.8766 85.921 80.9728 85.7655 81.0471 85.6869C81.7691 84.9114 82.56 84.1974 83.3256 83.4611C83.9423 82.8649 84.5391 82.25 85.1595 81.6572C85.6022 81.2336 85.9468 81.2712 86.3786 81.7068C86.9609 82.2944 87.2965 83.0306 87.7699 83.6832C88.1509 84.2076 88.4992 84.7542 88.8566 85.2923C89.3899 86.0935 89.9214 86.8947 90.4511 87.6975C90.5291 87.8171 90.5944 88.0016 90.7758 87.9076C90.9409 87.8222 90.8012 87.677 90.745 87.5728C90.54 87.1936 90.2243 86.8861 89.9885 86.5206C89.2575 85.3863 88.4774 84.2811 87.7173 83.1622C87.3237 82.5831 86.93 82.0023 86.5346 81.4232C86.2625 81.0218 86.3169 80.6015 86.6688 80.224C86.8629 80.0156 87.1641 79.8858 87.2257 79.5766L87.2185 79.5783ZM79.9932 86.4744C80.1873 86.4386 80.2834 86.3668 80.2889 86.1755C80.0966 86.208 80.0059 86.2814 79.9932 86.4744Z" fill="#6F6767"/>
<path d="M87.4688 51.9918C87.5649 51.6911 87.34 51.3153 87.7136 51.0813C87.8388 51.0813 87.9622 51.0813 88.0873 51.0813C88.2814 51.2231 88.3377 51.4264 88.3685 51.6416C88.8891 55.2767 89.4116 58.9101 89.9322 62.5453C89.9377 62.588 89.9377 62.6307 89.9413 62.6734C89.6692 62.7707 89.3934 62.8493 89.0978 62.8391C89.0125 62.2771 88.9272 61.7151 88.842 61.1548C88.6914 60.1196 88.5408 59.0844 88.3903 58.0492C88.305 57.4496 88.2198 56.85 88.1345 56.2504C87.9767 55.1537 87.8497 54.0536 87.6447 52.9638C87.5848 52.6409 87.7136 52.2839 87.4706 51.9918H87.4688Z" fill="#665E5E"/>
<path d="M137.552 53.8777C137.362 53.8863 137.207 53.8504 137.188 53.6335C137.311 53.6078 137.389 53.7069 137.496 53.7308C137.516 53.7787 137.534 53.8282 137.554 53.876L137.552 53.8777Z" fill="#6F6767"/>
<path d="M137.573 54.8242C137.422 54.6875 137.38 54.5645 137.619 54.474C137.637 54.5953 137.655 54.7149 137.573 54.8242Z" fill="#6F6767"/>
<path d="M137.481 55.6801C137.329 55.5673 137.326 55.4768 137.523 55.4136C137.532 55.499 137.539 55.5844 137.548 55.6698C137.526 55.6801 137.504 55.6835 137.481 55.6801Z" fill="#6F6767"/>
<path d="M134.608 71.3821C134.627 71.4094 134.645 71.4385 134.663 71.4658C134.654 71.4914 134.652 71.5188 134.654 71.5461C134.636 71.6623 134.565 71.7306 134.441 71.7169C133.957 71.6691 133.486 71.7887 133.005 71.8109C132.136 71.8519 131.269 71.9185 130.403 71.9902C129.181 72.091 127.96 72.2055 126.737 72.3182C125.903 72.3951 125.072 72.4993 124.236 72.5488C123.421 72.5984 122.594 72.7692 121.807 72.378C121.582 72.267 121.333 72.1986 121.09 72.1235C118.837 71.418 116.582 70.7142 114.327 70.0155C114.228 69.9848 114.168 69.9489 114.153 69.8515C115.94 69.679 117.725 69.503 119.512 69.3339C121.373 69.158 123.236 68.9906 125.099 68.8198C125.252 68.8061 125.399 68.7736 125.5 68.6506C125.723 68.8744 126.019 68.8915 126.316 68.9069C126.411 68.9513 126.5 69.0059 126.598 69.0367C128.618 69.6482 130.637 70.27 132.666 70.8628C133.308 71.0507 133.921 71.3445 134.61 71.3821H134.608Z" fill="#908383"/>
<path d="M107.327 66.6213C106.721 66.6179 106.113 66.6128 105.507 66.6094C104.334 66.6025 103.158 66.6042 101.984 66.5855C101.714 66.582 101.604 66.6487 101.614 66.9169C101.623 67.1235 101.665 67.3422 101.558 67.5438C101.525 67.484 101.48 67.4259 101.464 67.3627C101.388 67.0911 101.647 66.6999 101.311 66.5547C101.038 66.4368 100.662 66.5308 100.334 66.512C100.071 66.4983 100.013 66.6111 99.9963 66.8383C99.9799 67.0723 100.132 67.3456 99.8675 67.5404C99.862 67.3149 99.8384 67.086 99.8548 66.8622C99.8729 66.6111 99.7913 66.5103 99.5065 66.5086C98.9351 66.5052 98.3636 66.4625 97.7922 66.4403C96.0163 66.3702 94.2458 66.2523 92.4753 66.1037C91.7878 66.0457 91.1075 65.8902 90.4109 65.9346C90.1207 65.839 89.8195 65.6101 89.5746 66.0012C89.5039 65.7792 89.3207 65.7194 89.1012 65.6903C88.517 65.6152 87.942 65.5007 87.3778 65.3436C86.3819 65.0651 86.3402 65.0053 86.3946 64.0351C86.469 64.0436 86.5543 64.0316 86.6178 64.0607C87.4794 64.4672 88.4155 64.5885 89.3515 64.7354C91.561 65.0788 93.7905 65.2257 96.0163 65.3948C97.2607 65.4888 98.5106 65.4888 99.7568 65.5622C101.096 65.6425 102.44 65.6032 103.78 65.6323C105.921 65.6784 108.063 65.7177 110.207 65.5878C111.59 65.5041 112.979 65.5503 114.367 65.5024C115.766 65.4546 117.161 65.3555 118.559 65.2974C118.96 65.2804 119.368 65.2564 119.771 65.2137C120.754 65.1095 121.737 65.007 122.717 64.8858C123.818 64.7491 124.921 64.6278 125.982 64.2947C126.265 64.2059 126.507 63.9992 126.831 64.0265C126.826 64.375 126.806 64.7235 126.719 65.0634C126.409 65.007 126.173 65.2889 125.861 65.2325C125.765 65.2308 125.687 65.2547 125.665 65.3572C125.603 65.3692 125.543 65.3794 125.482 65.3914C125.375 65.2787 125.331 65.3453 125.302 65.4478C123.597 65.839 121.855 66.0047 120.114 66.1499C117.725 66.348 115.33 66.4761 112.932 66.524C112.733 66.5274 112.573 66.5513 112.531 66.7665C112.421 66.5615 112.25 66.5052 112.005 66.5017C111.602 66.4966 111.214 66.5667 110.821 66.6196H107.325L107.327 66.6213Z" fill="#847A7A"/>
<path d="M110.823 66.623C111.216 66.5701 111.605 66.5 112.007 66.5051C112.252 66.5086 112.425 66.5649 112.533 66.7699C112.619 67.0518 112.608 67.3388 112.602 67.6258C112.49 67.7778 112.454 67.923 112.635 68.0562C112.735 69.1341 112.742 70.212 112.639 71.2899C112.47 71.3924 112.483 71.5086 112.606 71.635C112.611 71.8348 112.617 72.0364 112.541 72.2277C112.441 72.2739 112.399 72.3268 112.513 72.402C112.339 73.7771 111.96 75.0771 110.979 76.1652C109.889 77.3729 109.025 78.7241 108.189 80.0942C107.764 80.0651 107.895 79.6278 107.65 79.4331C107.456 79.2793 107.309 79.0658 107.053 78.9667C106.912 78.9121 106.767 78.8437 106.857 78.6524C107.155 78.8557 107.148 78.5397 107.209 78.4406C107.899 77.32 108.66 76.2455 109.546 75.2581C110.159 74.5731 110.527 73.801 110.714 72.9418C111.167 70.8424 111.01 68.7327 110.821 66.6247L110.823 66.623Z" fill="#6F6767"/>
<path d="M114.154 69.8533C114.168 69.9489 114.228 69.9865 114.328 70.0173C116.583 70.7159 118.838 71.4197 121.091 72.1252C121.334 72.2004 121.582 72.2687 121.807 72.3798C122.593 72.7709 123.422 72.6001 124.236 72.5506C125.073 72.4993 125.903 72.3951 126.738 72.32C127.959 72.2089 129.181 72.0945 130.404 71.992C131.269 71.9202 132.136 71.8536 133.005 71.8126C133.486 71.7904 133.958 71.6691 134.442 71.7187C134.567 71.7306 134.638 71.664 134.654 71.5478H134.698L134.741 71.5444C135.373 71.5137 135.155 71.9595 135.191 72.2585C135.238 72.6309 134.954 72.5591 134.72 72.5796C133.513 72.6838 132.309 72.829 131.099 72.8956C129.99 72.9554 128.893 73.1058 127.788 73.1826C126.685 73.2595 125.588 73.4081 124.485 73.4952C123.859 73.5448 123.228 73.5465 122.615 73.6917C122.587 73.5038 122.406 73.5055 122.275 73.4576C121.769 73.2749 121.261 73.0989 120.75 72.9264C118.981 72.3268 117.211 71.7289 115.44 71.131C115.045 70.9841 114.649 70.8372 114.252 70.692C114.143 70.6527 114.029 70.5946 113.942 70.7296C113.78 70.5144 113.833 70.2667 113.831 70.0292C113.925 70.0104 113.965 69.9489 113.972 69.8652L114.152 69.8567L114.154 69.8533Z" fill="#847A7A"/>
<path d="M125.865 65.2358C126.177 65.2922 126.412 65.0103 126.723 65.0667C126.587 66.3462 126.452 67.6273 126.316 68.9068C126.019 68.8914 125.723 68.8744 125.5 68.6506C125.518 68.4832 125.536 68.3158 125.554 68.1466C125.712 68.0442 125.703 67.9246 125.594 67.7948C125.611 67.6273 125.629 67.4599 125.645 67.2925C125.823 67.1644 125.785 67.0141 125.694 66.8586C125.71 66.7186 125.725 66.5785 125.741 66.4384C125.905 66.3103 125.881 66.1617 125.792 66.0062C125.81 65.8081 125.828 65.6099 125.846 65.4101C125.852 65.3503 125.859 65.2922 125.865 65.2324V65.2358Z" fill="#665E5E"/>
<path d="M125.112 87.484C125.127 87.5386 125.136 87.595 125.156 87.648C125.244 87.8837 125.181 88.2629 125.571 88.2527C125.859 88.2441 125.997 87.9435 126.148 87.7248C126.237 87.5967 126.278 87.4293 126.491 87.4344C126.396 87.7061 126.211 87.9298 126.041 88.1553C125.814 88.4543 125.455 88.5123 125.181 88.3244C124.887 88.1229 124.863 87.8325 125.114 87.484H125.112Z" fill="#6F6767"/>
<path d="M131.191 82.2277C131.94 82.5625 132.439 83.1245 132.82 83.7975C132.229 83.3175 131.699 82.7828 131.191 82.2277Z" fill="#6F6767"/>
<path d="M133.754 83.1586C133.148 82.9041 132.702 82.5027 132.464 81.9082C132.934 82.2891 133.373 82.6957 133.754 83.1586Z" fill="#6F6767"/>
<path d="M136.285 86.9954C136.753 86.7545 136.775 86.3719 136.659 85.9465C136.964 86.1242 137.101 86.377 136.955 86.6947C136.835 86.9527 136.623 87.1201 136.285 86.9954Z" fill="#6F6767"/>
<path d="M126.928 78.1314C127.33 78.0682 127.381 78.4423 127.592 78.6148C127.842 78.8215 128.149 78.9975 128.198 79.3545C127.726 78.9923 127.316 78.5721 126.93 78.1314H126.928Z" fill="#6F6767"/>
<path d="M135.367 86.2402C135.838 86.2505 135.942 86.6126 136.1 86.9235C135.782 86.7664 135.586 86.4913 135.367 86.2402Z" fill="#6F6767"/>
<path d="M126.3 85.7159C126.268 86.061 126.133 86.3463 125.772 86.4932C125.898 86.2045 126.077 85.9466 126.3 85.7159Z" fill="#6F6767"/>
<path d="M126.74 85.0753C126.707 85.3606 126.661 85.6356 126.297 85.7193C126.391 85.4733 126.533 85.2547 126.74 85.0753Z" fill="#6F6767"/>
<path d="M136.736 62.5009C136.469 62.2959 136.449 62.1199 136.803 61.9867C136.827 62.1626 136.823 62.3369 136.736 62.5009Z" fill="#6F6767"/>
<path d="M135.652 73.8677C135.679 73.6644 135.559 73.4406 135.744 73.2578C135.905 73.4867 135.853 73.6866 135.652 73.8677Z" fill="#6F6767"/>
<path d="M135.736 71.7222C135.632 71.536 135.528 71.3498 135.807 71.2097C135.825 71.3857 135.831 71.5599 135.736 71.7222Z" fill="#6F6767"/>
<path d="M128.38 82.6274C128.38 82.8768 128.351 83.1092 128.023 83.1621C128.094 82.9554 128.217 82.7795 128.38 82.6274Z" fill="#6F6767"/>
<path d="M136.447 65.1419C136.363 64.9591 136.263 64.7729 136.522 64.6345C136.534 64.8088 136.565 64.9847 136.447 65.1419Z" fill="#6F6767"/>
<path d="M135.694 72.6633C135.477 72.4857 135.462 72.3132 135.707 72.1475C135.703 72.32 135.698 72.4908 135.694 72.6633Z" fill="#6F6767"/>
<path d="M136.64 63.3534C136.538 63.1672 136.433 62.9793 136.714 62.8409C136.725 63.0169 136.743 63.1928 136.64 63.3534Z" fill="#6F6767"/>
<path d="M134.564 75.4819C134.439 75.212 134.637 75.1317 134.846 75.0582C134.795 75.2239 134.706 75.3691 134.564 75.4819Z" fill="#6F6767"/>
<path d="M112.636 68.0561C112.453 67.9246 112.49 67.7776 112.603 67.6256C112.707 67.7623 112.687 67.9075 112.636 68.0561Z" fill="#847A7A"/>
<path d="M125.695 66.8605C125.786 67.0159 125.824 67.1662 125.645 67.2944C125.593 67.1423 125.591 66.9954 125.695 66.8605Z" fill="#908383"/>
<path d="M135.944 69.7625C135.605 69.6037 135.824 69.5114 135.991 69.4158C136.016 69.5371 136.025 69.6549 135.944 69.7625Z" fill="#6F6767"/>
<path d="M125.793 66.0079C125.88 66.1634 125.904 66.312 125.742 66.4401C125.683 66.2881 125.672 66.1412 125.793 66.0079Z" fill="#908383"/>
<path d="M136.548 64.2076C136.428 64.0453 136.371 63.8933 136.614 63.7805C136.628 63.9274 136.65 64.076 136.548 64.2076Z" fill="#6F6767"/>
<path d="M136.943 60.5416C136.856 60.5297 136.749 60.5314 136.751 60.4135C136.753 60.2683 136.88 60.2871 136.981 60.2786C137.012 60.3708 137.007 60.4596 136.943 60.5416Z" fill="#6F6767"/>
<path d="M112.607 71.635C112.485 71.5086 112.472 71.3907 112.64 71.2899C112.687 71.4095 112.702 71.5274 112.607 71.635Z" fill="#847A7A"/>
<path d="M125.595 67.7983C125.704 67.9282 125.713 68.0477 125.555 68.1502C125.498 68.0255 125.505 67.9094 125.595 67.7983Z" fill="#908383"/>
<path d="M127.936 85.2972C127.802 85.094 127.958 85.0666 128.112 85.0393C128.096 85.1503 128.04 85.2375 127.936 85.2972Z" fill="#6F6767"/>
<path d="M134.111 83.502C133.901 83.5259 133.81 83.437 133.837 83.2389C133.962 83.2953 134.055 83.3824 134.111 83.502Z" fill="#6F6767"/>
<path d="M136.253 66.9423C136.18 66.9269 136.114 66.903 136.112 66.8193C136.112 66.7134 136.193 66.6929 136.282 66.6843C136.311 66.7749 136.302 66.8603 136.251 66.9423H136.253Z" fill="#6F6767"/>
<path d="M131.567 79.9199C131.561 79.7969 131.559 79.6739 131.742 79.6603C131.729 79.7747 131.674 79.8619 131.567 79.9199Z" fill="#6F6767"/>
<path d="M133.111 77.6223C133.104 77.4925 133.1 77.3661 133.294 77.3575C133.277 77.472 133.217 77.5608 133.111 77.6223Z" fill="#6F6767"/>
<path d="M133.926 76.4247C133.92 76.3 133.913 76.1736 134.101 76.1616C134.088 76.2761 134.024 76.3598 133.926 76.4247Z" fill="#6F6767"/>
<path d="M129.295 81.278C129.303 81.4061 129.304 81.5308 129.115 81.541C129.133 81.4283 129.188 81.3377 129.295 81.278Z" fill="#6F6767"/>
<path d="M129.841 82.4771C129.841 82.3558 129.839 82.2345 130.016 82.2225C130 82.3336 129.947 82.4224 129.841 82.4771Z" fill="#6F6767"/>
<path d="M129.128 83.5294C129.114 83.3911 129.107 83.2578 129.313 83.2493C129.293 83.3671 129.234 83.4611 129.128 83.5294Z" fill="#6F6767"/>
<path d="M133.471 77.1012C133.468 76.9799 133.464 76.8569 133.644 76.8416C133.634 76.9543 133.579 77.0431 133.471 77.1012Z" fill="#6F6767"/>
<path d="M135.035 74.7627C135.01 74.6363 135.046 74.5492 135.201 74.5406C135.185 74.6397 135.132 74.7149 135.035 74.7627Z" fill="#6F6767"/>
<path d="M112.515 72.4037C112.401 72.3286 112.441 72.2739 112.543 72.2295C112.585 72.2944 112.579 72.3542 112.515 72.4037Z" fill="#847A7A"/>
<path d="M133.31 77.3216C133.286 77.1969 133.32 77.1114 133.472 77.1012C133.459 77.202 133.404 77.2754 133.31 77.3216Z" fill="#6F6767"/>
<path d="M135.456 74.1955C135.329 74.0674 135.434 74.0452 135.544 74.0247C135.548 74.0964 135.529 74.1596 135.456 74.1955Z" fill="#6F6767"/>
<path d="M129.554 80.8953C129.577 81.0148 129.546 81.0985 129.402 81.1173C129.406 81.0148 129.466 80.9465 129.554 80.8953Z" fill="#6F6767"/>
<path d="M136.162 67.7964C136.103 67.7862 136.04 67.7708 136.049 67.7008C136.058 67.6342 136.125 67.629 136.184 67.6239C136.176 67.682 136.169 67.7384 136.164 67.7964H136.162Z" fill="#6F6767"/>
<path d="M136.345 66.0883C136.285 66.0781 136.221 66.0644 136.23 65.9944C136.239 65.9277 136.306 65.9226 136.365 65.9158C136.358 65.9739 136.352 66.0302 136.345 66.0883Z" fill="#6F6767"/>
<path d="M130.194 81.9627C130.072 81.8209 130.188 81.8107 130.298 81.7953C130.298 81.8705 130.256 81.9217 130.194 81.9627Z" fill="#6F6767"/>
<path d="M129.729 82.6426C129.62 82.5008 129.736 82.494 129.838 82.4769C129.835 82.5521 129.806 82.6102 129.729 82.6426Z" fill="#6F6767"/>
<path d="M125.306 65.4511C125.337 65.3486 125.379 65.2819 125.487 65.3947C125.439 65.4476 125.379 65.4698 125.306 65.4511Z" fill="#908383"/>
<path d="M137.347 56.8672C137.286 56.8587 137.221 56.845 137.228 56.7733C137.235 56.705 137.305 56.6998 137.365 56.6947C137.359 56.7528 137.352 56.8092 137.347 56.8672Z" fill="#6F6767"/>
<path d="M113.975 69.8616C113.966 69.9453 113.926 70.0068 113.833 70.0256C113.78 69.894 113.831 69.8411 113.975 69.8616Z" fill="#908383"/>
<path d="M127.83 83.4592C127.852 83.5788 127.819 83.6642 127.673 83.6762C127.684 83.5771 127.739 83.5054 127.83 83.4592Z" fill="#6F6767"/>
<path d="M127.649 83.7155C127.672 83.8316 127.639 83.917 127.499 83.9358C127.499 83.8333 127.561 83.7667 127.649 83.7155Z" fill="#6F6767"/>
<path d="M128.589 84.3169C128.567 84.1991 128.602 84.1153 128.742 84.0983C128.739 84.2008 128.682 84.2691 128.589 84.3169Z" fill="#6F6767"/>
<path d="M128.412 84.5782C128.39 84.4569 128.421 84.3715 128.57 84.3595C128.559 84.4586 128.506 84.532 128.412 84.5782Z" fill="#6F6767"/>
<path d="M135.844 70.6972C135.78 70.6852 135.686 70.6972 135.698 70.6049C135.709 70.5195 135.801 70.54 135.866 70.5332C135.859 70.5879 135.852 70.6425 135.844 70.6972Z" fill="#6F6767"/>
<path d="M125.865 65.2359C125.859 65.2957 125.852 65.3538 125.847 65.4136C125.787 65.3965 125.729 65.3777 125.669 65.3606C125.691 65.2581 125.769 65.2342 125.865 65.2359Z" fill="#908383"/>
<path d="M137.252 57.7214C137.192 57.7111 137.128 57.6957 137.137 57.6257C137.146 57.5591 137.214 57.554 137.272 57.5488C137.265 57.6069 137.257 57.6633 137.252 57.7214Z" fill="#6F6767"/>
<path d="M135.736 73.0015C135.645 72.9451 135.645 72.8888 135.736 72.8324C135.798 72.8888 135.798 72.9451 135.736 73.0015Z" fill="#6F6767"/>
<path d="M125.746 86.5375C125.768 86.6536 125.735 86.7356 125.598 86.7544C125.598 86.6536 125.658 86.5853 125.746 86.5375Z" fill="#6F6767"/>
<path d="M126.869 86.8791C126.845 86.7629 126.878 86.6792 127.018 86.6587C127.018 86.7612 126.958 86.8278 126.869 86.8791Z" fill="#6F6767"/>
<path d="M126.686 87.1371C126.664 87.0192 126.695 86.9338 126.841 86.9202C126.834 87.021 126.777 87.0893 126.686 87.1371Z" fill="#6F6767"/>
<path d="M126.507 87.3969C126.484 87.2739 126.517 87.1885 126.668 87.1765C126.657 87.2773 126.602 87.3508 126.507 87.3969Z" fill="#6F6767"/>
<path d="M137.159 58.5755C137.099 58.5652 137.035 58.5499 137.046 58.4798C137.055 58.4132 137.123 58.4081 137.181 58.403C137.174 58.461 137.167 58.5174 137.159 58.5755Z" fill="#6F6767"/>
<path d="M126.836 64.0299C126.511 64.0026 126.27 64.2093 125.987 64.2981C124.926 64.6312 123.821 64.7542 122.722 64.8892C121.74 65.0105 120.757 65.113 119.776 65.2172C119.373 65.2599 118.965 65.2838 118.564 65.3009C117.165 65.359 115.77 65.458 114.372 65.5059C112.984 65.5537 111.594 65.5059 110.212 65.5913C108.068 65.7211 105.924 65.6818 103.785 65.6357C102.444 65.6066 101.1 65.6442 99.7614 65.5656C98.5151 65.4922 97.2652 65.4922 96.0208 65.3982C93.795 65.2291 91.5655 65.0839 89.356 64.7389C88.4182 64.5937 87.484 64.4724 86.6223 64.0641C86.5588 64.0351 86.4754 64.0453 86.3992 64.0385C86.3157 63.7122 86.4917 63.5414 86.7892 63.4133C87.5257 63.0973 88.3148 62.9794 89.1003 62.8376C89.396 62.8496 89.6717 62.771 89.9438 62.6719C91.2191 62.5643 92.4943 62.455 93.7696 62.349C94.2358 62.3098 94.702 62.2722 95.1682 62.2431C95.2934 62.2346 95.4966 62.1936 95.473 62.3883C95.4077 62.9128 95.7959 63.1058 96.1877 63.3057C96.0916 63.4594 95.921 63.4423 95.7886 63.497C95.6653 63.5482 95.5056 63.567 95.4984 63.7242C95.4911 63.9018 95.6544 63.9633 95.7977 63.9975C96.1043 64.0675 96.4163 64.1495 96.7283 64.1649C97.9782 64.2247 99.2317 64.2759 100.472 64.0419C100.59 64.0197 100.719 64.0009 100.813 63.9394C101.026 63.8028 101.062 63.6251 100.783 63.538C100.5 63.4491 100.197 63.3825 99.8992 63.3689C99.5292 63.3501 99.531 63.239 99.7178 62.9982C99.8521 62.8239 99.9446 62.6138 99.9282 62.4003C99.901 62.033 100.11 61.9886 100.427 61.992C101.372 61.9989 101.231 61.8929 101.216 62.7231C101.209 63.0973 101.327 63.2783 101.724 63.3039C102.522 63.3552 103.32 63.3842 104.117 63.2817C104.387 63.2476 104.485 63.1656 104.462 62.8735C104.387 61.9152 104.407 61.9152 105.405 61.9083C106.114 61.9049 106.823 61.8998 107.533 61.8964L107.518 62.2722C107.299 62.3217 107.076 62.361 106.861 62.4259C106.68 62.4789 106.461 62.5199 106.461 62.7641C106.461 62.993 106.662 63.0614 106.84 63.1382C107.103 63.2527 107.382 63.3022 107.667 63.3381C109.301 63.5465 110.941 63.5141 112.579 63.4013C113.116 63.3637 113.662 63.3176 114.17 63.1177C114.344 63.0494 114.499 62.964 114.495 62.7556C114.491 62.5557 114.324 62.4994 114.17 62.4498C113.914 62.3695 113.659 62.2824 113.381 62.2927L113.358 61.9715C114.511 62.1116 115.676 62.0894 116.833 62.1611C119.603 62.3337 122.37 62.5216 125.1 63.0204C125.432 63.0802 125.746 63.2852 126.107 63.1639C126.279 63.4594 126.556 63.5892 126.903 63.608C126.956 63.7583 126.927 63.8984 126.838 64.0317L126.836 64.0299Z" fill="#908383"/>
<path d="M136.116 56.9542C136.113 57.1524 136.109 57.3505 136.105 57.5487C136.011 57.6033 136.009 57.6597 136.1 57.7195C135.946 57.9877 136.122 58.3242 135.898 58.5787C135.514 58.6061 135.157 58.478 134.79 58.4096C132.414 57.9569 130.039 57.494 127.665 57.0328C127.817 55.6098 127.971 54.1852 128.124 52.7622C129.671 53.0014 131.216 53.2388 132.764 53.478C133.997 53.6693 135.233 53.8623 136.466 54.0536C136.376 54.9624 136.285 55.8729 136.194 56.7817C136.12 56.821 136.103 56.8825 136.116 56.9559V56.9542Z" fill="#908383"/>
<path d="M128.123 52.7624C127.971 54.1854 127.816 55.61 127.664 57.033C127.508 57.6377 127.486 58.2578 127.434 58.8745L127.116 61.9818C126.996 62.2551 127.056 62.5523 126.984 62.8325C126.804 62.8888 126.791 62.9794 126.926 63.0972C126.917 63.2681 126.907 63.4372 126.898 63.608C126.552 63.5875 126.274 63.4594 126.102 63.1639C126.369 60.6374 126.635 58.1092 126.902 55.5827C127.009 54.5663 127.118 53.5499 127.227 52.5318C127.238 52.4327 127.249 52.3336 127.272 52.238C127.319 52.0347 127.446 51.9117 127.675 51.9015C127.912 51.8912 127.996 52.0159 128.068 52.2209C128.136 52.4088 128.061 52.5882 128.121 52.7641L128.123 52.7624Z" fill="#665E5E"/>
<path d="M101.938 61.8585C102.135 61.5527 102.019 61.2794 102.075 61.0317C102.121 60.8318 102.045 60.5602 102.429 60.5449C102.826 60.5295 102.774 60.837 102.797 61.0129C102.848 61.3682 102.812 61.7338 102.868 62.0959C103.057 61.6843 102.943 61.2504 103.006 60.8284C103.042 60.5978 103.131 60.55 103.347 60.5568C103.536 60.5619 103.621 60.6183 103.623 60.8028C103.626 61.1991 103.646 61.5971 103.655 61.9935C103.659 62.1404 103.655 62.289 103.713 62.4359C103.871 62.1062 103.791 61.7611 103.817 61.4246C103.828 61.2692 103.819 61.1103 103.851 60.96C103.877 60.8387 103.993 60.7738 104.125 60.7823C104.274 60.7909 104.263 60.9087 104.265 61.0061C104.267 61.5749 104.263 62.1421 104.27 62.7109C104.272 62.8903 104.162 62.962 104.009 63.0098C103.238 63.2524 102.469 63.2251 101.698 63.0064C101.495 62.9484 101.413 62.8373 101.419 62.634C101.431 62.1096 101.419 61.5835 101.428 61.0573C101.428 60.9463 101.377 60.7669 101.609 60.7994C101.758 60.8199 101.898 60.8558 101.912 61.0505C101.93 61.2931 101.805 61.5425 101.938 61.8551V61.8585Z" fill="#908383"/>
<path d="M111.419 60.7174C111.33 60.6678 111.243 60.6183 111.154 60.5671C111.247 60.1588 111.194 59.7915 110.821 59.5233L110.608 59.9196C110.815 59.9538 111.086 59.9128 111.058 60.2152C111.037 60.4543 110.853 60.5414 110.612 60.538C110.509 60.5363 110.394 60.5192 110.353 60.649C110.077 60.7669 109.934 61.0505 109.643 61.1496C109.527 61.1888 109.411 61.3392 109.29 61.2179C109.204 61.1325 109.266 61.0027 109.328 60.9019C109.357 60.854 109.38 60.8045 109.444 60.6883C108.981 60.8984 108.666 60.8233 108.477 60.4116C108.403 60.2476 108.201 60.2579 108.051 60.2015C107.944 60.1605 107.786 60.169 107.771 60.029C107.759 59.9025 107.898 59.8479 107.989 59.7796C108.058 59.7266 108.15 59.6497 108.221 59.6583C108.793 59.7369 109.194 59.1646 109.798 59.3166C109.963 59.3576 110.15 59.1663 110.277 58.9869C110.534 58.6214 110.801 58.6692 111.098 58.9801C111.439 59.3371 111.769 59.7454 112.35 59.8103C112.571 59.8342 112.782 59.9179 112.95 60.0853C112.838 60.2305 112.686 60.2664 112.517 60.263C112.426 59.8633 112.109 60.374 111.976 60.1434C111.976 60.497 111.639 60.5568 111.416 60.7157L111.419 60.7174Z" fill="#908383"/>
<path d="M107.514 62.2721L107.528 61.8963C107.566 61.6349 107.732 61.6845 107.869 61.7955C108.016 61.9134 108.131 62.0671 108.259 62.2055C108.619 62.5881 108.766 62.5915 109.132 62.2328C109.215 62.1508 109.293 62.0654 109.373 61.98C109.502 61.8416 109.596 61.8177 109.774 61.9663C110.335 62.4395 110.848 62.4122 111.327 61.898C111.503 61.7084 111.695 61.664 111.927 61.7408C112.283 61.8587 112.615 61.8792 112.965 61.6913C113.25 61.5375 113.384 61.6759 113.353 61.968C113.36 62.0756 113.37 62.1815 113.377 62.2892C113.39 62.5608 113.253 62.7043 112.967 62.747C111.298 62.9998 109.631 62.9998 107.962 62.747C107.673 62.7026 107.487 62.5779 107.516 62.2721H107.514Z" fill="#6F6767"/>
<path d="M96.6391 62.8015C96.6754 63.003 96.5521 63.0304 96.4269 63.0116C96.1203 62.9654 95.8065 62.8766 95.7738 62.5367C95.7521 62.3026 95.9226 62.1506 96.2056 62.1592C96.7153 62.1762 96.4287 62.646 96.6391 62.7997V62.8015Z" fill="#908383"/>
<path d="M110.354 60.6492C110.396 60.5193 110.511 60.5364 110.614 60.5381C110.855 60.5415 111.037 60.4544 111.06 60.2153C111.089 59.9129 110.817 59.9539 110.61 59.9197L110.823 59.5234C111.196 59.7916 111.249 60.1589 111.156 60.5672C110.919 60.8439 110.656 60.9105 110.354 60.6492Z" fill="#847A7A"/>
<path d="M111.419 60.7176C111.643 60.5587 111.98 60.4972 111.98 60.1453C112.112 60.3776 112.43 59.8652 112.521 60.2649C112.221 60.5604 111.951 60.9226 111.419 60.7176Z" fill="#847A7A"/>
<path d="M136.918 53.6387C136.898 53.8368 136.76 53.8864 136.577 53.8812C136.633 53.7292 136.747 53.6489 136.918 53.6387Z" fill="#6F6767"/>
<path d="M101.559 67.5421C101.541 68.0511 101.523 68.5602 101.505 69.0692C101.289 69.1973 101.327 69.3477 101.467 69.5031C101.467 69.609 101.468 69.7149 101.47 69.8225C101.463 70.1727 101.318 70.61 101.526 70.8492C101.708 71.0576 102.1 70.6801 102.428 70.7006C102.348 71.1413 101.989 71.3992 101.679 71.6811C101.51 71.8348 101.452 71.9903 101.463 72.2072C101.601 74.8294 102.785 76.9527 104.899 78.6353C104.968 78.69 105.049 78.7293 105.126 78.7771C105.389 78.9274 105.356 79.2605 105.584 79.4365C105.648 79.486 105.588 79.5731 105.532 79.621C105.211 79.8875 104.948 80.1813 104.879 80.5981C104.866 80.675 104.766 80.6767 104.688 80.6732C104.628 80.3846 104.338 80.3026 104.139 80.1488C102.247 78.6883 100.833 76.9254 100.164 74.6773C100.039 74.2571 100.024 73.8113 99.8249 73.4081C99.9555 73.0614 100.206 72.6924 99.6235 72.4823C99.834 72.2243 99.707 71.9288 99.7269 71.6504C99.7269 71.389 99.7269 71.1259 99.7269 70.8646C99.7306 70.47 99.736 70.0754 99.7396 69.6791C99.7596 69.5373 99.7814 69.3938 99.8013 69.252C99.9501 69.1734 99.9519 69.0846 99.8213 68.9889L99.8702 67.5421C100.135 67.3456 99.9827 67.074 99.999 66.84C100.014 66.6128 100.073 66.4983 100.336 66.5137C100.665 66.5308 101.04 66.4368 101.314 66.5564C101.648 66.7016 101.39 67.0911 101.467 67.3644C101.485 67.4276 101.53 67.4857 101.561 67.5455L101.559 67.5421Z" fill="#6F6767"/>
<path d="M99.7251 70.8645C99.7251 71.1259 99.7251 71.3889 99.7269 71.6503C99.6816 71.6503 99.6326 71.6366 99.5927 71.6503C97.6245 72.3285 95.658 73.01 93.6916 73.6899C93.4993 73.6899 93.307 73.6865 93.1148 73.6848C91.513 73.543 89.9112 73.4012 88.3076 73.2577C88.2477 73.1706 88.1878 73.1689 88.1262 73.256C87.8885 73.1911 87.6491 73.1535 87.4005 73.174C87.2808 73.0527 87.1593 73.0545 87.0377 73.1706C86.8291 73.1245 86.6223 73.063 86.4028 73.0886C86.3357 72.9878 86.2305 73.0032 86.1289 73.0083C85.8876 73.0066 85.6464 73.0049 85.4051 73.0032C85.3652 72.9332 85.2981 72.9195 85.2219 72.9246C85.0115 72.9246 84.801 72.9212 84.5906 72.9195C84.4691 72.9451 84.3493 72.7675 84.226 72.9161C84.0446 72.8888 83.8741 72.8051 83.6836 72.8341C83.5929 72.8341 83.5022 72.8341 83.4097 72.8324C83.1992 72.8051 82.987 72.7777 82.7766 72.7487C82.6859 72.7487 82.5934 72.7487 82.5027 72.7487C82.0473 72.7589 81.6047 72.612 81.1476 72.6581C81.1476 72.4754 81.1603 72.2892 81.1403 72.1081C81.1077 71.7852 81.2492 71.6281 81.5938 71.6349C81.6101 71.7528 81.6827 71.8177 81.8079 71.804C82.2922 71.7545 82.7657 71.8758 83.2446 71.898C84.1135 71.9373 84.9806 72.0056 85.8477 72.0791C87.0414 72.1798 88.2332 72.2943 89.425 72.4053C90.2903 72.4856 91.1538 72.6154 92.0191 72.6291C92.6286 72.6376 93.2327 72.8717 93.8513 72.6735C95.132 72.2618 96.4236 71.8775 97.7025 71.459C98.37 71.2403 99.0213 70.9824 99.7215 70.8662L99.7251 70.8645Z" fill="#847A7A"/>
<path d="M87.2186 79.5767C87.0099 79.5476 86.8938 79.6826 86.7542 79.7953C86.1954 80.2463 85.7437 80.1882 85.3356 79.6159C84.4177 78.3245 83.5615 76.9955 82.678 75.6836C82.3497 75.1967 82.025 74.7014 81.673 74.2265C81.5261 74.0283 81.4082 73.8114 81.6077 73.6064C81.7964 73.4116 82.0141 73.2408 82.3479 73.2733C83.2857 73.3638 84.2272 73.4338 85.1669 73.5141C86.4657 73.6235 87.7628 73.7362 89.0616 73.8438C89.5242 73.8814 89.9904 73.9429 90.453 73.9309C90.8756 73.9207 91.2493 74.0642 91.6412 74.153C91.9115 74.2145 91.9931 74.4127 91.9078 74.6501C91.8244 74.8807 91.7137 75.1113 91.4924 75.2463C90.9917 75.5503 90.6924 76.0389 90.2861 76.4267C89.4317 77.2415 88.5845 78.0649 87.7283 78.878C87.5124 79.083 87.1859 79.2094 87.2186 79.5749V79.5767ZM91.5487 74.4742C91.2493 74.4468 90.9936 74.4212 90.7378 74.399C87.955 74.1633 85.1741 73.9258 82.3914 73.6935C82.2626 73.6832 82.0921 73.6183 82.0086 73.7328C81.9179 73.8592 82.0685 73.9651 82.1374 74.0676C83.3492 75.8698 84.5719 77.6651 85.7746 79.4725C85.9832 79.7851 86.1065 79.8209 86.3914 79.5408C87.9641 78.0051 89.5587 76.4882 91.1405 74.961C91.2838 74.8243 91.4616 74.7082 91.5468 74.4707L91.5487 74.4742Z" fill="#6F6767"/>
<path d="M93.7624 74.117C93.7497 74.3152 93.6463 74.4535 93.4522 74.5338C93.0785 74.3442 93.2653 73.9564 93.1147 73.6882C93.307 73.6882 93.4993 73.6916 93.6916 73.6934C93.7152 73.7754 93.737 73.8591 93.7605 73.9411C93.6553 74.0008 93.6571 74.0606 93.7605 74.1187L93.7624 74.117Z" fill="#6F6767"/>
<path d="M84.2251 72.916C84.3485 72.7674 84.4682 72.9451 84.5897 72.9195C84.4646 73.1996 84.3448 73.0869 84.2251 72.916Z" fill="#6F6767"/>
<path d="M87.0371 73.1706C87.1586 73.0544 87.2802 73.0527 87.3999 73.174C87.2784 73.2919 87.1568 73.2936 87.0371 73.1706Z" fill="#6F6767"/>
<path d="M82.5024 72.7485C82.5931 72.7485 82.6857 72.7485 82.7764 72.7485C82.7618 72.8357 82.7365 72.9159 82.6167 72.9006C82.5242 72.8886 82.5151 72.8152 82.5024 72.7468V72.7485Z" fill="#6F6767"/>
<path d="M83.4092 72.8324C83.4999 72.8324 83.5906 72.8324 83.6831 72.8341C83.6686 72.9212 83.645 73.0015 83.5235 72.9861C83.4309 72.9742 83.4219 72.9007 83.4092 72.8324Z" fill="#6F6767"/>
<path d="M86.1279 73.0099C86.2295 73.0048 86.3347 72.9894 86.4018 73.0902C86.2567 73.2269 86.1697 73.1859 86.1279 73.0099Z" fill="#6F6767"/>
<path d="M88.1255 73.2576C88.1875 73.1722 88.2477 73.1722 88.3079 73.2593C88.2458 73.3464 88.1857 73.3447 88.1255 73.2576Z" fill="#6F6767"/>
<path d="M85.2212 72.9247C85.2978 72.9196 85.3653 72.935 85.4054 73.0033C85.2686 73.1331 85.2431 73.0306 85.2212 72.9247Z" fill="#6F6767"/>
<path d="M135.432 63.825C132.823 63.2425 130.213 62.6617 127.604 62.0809C127.443 62.045 127.281 62.0142 127.118 61.9818C127.223 60.9466 127.33 59.9114 127.436 58.8745C130.198 59.4809 132.959 60.0874 135.722 60.6938C135.655 61.4317 135.59 62.168 135.523 62.9059C135.495 63.2134 135.463 63.5192 135.434 63.825H135.432Z" fill="#908383"/>
<path d="M128.223 77.8409C128.718 78.2355 129.164 78.678 129.58 79.1477C129.493 79.1358 129.377 79.1512 129.32 79.105C128.952 78.7976 128.673 78.4047 128.274 78.1245C128.183 78.0613 128.214 77.9417 128.223 77.8426V77.8409Z" fill="#6F6767"/>
<path d="M131.387 73.7771C131.182 73.8676 130.966 73.8591 130.748 73.8403C130.935 73.5806 131.158 73.6541 131.387 73.7771Z" fill="#6F6767"/>
<path d="M132.384 73.6934C132.241 73.7737 132.085 73.7685 131.927 73.7463C132.06 73.5755 132.187 73.3637 132.384 73.6934Z" fill="#6F6767"/>
<path d="M133.471 73.6012C133.299 73.6986 133.112 73.6798 132.925 73.6644C133.076 73.4031 133.272 73.497 133.471 73.6012Z" fill="#6F6767"/>
<path d="M134.761 70.0155C134.746 69.8396 134.735 69.6653 134.834 69.5031C134.936 69.6892 135.04 69.8772 134.761 70.0155Z" fill="#6F6767"/>
<path d="M133.097 75.6441C133.168 75.4374 133.284 75.258 133.46 75.1162C133.476 75.3759 133.384 75.5689 133.097 75.6441Z" fill="#6F6767"/>
<path d="M134.674 70.8696C134.648 70.6937 134.657 70.5212 134.739 70.3555C134.849 70.5417 134.947 70.7262 134.674 70.8696Z" fill="#6F6767"/>
<path d="M134.957 68.2237C134.943 68.0768 134.913 67.9282 135.023 67.7983C135.138 67.9589 135.194 68.1109 134.957 68.2237Z" fill="#6F6767"/>
<path d="M134.862 69.0777C134.846 68.9308 134.829 68.7822 134.929 68.6506C135.046 68.8112 135.104 68.9649 134.862 69.0777Z" fill="#6F6767"/>
<path d="M127.851 74.0759C127.733 74.1306 127.612 74.1391 127.485 74.1101C127.496 73.9563 127.612 73.8948 127.744 73.8897C127.864 73.8863 127.839 74.0008 127.851 74.0759Z" fill="#6F6767"/>
<path d="M135.287 65.3194C135.258 65.1999 135.265 65.0837 135.329 64.9744C135.408 64.9863 135.53 64.9624 135.523 65.0769C135.515 65.2016 135.448 65.3109 135.287 65.3194Z" fill="#6F6767"/>
<path d="M135.728 60.7022C135.768 60.5621 135.677 60.3981 135.811 60.2751C135.944 60.446 136.04 60.61 135.728 60.7022Z" fill="#6F6767"/>
<path d="M134.371 73.6147L134.012 73.5737C134.16 73.3602 134.282 73.3585 134.371 73.6147Z" fill="#6F6767"/>
<path d="M126.761 74.1697C126.643 74.2227 126.523 74.2312 126.396 74.2005C126.494 73.9596 126.617 73.9579 126.761 74.1697Z" fill="#6F6767"/>
<path d="M125.403 75.1317C125.528 75.1864 125.618 75.2735 125.677 75.3931C125.468 75.4153 125.379 75.3265 125.403 75.1317Z" fill="#6F6767"/>
<path d="M122.574 74.0316C122.49 73.9394 122.503 73.854 122.594 73.772C122.711 73.8659 122.704 73.953 122.574 74.0316Z" fill="#6F6767"/>
<path d="M135.102 67.026C135.073 66.9372 135.082 66.8501 135.131 66.7681C135.204 66.7834 135.27 66.8056 135.272 66.8894C135.272 66.9953 135.193 67.0175 135.102 67.0243V67.026Z" fill="#6F6767"/>
<path d="M131.019 78.7223C131.039 78.6096 131.091 78.5173 131.199 78.4575C131.208 78.5873 131.212 78.7138 131.019 78.7223Z" fill="#6F6767"/>
<path d="M132.922 75.9037C132.94 75.7909 132.993 75.6987 133.102 75.6406C133.115 75.7722 133.117 75.8969 132.922 75.9037Z" fill="#6F6767"/>
<path d="M125.673 74.2605C125.611 74.2656 125.551 74.2707 125.489 74.2759C125.495 74.2195 125.502 74.1563 125.573 74.1494C125.648 74.1426 125.663 74.2041 125.672 74.2605H125.673Z" fill="#6F6767"/>
<path d="M136.116 56.9544C136.103 56.8809 136.12 56.8194 136.195 56.7802C136.328 56.9014 136.229 56.9305 136.116 56.9544Z" fill="#6F6767"/>
<path d="M135.206 66.0883C135.213 66.0302 135.218 65.9739 135.226 65.9158C135.284 65.926 135.348 65.9414 135.339 66.0097C135.33 66.0746 135.264 66.0815 135.206 66.0883Z" fill="#6F6767"/>
<path d="M129.857 73.9102C129.796 73.9529 129.729 73.9546 129.66 73.929L129.747 73.8026L129.857 73.9102Z" fill="#6F6767"/>
<path d="M136.1 57.7197C136.009 57.6599 136.01 57.6035 136.105 57.5488C136.196 57.6086 136.191 57.665 136.1 57.7197Z" fill="#6F6767"/>
<path d="M134.742 71.5428L134.698 71.5479H134.653C134.653 71.5206 134.653 71.4932 134.663 71.4658C134.688 71.4915 134.716 71.5171 134.742 71.5428Z" fill="#6F6767"/>
<path d="M81.7746 71.4708C82.4113 71.4179 82.9846 71.1514 83.5832 70.9737C85.6185 70.3741 87.6503 69.7575 89.682 69.1442C89.7944 69.1101 89.8997 69.0503 90.0085 69.0041C90.2969 69.0127 90.5636 68.8555 90.8575 68.9051C92.0094 69.0059 93.1595 69.1049 94.3114 69.2057C96.12 69.3646 97.9304 69.5234 99.739 69.6823C99.7354 70.0769 99.7299 70.4715 99.7263 70.8678C99.0261 70.984 98.373 71.2436 97.7073 71.4606C96.4284 71.8791 95.1368 72.2635 93.8561 72.6751C93.2357 72.8733 92.6334 72.641 92.0239 72.6307C91.1586 72.6171 90.2951 72.4872 89.4298 72.4069C88.238 72.2976 87.0444 72.1815 85.8525 72.0807C84.9854 72.0072 84.1183 71.9406 83.2494 71.8996C82.7687 71.8774 82.297 71.7561 81.8127 71.8056C81.6875 71.8176 81.615 71.7544 81.5986 71.6365C81.6585 71.5819 81.7184 71.5272 81.7782 71.4725L81.7746 71.4708Z" fill="#908383"/>
<path d="M87.4695 51.9921C87.7144 52.2825 87.5838 52.6412 87.6437 52.9641C87.8487 54.0522 87.9757 55.154 88.1335 56.2507C87.9702 56.278 87.807 56.2985 87.6455 56.3344C85.0569 56.9135 82.4682 57.4926 79.8778 58.0734C79.6656 56.5599 79.4515 55.0481 79.2393 53.5346C81.8624 53.0273 84.4855 52.5199 87.1085 52.016C87.2246 51.9938 87.348 52.0023 87.4677 51.9955L87.4695 51.9921Z" fill="#908383"/>
<path d="M88.8401 61.1532C86.7558 61.6742 84.6733 62.1952 82.5889 62.7162C81.9196 62.8836 81.2411 63.0237 80.5953 63.2646C80.4974 62.2037 80.325 61.1532 80.1509 60.1009C80.2107 60.0958 80.2724 60.1009 80.3305 60.0855C83.0171 59.4074 85.7018 58.7258 88.3884 58.0459C88.539 59.0811 88.6895 60.1163 88.8401 61.1515V61.1532Z" fill="#908383"/>
<path d="M79.9932 86.4744C80.0059 86.283 80.0966 86.2079 80.2889 86.1754C80.2834 86.3667 80.1873 86.4368 79.9932 86.4744Z" fill="#665E5E"/>
<path d="M80.5888 63.3568C80.6672 63.4337 80.6782 63.5225 80.6381 63.6199C80.4867 63.555 80.4703 63.4661 80.5888 63.3568Z" fill="#908383"/>
<path d="M80.6809 63.9546C80.7429 64.0366 80.7666 64.1237 80.7173 64.2177C80.5769 64.1442 80.5696 64.0571 80.6809 63.9546Z" fill="#908383"/>
<path d="M90.4115 65.9363C90.5602 66.9254 90.7072 67.9145 90.8559 68.9035C90.562 68.8557 90.2954 69.0112 90.0069 69.0026C89.8727 68.2322 89.7348 67.4618 89.6713 66.6828C89.7911 66.6026 89.7421 66.5496 89.6387 66.5052L89.5752 66.003C89.8201 65.6101 90.1212 65.839 90.4115 65.9363Z" fill="#665E5E"/>
<path d="M107.514 62.2721C107.487 62.5779 107.672 62.7026 107.96 62.747C109.629 63.0015 111.296 63.0015 112.965 62.747C113.252 62.7026 113.39 62.5608 113.375 62.2892C113.653 62.2789 113.908 62.3678 114.164 62.448C114.32 62.4976 114.485 62.554 114.489 62.7538C114.493 62.9622 114.338 63.0493 114.164 63.116C113.654 63.3141 113.11 63.3619 112.573 63.3995C110.935 63.5123 109.295 63.5447 107.661 63.3363C107.376 63.3005 107.095 63.2509 106.834 63.1365C106.658 63.0596 106.455 62.9913 106.455 62.7624C106.455 62.5181 106.674 62.4788 106.855 62.4241C107.07 62.3609 107.293 62.3216 107.512 62.2704L107.514 62.2721Z" fill="#F8F8FA"/>
<path d="M126.987 62.8324C127.02 62.9315 127.038 63.0254 126.929 63.0972C126.794 62.9793 126.806 62.8905 126.987 62.8324Z" fill="#908383"/>
<path d="M102.426 70.7003C102.097 70.6798 101.707 71.0573 101.524 70.8489C101.316 70.6098 101.461 70.1742 101.468 69.8223C101.644 69.853 101.818 69.8974 101.994 69.9145C102.589 69.9743 102.672 70.1212 102.426 70.7003Z" fill="#847A7A"/>
<path d="M101.464 69.5048C101.324 69.3477 101.286 69.199 101.503 69.0709C101.534 69.2195 101.559 69.3664 101.464 69.5048Z" fill="#847A7A"/>
<path d="M99.7994 69.2521C99.7465 69.1598 99.7502 69.0727 99.8195 68.989C99.9508 69.0864 99.9508 69.1735 99.7994 69.2521Z" fill="#847A7A"/>
<path d="M93.7619 74.1171C93.6562 74.059 93.6562 73.9992 93.7619 73.9395C93.8331 73.9975 93.8331 74.0573 93.7619 74.1171Z" fill="#847A7A"/>
<path d="M89.6392 66.505C89.7432 66.5494 89.7924 66.6024 89.6721 66.6827C89.6064 66.6314 89.5973 66.5716 89.6392 66.505Z" fill="#847A7A"/>
<path d="M21 1.25H181V0.75H21V1.25ZM200.75 21V91H201.25V21H200.75ZM181 110.75H21V111.25H181V110.75ZM1.25 91V21H0.75V91H1.25ZM21 110.75C10.0924 110.75 1.25 101.908 1.25 91H0.75C0.75 102.184 9.81624 111.25 21 111.25V110.75ZM200.75 91C200.75 101.908 191.908 110.75 181 110.75V111.25C192.184 111.25 201.25 102.184 201.25 91H200.75ZM181 1.25C191.908 1.25 200.75 10.0924 200.75 21H201.25C201.25 9.81623 192.184 0.75 181 0.75V1.25ZM21 0.75C9.81623 0.75 0.75 9.81623 0.75 21H1.25C1.25 10.0924 10.0924 1.25 21 1.25V0.75Z" fill="black"/>
</g>
<defs>
<filter id="filter0_d_743_771" x="0.75" y="0.75" width="207.5" height="110.5" filterUnits="userSpaceOnUse" color-interpolation-filters="sRGB">
<feFlood flood-opacity="0" result="BackgroundImageFix"/>
<feColorMatrix in="SourceAlpha" type="matrix" values="0 0 0 0 0 0 0 0 0 0 0 0 0 0 0 0 0 0 127 0" result="hardAlpha"/>
<feOffset dx="7"/>
<feComposite in2="hardAlpha" operator="out"/>
<feColorMatrix type="matrix" values="0 0 0 0 0 0 0 0 0 0 0 0 0 0 0 0 0 0 0.25 0"/>
<feBlend mode="normal" in2="BackgroundImageFix" result="effect1_dropShadow_743_771"/>
<feBlend mode="normal" in="SourceGraphic" in2="effect1_dropShadow_743_771" result="shape"/>
</filter>
</defs>
</svg>
