<svg width="89" height="81" viewBox="0 0 89 81" fill="none" xmlns="http://www.w3.org/2000/svg">
<path d="M0.535149 10.8157C2.89234 10.2942 5.24952 9.78362 7.60218 9.25402C17.0445 7.12474 26.5049 5.02263 36.2911 3.51801C38.2546 3.21655 40.2589 3.01828 42.2496 2.78743C42.4849 2.76027 42.7473 2.82817 43.0007 2.85261H42.9916C42.0461 3.32518 41.1005 3.80047 40.1549 4.27575L39.6889 4.48216L39.716 4.47401L39.0645 4.79721L39.0781 4.77819L38.5804 5.09596L38.594 5.09052C38.1234 5.25076 37.576 5.36483 37.2005 5.5821C34.4542 7.18992 31.6989 8.79231 29.0431 10.4517C27.7808 11.2421 26.7357 12.16 25.591 13.021L25.4191 13.1351L25.2426 13.2274L24.8852 13.5696C24.8219 13.5615 24.7585 13.556 24.6952 13.5615C23.917 13.4963 23.1433 13.4311 22.3651 13.3632C22.0349 13.3197 21.7091 13.2654 21.3788 13.2328C18.9764 12.9938 16.574 12.7575 14.1715 12.5185C12.5563 12.3692 10.9366 12.2279 9.32144 12.065C7.83293 11.9156 6.34441 11.7472 4.86043 11.5843L4.51205 11.5109L2.89233 11.3018C2.08248 11.1823 1.27262 11.0601 0.467285 10.9406L0.539675 10.8129L0.535149 10.8157Z" fill="#3D91DE"/>
<path d="M22.3646 13.3659C23.1428 13.431 23.9164 13.4962 24.6946 13.5641C24.6584 13.9009 24.6222 14.235 24.5815 14.5717C24.4096 14.952 24.2377 15.3322 24.0612 15.7124C23.6902 16.5163 23.2378 17.3012 21.5683 17.3773C20.3015 17.4343 19.012 17.5049 17.7588 17.4207C14.6144 17.2034 11.4699 16.9563 8.35719 16.6168C5.44351 16.299 2.5796 15.8373 0.824148 14.1888L0.720088 13.7732L0.647699 13.5804L0.00976562 11.72L0.457677 10.9514C1.26754 11.0709 2.07739 11.1931 2.88273 11.3126C3.42112 11.3832 3.96405 11.4511 4.50244 11.5218C4.62008 11.5462 4.73318 11.5706 4.85082 11.5951C6.80081 11.883 8.74628 12.198 10.7099 12.4479C11.8998 12.6 13.1259 12.6489 14.3339 12.7439C15.1347 12.8444 15.9264 12.9775 16.7363 13.0345C18.6048 13.1676 20.4824 13.2627 22.3555 13.3713L22.3646 13.3659Z" fill="#0B0D0C"/>
<path d="M46.2899 2.59998C51.5245 3.12686 56.5239 4.14533 61.4057 5.34304C70.2553 7.51849 79.0326 9.808 87.837 12.0513C88.0406 12.1029 88.217 12.1899 88.407 12.2632C87.2624 12.4289 86.1177 12.5972 84.973 12.7656L84.4346 12.8009H84.4437L83.9324 12.839H83.9415L83.4302 12.877H83.4393L82.6385 12.9992L82.6475 12.9938L82.3444 13.0752H82.3534L81.8422 13.116H81.8558L81.3445 13.1567H80.6342L80.132 13.1947H80.1365C78.096 13.3251 76.0556 13.4528 74.0151 13.5885C73.9427 13.594 73.8884 13.6918 73.825 13.7461L73.3138 13.7841H73.3228C71.5312 13.8384 69.7396 13.8954 67.9524 13.9525C66.6856 14.0693 65.4143 14.1888 64.1475 14.3056C64.0886 14.2947 64.0344 14.2838 63.9755 14.2702C63.9031 14.2485 63.8353 14.2295 63.7629 14.2078C63.4914 13.9688 63.2154 13.7298 62.944 13.4908L62.7675 13.3115L62.7811 13.336L62.4237 13.097L62.4373 13.1105L61.7405 12.657V12.6624C61.5731 12.4397 61.4691 12.1817 61.2066 12.0052C57.7772 9.67221 54.3432 7.33924 50.864 5.03343C50.2758 4.64234 49.4569 4.3789 48.7421 4.0557L48.7556 4.06385L48.258 3.80041L46.1089 2.85527L46.2808 2.60541L46.2899 2.59998Z" fill="#3D91DE"/>
<path d="M63.7676 14.205C63.8399 14.2267 63.9078 14.2457 63.9802 14.2674C64.0028 14.3299 64.03 14.3924 64.0526 14.4521L64.0843 14.835L64.0707 14.8595L64.0933 15.2153L64.0209 15.2044V15.161C63.7087 15.7204 63.4011 16.2799 63.0889 16.8394C62.4691 17.6243 61.3923 18.1376 60.0259 18.2788C57.1801 18.5749 54.3162 18.8437 51.4387 18.9795C45.091 19.281 38.7524 19.0936 32.4998 18.3956C29.9028 18.105 26.9801 18.0425 25.3377 16.4184C25.0844 15.8019 24.831 15.1854 24.5776 14.5689C24.6138 14.2321 24.6546 13.8981 24.6907 13.5613C24.7541 13.5586 24.8174 13.5613 24.8808 13.5721C25.8445 13.6428 26.8081 13.7297 27.7764 13.784C36.9065 14.3136 46.0592 14.482 55.2256 14.4195C58.0714 14.4005 60.9172 14.2783 63.763 14.2022L63.7676 14.205Z" fill="#0B0D0C"/>
<path d="M64.0834 14.8351C64.0744 14.7075 64.0608 14.5798 64.0518 14.4522C64.0834 14.4033 64.1151 14.3517 64.1468 14.3028C65.4136 14.186 66.6849 14.0665 67.9518 13.9497C69.7434 13.8927 71.535 13.8357 73.3222 13.7813H73.3131C73.485 13.7705 73.657 13.7569 73.8244 13.7433C75.7879 13.6265 77.747 13.5098 79.7105 13.3767C79.8644 13.3658 79.9956 13.2599 80.1403 13.1974H80.1358C80.3032 13.1838 80.4706 13.1703 80.638 13.1567C80.8778 13.1567 81.1176 13.1567 81.3574 13.1567H81.3483L81.8596 13.116H81.846L82.3573 13.0752H82.3482L82.6514 12.9964L82.6423 13.0019C82.9092 12.9611 83.1762 12.9231 83.4431 12.8824H83.4341C83.606 12.8661 83.7734 12.8525 83.9453 12.8416H83.9363L84.4475 12.8009H84.4385C84.6194 12.79 84.7959 12.7792 84.9769 12.7683C86.1215 12.5999 87.2662 12.4343 88.4109 12.2659C88.5013 12.437 88.6959 12.6189 88.6597 12.7792C88.5285 13.3794 88.3249 13.9769 88.1484 14.5744C88.1168 14.5825 88.0625 14.5934 88.0625 14.6016C88.0625 14.6369 88.0896 14.6695 88.1032 14.7048C88.0218 14.9356 87.9403 15.1665 87.8544 15.3973C87.1169 16.5733 85.3388 16.9074 83.606 17.2686C80.2037 17.9774 76.6656 18.2083 73.1005 18.2517C70.2818 18.287 67.4088 18.4663 64.744 17.6542L64.8073 17.6216L64.7485 17.6542C64.6761 17.475 64.5992 17.2957 64.5268 17.1192C64.5178 17.0567 64.5132 16.9943 64.5042 16.9318C64.4725 16.8476 64.4454 16.7607 64.4137 16.6765V16.6955C64.3594 16.4837 64.3006 16.2691 64.2463 16.0573C64.2011 15.7775 64.1558 15.4978 64.1106 15.2208H64.097C64.088 15.104 64.0789 14.9872 64.0744 14.8677L64.088 14.8433L64.0834 14.8351Z" fill="#0B0D0C"/>
<path d="M25.3423 16.4213C26.9801 18.0454 29.9074 18.1106 32.5043 18.3985C38.757 19.0965 45.0956 19.2839 51.4433 18.9824C54.3207 18.8466 57.1847 18.575 60.0305 18.2817C61.3923 18.1405 62.4691 17.6272 63.0935 16.8423C62.8582 18.1622 61.5733 18.8575 59.4378 18.996C55.3297 19.2621 51.217 19.5066 47.1089 19.7591C46.6655 19.7863 46.2267 19.8162 45.7833 19.8433C45.0865 19.8352 44.3943 19.8243 43.6976 19.8162C41.3087 19.6831 38.9018 19.6234 36.5355 19.3979C33.6128 19.1209 30.7172 18.7298 27.8262 18.3469C26.1567 18.1269 25.4735 17.3882 25.3468 16.4186L25.3423 16.4213Z" fill="#574F4F"/>
<path d="M0.829102 14.1833C2.58455 15.8346 5.44846 16.2936 8.36214 16.6114C11.4749 16.9509 14.6193 17.198 17.7637 17.4153C19.017 17.5022 20.3064 17.4316 21.5732 17.3718C23.2427 17.2958 23.6952 16.5109 24.0662 15.707C24.2878 17.0432 23.3558 17.8879 21.2611 17.953C15.0265 18.1459 8.92768 17.7575 3.19081 16.1361C1.80184 15.745 0.833625 15.1747 0.833625 14.1833H0.829102Z" fill="#574F4F"/>
<path d="M64.7441 17.6543C67.4045 18.4663 70.2819 18.2871 73.1006 18.2518C76.6658 18.2083 80.2038 17.9775 83.6062 17.2686C85.339 16.9074 87.1125 16.5733 87.8545 15.3973C87.764 16.3968 86.9587 17.1056 85.3887 17.4479C83.9455 17.7629 82.5022 18.1078 81.0047 18.3006C76.3129 18.9063 71.5714 19.0991 66.7982 18.6836C65.7847 18.5967 64.8799 18.3957 64.7441 17.657V17.6543Z" fill="#574F4F"/>
<path d="M45.8332 1.56516C45.7337 1.69553 45.6341 1.82589 45.5346 1.95625C44.5211 2.20883 45.7472 2.54018 45.4486 2.8172C44.8243 2.77103 44.2044 2.72486 43.5801 2.67869V2.68684C44.4849 2.38808 44.3537 1.92638 44.0732 1.46739C43.6253 0.734095 43.9782 0.454357 45.2948 0.533118C44.9464 0.782982 44.7338 1.00569 45.4124 1.20938C45.6025 1.26641 45.693 1.44295 45.8332 1.56245V1.56516Z" fill="#6B473D"/>
<path d="M45.8323 1.56522C45.6966 1.443 45.6061 1.26647 45.4116 1.21215C44.7329 1.01117 44.9456 0.785752 45.2939 0.535889C46.2621 0.804764 46.4069 1.07907 45.8323 1.56522Z" fill="#94756D"/>
<path d="M45.7107 23.2655C45.6971 22.524 45.688 21.7826 45.6743 21.0411C45.688 21.7826 45.6971 22.524 45.7107 23.2655Z" fill="#1C1C1D"/>
<path d="M45.7107 26.5732C45.6971 25.8344 45.6834 25.093 45.6743 24.3542C45.688 25.093 45.7016 25.8344 45.7107 26.5732Z" fill="#1C1C1D"/>
<path d="M45.4481 2.81749C45.7467 2.54046 44.5251 2.20641 45.5341 1.95654C45.7874 2.1711 46.0363 2.38566 46.2896 2.60293C46.2308 2.68712 46.172 2.7686 46.1177 2.85279C45.896 2.84193 45.6698 2.83107 45.4481 2.8202V2.81749Z" fill="#94756D"/>
<path d="M64.2422 16.0519C64.3013 16.2637 64.3559 16.4783 64.415 16.6901C64.3559 16.4783 64.3013 16.2637 64.2422 16.0519Z" fill="#631F2B"/>
<path d="M64.5225 17.1166C64.5949 17.2958 64.6718 17.4751 64.7441 17.6516C64.6718 17.4724 64.5949 17.2931 64.5225 17.1166Z" fill="#631F2B"/>
<path d="M43.0007 2.85265C43.1953 2.79833 43.3944 2.7413 43.5889 2.68698V2.67883C43.3853 2.73587 43.1862 2.7929 42.9917 2.84994H43.0007V2.85265Z" fill="#94756D"/>
<path d="M64.0943 15.2193H64.1081C64.0667 15.2054 64.0345 15.1888 64.0161 15.1638V15.2082L64.0943 15.2193Z" fill="#631F2B"/>
<path d="M64.4092 16.674C64.441 16.7581 64.4683 16.8451 64.5001 16.9292C64.4683 16.8451 64.441 16.7581 64.4092 16.674Z" fill="#631F2B"/>
<path d="M88.0951 14.7023C88.0815 14.667 88.0587 14.6344 88.0542 14.5991C88.0542 14.5909 88.1088 14.58 88.1406 14.5719L88.0951 14.7023V14.7023Z" fill="#631F2B"/>
<path d="M0.652344 13.5748L0.725116 13.7677L0.652344 13.5748Z" fill="#631F2B"/>
<path d="M42.987 2.84994C43.1861 2.7929 43.3807 2.73587 43.5797 2.67883C44.2041 2.725 44.8239 2.77117 45.4483 2.81735C45.67 2.82821 45.8962 2.83907 46.1179 2.84994C46.8327 3.16498 47.5521 3.48003 48.267 3.79507C48.4344 3.88198 48.5972 3.97161 48.7646 4.05852L48.7511 4.05037C51.2938 5.70436 53.8545 7.3502 56.3791 9.01777C58.1934 10.2182 59.9624 11.4431 61.754 12.6571V12.6517C61.9803 12.8037 62.211 12.9531 62.4463 13.1052L62.4327 13.0916L62.7901 13.3306L62.7766 13.3062C62.8354 13.3659 62.8942 13.4257 62.953 13.4854C63.2245 13.7244 63.4959 13.9634 63.7719 14.2024C60.9261 14.2785 58.0803 14.398 55.2345 14.4197C46.0681 14.4822 36.9154 14.3138 27.7852 13.7842C26.817 13.7272 25.8533 13.643 24.8896 13.5723C25.0073 13.4583 25.1294 13.3442 25.2471 13.2301C25.3059 13.2003 25.3647 13.1704 25.4235 13.1378L25.5954 13.0237C25.7176 12.9721 25.8533 12.9314 25.9574 12.8716C30.1741 10.2807 34.3863 7.68697 38.5984 5.09328L38.5849 5.09871L39.0825 4.78095L39.069 4.79996C39.2861 4.69132 39.5033 4.5854 39.7205 4.47677L39.6933 4.4822C39.8471 4.4143 40.0055 4.34369 40.1593 4.27579C41.1049 3.8005 42.0505 3.32522 42.9961 2.84994H42.987Z" fill="#5C595A"/>
<path d="M38.5938 5.09314C34.3816 7.68683 30.1695 10.2805 25.9528 12.8715C25.8532 12.934 25.713 12.9747 25.5908 13.0236C26.7355 12.1627 27.7806 11.2474 29.0429 10.4543C31.6987 8.79221 34.454 7.19254 37.2003 5.58472C37.5758 5.36473 38.1278 5.25338 38.5938 5.09314Z" fill="#3D91DE"/>
<path d="M14.3429 12.7386C13.1349 12.6435 11.9088 12.5946 10.7189 12.4425C8.75533 12.1927 6.80986 11.8776 4.85986 11.5897C6.34837 11.75 7.83236 11.9211 9.32087 12.0704C10.9361 12.2307 12.5558 12.3719 14.171 12.524C14.2298 12.5946 14.2841 12.6679 14.3429 12.7413V12.7386Z" fill="#3D91DE"/>
<path d="M14.3428 12.7385C14.284 12.6652 14.2297 12.5946 14.1709 12.5212C16.5733 12.7575 18.9758 12.9938 21.3782 13.2355C21.7085 13.2681 22.0342 13.3224 22.3645 13.3659C20.4914 13.2573 18.6138 13.1622 16.7453 13.0291C15.9354 12.9721 15.1436 12.8363 14.3428 12.7385V12.7385Z" fill="#3D91DE"/>
<path d="M4.50741 11.5163C3.96901 11.4456 3.42609 11.3777 2.8877 11.3071C3.42609 11.3777 3.96901 11.4456 4.50741 11.5163Z" fill="#B85052"/>
<path d="M39.7111 4.47668C39.4939 4.58532 39.2767 4.69124 39.0596 4.79988C39.2767 4.69124 39.4939 4.58532 39.7111 4.47668Z" fill="#8E4546"/>
<path d="M39.0739 4.78088L38.5762 5.09864L39.0739 4.78088Z" fill="#8E4546"/>
<path d="M40.1496 4.27588C39.9958 4.34378 39.8374 4.41439 39.6836 4.48229C39.8374 4.41439 39.9958 4.34378 40.1496 4.27588Z" fill="#8E4546"/>
<path d="M25.4196 13.1405C25.3604 13.1701 25.3013 13.1997 25.2422 13.232L25.4196 13.1405Z" fill="#8E4546"/>
<path d="M61.754 12.6597C59.9623 11.4457 58.1978 10.2181 56.379 9.02038C53.8544 7.35281 51.2982 5.70697 48.751 4.05298C49.4613 4.37617 50.2802 4.63961 50.8729 5.03071C54.3521 7.33651 57.7861 9.66948 61.2156 12.0024C61.4734 12.179 61.5775 12.4397 61.754 12.6597V12.6597Z" fill="#5C595A"/>
<path d="M80.1368 13.1975C79.9965 13.26 79.8608 13.3686 79.707 13.3768C77.7479 13.5071 75.7844 13.6239 73.8208 13.7461C73.8841 13.6918 73.9384 13.594 74.0108 13.5886C76.0513 13.4528 78.0918 13.3252 80.1323 13.1975H80.1368Z" fill="#0B0D0C"/>
<path d="M73.323 13.7812C71.5314 13.8383 69.7398 13.8953 67.9526 13.9496C69.7443 13.8926 71.5359 13.8356 73.323 13.7812Z" fill="#C66767"/>
<path d="M62.4414 13.1079C62.2106 12.9558 61.9754 12.8064 61.7446 12.6543L62.4414 13.1079Z" fill="#8E3F40"/>
<path d="M83.439 12.8798C83.1721 12.9205 82.9051 12.9585 82.6382 12.9993L83.439 12.8798Z" fill="#C05557"/>
<path d="M48.7648 4.05849C48.5974 3.97158 48.4345 3.88195 48.2671 3.79504C48.4345 3.88195 48.5974 3.97158 48.7648 4.05849Z" fill="#8E3F40"/>
<path d="M73.8252 13.7434C73.6533 13.7571 73.4814 13.7709 73.314 13.7846C73.4859 13.7709 73.6578 13.7571 73.8252 13.7434Z" fill="#C66767"/>
<path d="M80.634 13.1569C80.4666 13.1706 80.2992 13.1843 80.1318 13.198C80.2992 13.1843 80.4666 13.1706 80.634 13.1569Z" fill="#C05557"/>
<path d="M81.8555 13.1161L81.3442 13.16L81.8555 13.1161Z" fill="#C05557"/>
<path d="M82.3526 13.0753L81.8413 13.1192C82.0132 13.1055 82.1852 13.089 82.3526 13.0753Z" fill="#C05557"/>
<path d="M83.937 12.8389C83.7651 12.8526 83.5977 12.8663 83.4258 12.88C83.5977 12.8663 83.7651 12.8526 83.937 12.8389Z" fill="#C05557"/>
<path d="M84.439 12.7982L83.9277 12.8394L84.439 12.7982Z" fill="#C05557"/>
<path d="M84.9691 12.7656C84.7881 12.7766 84.6116 12.7903 84.4307 12.8013C84.6116 12.7903 84.7881 12.7766 84.9691 12.7656Z" fill="#C05557"/>
<path d="M62.7852 13.3332L62.4277 13.0942L62.7852 13.3332Z" fill="#8E3F40"/>
<path d="M62.9494 13.4881C62.8902 13.4283 62.8311 13.3686 62.772 13.3088C62.8311 13.3686 62.8902 13.4283 62.9494 13.4881Z" fill="#8E3F40"/>
<path d="M64.1483 14.3029C64.1164 14.3518 64.0846 14.4034 64.0527 14.4523C64.03 14.3898 64.0027 14.3273 63.98 14.2676C64.0346 14.2812 64.0937 14.292 64.1528 14.3029H64.1483Z" fill="#631F2B"/>
<path d="M82.6469 12.9966L82.3438 13.0773L82.6469 12.9966Z" fill="#C05557"/>
<path d="M64.0845 14.8351L64.0703 14.8613L64.0845 14.8351Z" fill="#631F2B"/>
<ellipse cx="44.1755" cy="63.848" rx="11.1404" ry="3.09455" fill="#363537"/>
<path d="M44.5474 19.1847V61.1005" stroke="black" stroke-width="2.68261"/>
<path d="M40.8258 80.456C40.3196 80.128 40.209 79.8991 40.4394 79.4703C41.5532 77.4119 41.7418 75.2373 41.4062 72.9893C41.2158 71.7184 41.4026 70.5226 42.2625 69.472C42.3423 69.3747 42.5436 69.2483 42.3695 69.115C42.17 68.963 42.101 68.6145 41.7636 68.6658C39.9296 68.9425 38.2625 69.5387 37.0344 70.9394C36.9437 71.0436 36.8875 71.1495 36.9074 71.2896C36.9274 71.4263 36.882 71.5783 36.7551 71.6227C36.2762 71.7918 36.122 72.2155 35.9061 72.5742C34.8032 74.402 33.1361 75.4594 30.961 75.8403C30.8721 75.8557 30.7833 75.8711 30.6925 75.8796C30.1048 75.9326 29.6513 75.6524 29.6114 75.2117C29.5733 74.8069 29.918 74.4823 30.4948 74.4293C32.3216 74.2653 33.7147 73.4608 34.6762 71.9849C34.9047 71.633 35.1551 71.293 35.4199 70.9667C35.556 70.7976 35.5324 70.6746 35.4199 70.5106C34.2662 68.8092 33.1107 67.1078 31.9714 65.3979C31.7792 65.1092 31.6576 65.2049 31.469 65.3808C29.8817 66.8636 28.289 68.3412 26.698 69.8205C26.6128 69.9008 26.5293 69.9845 26.4332 70.0528C26.23 70.198 26.0323 70.1639 25.8636 70.0016C25.7058 69.8478 25.7076 69.6651 25.8327 69.496C25.9089 69.3918 26.0142 69.3063 26.1103 69.2158C27.723 67.716 29.3284 66.211 30.9538 64.7249C31.2241 64.4772 31.2495 64.308 31.0336 64.0108C30.6073 63.4266 30.2318 62.8082 29.8363 62.2052C29.5515 61.7816 29.2758 61.7559 28.9094 62.1095C28.7098 62.3009 28.581 62.5383 28.367 62.7279C27.6559 63.3566 26.9847 64.0262 26.2844 64.6685C25.5915 65.3039 24.9892 66.0282 24.2092 66.5783C24.1747 66.2127 24.5031 66.0863 24.7189 65.8813C25.5752 65.0665 26.4223 64.2448 27.2767 63.43C27.6831 63.0422 27.9824 62.5537 28.4831 62.2496C28.7062 62.1147 28.8168 61.8824 28.8985 61.6535C28.9837 61.4143 28.9039 61.2179 28.6318 61.1564C28.24 61.0675 27.8663 60.924 27.4436 60.9343C26.981 60.9462 26.5148 60.8865 26.0522 60.8472C24.7534 60.7395 23.4564 60.6268 22.1575 60.5175C21.2178 60.4389 20.2764 60.3689 19.3385 60.2766C19.0047 60.2442 18.7888 60.415 18.5984 60.6097C18.3988 60.8147 18.5167 61.0317 18.6637 61.2298C19.0156 61.7047 19.3403 62.1984 19.6687 62.6869C20.5521 63.9989 21.4065 65.3279 22.3262 66.6193C22.7326 67.1915 23.1843 67.2496 23.7448 66.7987C23.8827 66.6876 24.0006 66.551 24.2092 66.58C24.1475 66.8892 23.8464 67.019 23.6523 67.2274C23.3004 67.6049 23.2441 68.0269 23.518 68.4266C23.9117 69.0057 24.3053 69.5865 24.7008 70.1656C25.4609 71.2828 26.2409 72.3897 26.972 73.524C27.2078 73.8895 27.5252 74.197 27.7284 74.5762C27.7846 74.6804 27.9225 74.8274 27.7593 74.9111C27.5779 75.005 27.5144 74.8205 27.4345 74.7009C26.9048 73.8981 26.3733 73.0952 25.84 72.2958C25.4808 71.7577 25.1325 71.211 24.7534 70.6866C24.2799 70.034 23.9443 69.2978 23.362 68.7102C22.9303 68.2746 22.5856 68.237 22.143 68.6606C21.5226 69.2534 20.9258 69.8701 20.309 70.4645C19.5453 71.2025 18.7526 71.9148 18.0306 72.6904C17.9562 72.7706 17.8601 72.9261 17.7476 72.8458C17.5916 72.7365 17.7694 72.6271 17.8292 72.5229C18.3027 71.7047 19.1517 71.2161 19.8083 70.5602C20.5775 69.7932 21.4101 69.0757 22.2083 68.3292C22.5657 67.9961 22.6056 67.4905 22.3298 67.0788C21.7221 66.1751 21.1253 65.2629 20.494 64.373C19.6777 63.2199 18.9739 61.9985 18.114 60.8711C17.8528 60.5277 17.8818 59.9401 18.1358 59.6582C18.5929 59.6104 19.0356 59.759 19.4909 59.7488C19.5036 59.8171 19.5126 59.8906 19.6052 59.9025C19.7249 59.9179 19.7503 59.8376 19.7648 59.7505C19.9752 59.7778 20.1875 59.8051 20.3979 59.8342C20.4106 59.9025 20.4197 59.976 20.5122 59.9879C20.6319 60.0033 20.6573 59.923 20.6718 59.8359C20.8623 59.8051 21.0328 59.8906 21.2142 59.9179C21.3339 60.0887 21.4537 60.2032 21.5788 59.9213C21.7893 59.9213 21.9997 59.9247 22.2101 59.9264C22.2319 60.034 22.2573 60.1348 22.3933 60.005L23.1171 60.0101C23.1589 60.1861 23.2459 60.2271 23.3911 60.0904C23.6106 60.0648 23.8174 60.1263 24.026 60.1724C24.1457 60.2954 24.2672 60.2954 24.3888 60.1758C24.6373 60.1553 24.8768 60.1929 25.1144 60.2578C25.1743 60.3449 25.2341 60.3467 25.2958 60.2595C26.8976 60.4013 28.4994 60.5431 30.103 60.6866C30.2536 60.9548 30.0685 61.3426 30.4404 61.5322C30.464 61.6278 30.4567 61.7491 30.5184 61.814C30.9737 62.3111 31.2894 62.8936 31.654 63.4437C31.868 63.7665 31.9823 63.7614 32.2617 63.5001C33.7002 62.1488 35.1605 60.8198 36.6136 59.4823C37.1959 59.6907 36.9455 60.0614 36.8149 60.4081C35.4308 61.6962 34.054 62.9876 32.659 64.2653C32.434 64.4703 32.4467 64.607 32.6045 64.8376C33.7129 66.4604 34.8122 68.0901 35.9006 69.7266C36.073 69.9862 36.1782 70.0682 36.4612 69.8154C37.9215 68.512 39.7391 67.9568 41.6784 67.675C41.7545 67.6784 41.8561 67.6784 41.8688 67.5998C41.9378 67.183 42.2026 66.8875 42.5219 66.6227C42.5781 66.5749 42.638 66.4878 42.5745 66.4382C42.3459 66.2623 42.3768 65.9292 42.1155 65.7788C41.4171 62.9397 41.5096 60.0802 41.9033 57.2189C42.0702 56.0112 42.2988 54.812 42.5001 53.6077C43.106 53.6111 43.7137 53.6162 44.3196 53.6196C43.4434 57.6049 42.8484 61.6005 43.8516 65.6507C43.7609 65.8403 43.906 65.9104 44.0475 65.965C44.3033 66.0641 44.4484 66.2776 44.6443 66.4314C44.8892 66.6261 44.7586 67.0634 45.1831 67.0925C45.3354 67.5281 45.6094 67.938 45.4552 68.4368C45.4171 68.5598 45.584 68.6128 45.6801 68.676C47.4978 69.853 49.1232 71.2076 50.4184 72.9124C51.1603 73.8878 52.3013 74.25 53.5313 74.3525C53.9068 74.3832 54.2859 74.3593 54.6632 74.361C55.2201 74.3644 55.6392 74.7385 55.6682 75.2578C55.6972 75.7857 55.3308 76.2435 54.7757 76.252C52.4301 76.2913 50.3621 75.6849 49.0052 73.7443C47.837 72.0737 46.3096 70.7652 44.6334 69.5831C44.2688 69.3268 43.8697 69.4259 43.5903 69.7829C42.852 70.7242 42.7758 71.7662 42.9972 72.8731C43.3128 74.4481 43.4198 76.0299 43.0643 77.6169C42.901 78.3429 42.6507 79.0416 42.3622 79.73C42.228 80.0511 42.0212 80.2937 41.6983 80.4492C41.4044 80.5124 41.1106 80.5055 40.8149 80.4543L40.8258 80.456Z" fill="#665E5E"/>
<path d="M73.4655 41.0538C73.5036 40.9957 73.5398 40.9377 73.5779 40.8796C73.7611 40.8847 73.899 40.8352 73.919 40.637C74.0079 40.6011 74.0986 40.5994 74.1893 40.6319C74.2092 40.8471 74.3634 40.8847 74.5539 40.8762C74.7135 41.0624 74.6246 41.2708 74.6192 41.4723C74.3797 41.5629 74.4214 41.6859 74.5738 41.8225C74.5575 42.019 74.5394 42.2154 74.523 42.4119C74.3253 42.4751 74.3308 42.5673 74.4813 42.6784C74.4614 43.0183 74.4849 43.3634 74.3652 43.693C74.3054 43.6982 74.2382 43.7033 74.2292 43.7716C74.2201 43.8434 74.2872 43.857 74.3471 43.8656C74.3834 44.0979 74.338 44.3234 74.2727 44.5472C74.2147 44.5523 74.1475 44.5574 74.1385 44.624C74.1294 44.6941 74.1929 44.7094 74.2527 44.7197C74.2927 44.952 74.2473 45.1775 74.182 45.4013C74.124 45.4064 74.0568 45.4115 74.0478 45.4782C74.0387 45.5482 74.1022 45.5636 74.1602 45.5738C74.1566 46.1478 74.0822 46.7132 73.9825 47.2786C73.8809 47.2872 73.7557 47.2684 73.7521 47.4136C73.7503 47.5314 73.8573 47.528 73.9444 47.5417C73.9716 48.0303 73.8555 48.5051 73.8047 48.9869C73.4528 49.1201 73.4727 49.2961 73.7376 49.501L73.7158 49.841C73.4346 49.9776 73.5398 50.1655 73.6414 50.3535C73.6323 50.4952 73.6233 50.637 73.6142 50.7805C73.3729 50.8933 73.4292 51.0453 73.5489 51.2076C73.5398 51.3494 73.5308 51.4928 73.5217 51.6346C73.2641 51.773 73.3639 51.9592 73.4473 52.142C73.4782 52.405 73.4473 52.663 73.3657 52.9158C73.3076 52.9209 73.2405 52.9278 73.2314 52.9944C73.2224 53.0644 73.2877 53.0798 73.3457 53.0883C73.3838 53.2933 73.3457 53.4898 73.2841 53.6845C73.1952 53.693 73.1135 53.7135 73.1153 53.8195C73.1153 53.9032 73.1825 53.9271 73.255 53.9425C73.2931 54.1748 73.2441 54.4003 73.1843 54.624C73.1262 54.6292 73.0591 54.636 73.05 54.7009C73.041 54.7709 73.1045 54.7863 73.1625 54.7966C73.1589 55.3415 73.0918 55.8813 72.9938 56.416C72.8251 56.5133 72.6056 56.6039 72.9466 56.7627C72.963 57.0224 72.9503 57.2803 72.8686 57.5315C72.8033 57.5366 72.7126 57.5161 72.7017 57.6032C72.689 57.6971 72.7852 57.6835 72.8469 57.6954C72.8342 57.8663 72.8233 58.0371 72.8106 58.2079C72.533 58.348 72.6346 58.5342 72.7398 58.7204L72.7126 59.1457C72.4696 59.3114 72.4822 59.484 72.6999 59.6616L72.7398 59.8307C72.6491 59.8871 72.6491 59.9435 72.7398 59.9998L72.7489 60.2544C72.5657 60.4372 72.6854 60.6609 72.6564 60.8642C72.651 60.9343 72.6201 60.9906 72.5494 61.0214C72.4405 61.0419 72.3335 61.0641 72.4623 61.1922C72.4641 61.3647 72.3335 61.4519 72.2047 61.539C72.0505 61.5475 72.0142 61.6346 72.0396 61.761C72.0124 61.8789 71.9544 61.9797 71.8528 62.0549C71.6442 62.1283 71.4464 62.2086 71.5716 62.4785C71.4555 62.7279 71.2886 62.9483 71.1072 63.1584C70.9204 63.1703 70.9276 63.2967 70.9331 63.4214C70.8678 63.5786 70.7879 63.7272 70.6483 63.8383C70.4705 63.8536 70.4723 63.9749 70.4759 64.0979C70.3254 64.1099 70.2909 64.1953 70.3145 64.3183L70.3181 64.3405L70.2981 64.3541C70.1059 64.3627 70.1095 64.4891 70.1167 64.6189C69.7122 65.3295 69.2279 65.9923 68.7453 66.6568C68.5639 66.6705 68.5676 66.7935 68.5712 66.9165C68.3063 67.3823 68.3807 67.8162 68.7943 68.2182C69.0247 68.4419 69.2442 68.676 69.4691 68.9049C69.705 69.4976 70.1512 69.8991 70.7589 70.1553L70.8424 70.2356C70.8152 70.4337 70.9058 70.5209 71.1163 70.4987C71.9979 71.2827 72.8505 72.0941 73.6632 72.9431C73.7793 73.3685 73.7575 73.7511 73.2895 73.992C73.2115 74.004 73.1444 73.992 73.1026 73.9203C72.9448 73.6111 72.8414 73.2472 72.3698 73.237C71.4863 72.4546 70.6392 71.6398 69.8229 70.7959C69.4437 70.1228 68.9431 69.5608 68.1939 69.226C68.0306 69.0808 67.8546 68.9459 67.7041 68.7887C67.5535 68.6316 67.432 68.6469 67.2977 68.7938C67.1889 68.8075 67.0728 68.8195 67.1943 68.9612L67.0166 69.2192C66.8406 69.2329 66.8406 69.3524 66.8424 69.4737C66.739 69.4908 66.6229 69.4993 66.7336 69.6411C66.6392 69.87 66.4796 70.0596 66.3163 70.2475C66.1095 70.2561 66.1168 70.3893 66.1313 70.5277C66.0424 70.7412 65.9191 70.9343 65.7449 71.0965C65.6052 71.1136 65.5708 71.1973 65.5925 71.3152C65.6016 71.3374 65.5925 71.3511 65.5708 71.3562C65.4238 71.3681 65.3912 71.4553 65.4129 71.5748C65.3531 71.7508 65.2533 71.9045 65.1154 72.0361C64.9613 72.0634 64.8052 72.0907 64.9395 72.294C64.6601 72.7655 64.3663 73.2267 64.018 73.6555C63.8783 73.676 63.8474 73.7597 63.8692 73.8758C63.8765 73.898 63.8674 73.9117 63.842 73.9168C63.6969 73.9305 63.666 74.0159 63.6878 74.1338V74.1594L63.6678 74.1731C63.5191 74.185 63.4846 74.2704 63.5082 74.3934L63.5118 74.4156L63.4919 74.4293C63.2796 74.4259 63.2379 74.5916 63.149 74.7197C62.9985 74.9384 62.8606 75.239 62.5722 75.2475C62.1822 75.2578 62.2475 74.8786 62.1568 74.6428C62.1368 74.5899 62.1277 74.5335 62.1132 74.4788C62.2311 74.2089 62.3926 73.9681 62.5994 73.7494C62.7354 73.7289 62.7699 73.6469 62.7463 73.5325C62.7391 73.5086 62.7463 73.4949 62.7735 73.4898C63.1345 73.3429 63.2669 73.0576 63.3014 72.7125L63.2978 72.7159C63.6606 72.6322 63.7078 72.3572 63.7404 72.0719C63.9581 71.6705 64.203 71.2862 64.5023 70.9325C64.642 70.9138 64.6746 70.8283 64.6511 70.7122C64.6438 70.69 64.6511 70.678 64.6746 70.6729C64.8198 70.6609 64.8524 70.5755 64.8306 70.456C64.856 70.3347 64.9322 70.2424 65.0247 70.1604C65.3531 70.1058 65.3821 69.8734 65.3821 69.6257C65.5817 69.2363 65.8483 68.8878 66.1168 68.5393C66.3055 68.5291 66.3036 68.4044 66.2964 68.2762C66.3018 68.2062 66.329 68.1481 66.4016 68.1157C66.5449 68.0969 66.5757 68.0115 66.5522 67.8936C66.6247 67.704 66.4651 67.6169 66.3562 67.5075C65.9699 67.1215 65.5835 66.7371 65.1971 66.3528C65.1481 65.9958 64.8433 65.8198 64.5912 65.6131C64.3808 65.4406 64.3318 65.0665 63.9273 65.1297C62.9259 64.1833 61.9264 63.2352 60.9232 62.2906C60.5531 61.9421 60.5731 61.9575 60.3191 62.3709C59.9872 62.9124 59.6352 63.4454 59.2561 63.9561C59.0566 64.2243 59.0947 64.3815 59.3341 64.6001C60.9232 66.059 62.4996 67.5332 64.0796 69.0005C64.1975 69.1099 64.3191 69.2192 64.4297 69.3353C64.6057 69.5198 64.6311 69.7214 64.4406 69.9059C64.232 70.1109 64.0107 70.075 63.8021 69.8939C63.6914 69.7983 63.5844 69.6958 63.4774 69.5967C61.93 68.1567 60.379 66.7218 58.8407 65.2732C58.6121 65.0579 58.5178 65.0426 58.3328 65.3193C57.043 67.2598 55.7333 69.1884 54.429 71.1205C54.3891 71.1802 54.3491 71.24 54.3074 71.3015C54.1405 71.5475 53.9319 71.7576 53.609 71.5595C53.2879 71.3613 53.4058 71.1034 53.5764 70.854C54.9296 68.8502 56.272 66.8396 57.6416 64.8461C57.8629 64.5233 57.8575 64.3456 57.5564 64.0706C55.4992 62.1864 53.4639 60.28 51.4195 58.3839C51.2127 58.1925 51.024 57.9944 50.9424 57.7245C51.0295 57.5895 51.1437 57.6476 51.2526 57.6869C51.6499 57.8321 52.0453 57.979 52.4408 58.1259C52.4644 58.1618 52.4825 58.2045 52.5133 58.2335C54.3999 59.993 56.2883 61.7474 58.1713 63.5103C58.3636 63.6896 58.4634 63.6281 58.5795 63.4471C58.8552 63.0234 59.1382 62.6032 59.4266 62.1881C59.6715 61.8362 60.0198 61.5031 59.5736 61.0709C59.5663 61.0641 59.5736 61.0436 59.5736 61.0299C59.7006 60.9513 59.7096 60.8659 59.5935 60.7703L59.6135 60.6866C60.2284 60.5414 60.8579 60.5397 61.4837 60.4901C62.5867 60.403 63.6842 60.2544 64.7871 60.1775C65.8937 60.1006 66.9893 59.9503 68.0977 59.8905C69.3059 59.8239 70.5104 59.6787 71.7185 59.5745C71.9544 59.554 72.2374 59.6257 72.1902 59.2534C72.1521 58.9544 72.3716 58.5069 71.7403 58.5393L71.6623 58.4624C71.6442 58.4351 71.626 58.4061 71.6079 58.3787C71.6297 58.2079 71.6514 58.0371 71.675 57.8663C71.9453 57.7228 71.8491 57.5383 71.7403 57.3521C71.7476 57.2393 71.7548 57.1249 71.7621 57.0121C72.0396 56.8738 71.9362 56.6859 71.8346 56.4997C71.8437 56.3579 71.8528 56.2161 71.8618 56.0726C72.1031 55.9616 72.0451 55.8078 71.929 55.6456C71.938 55.5038 71.9471 55.3603 71.9562 55.2185C72.192 55.1058 72.1358 54.9537 72.0215 54.7932C72.0142 54.5335 71.9906 54.2704 72.1031 54.021C72.192 54.0125 72.2736 53.992 72.2718 53.8861C72.2718 53.8024 72.2047 53.7785 72.1321 53.7648C72.094 53.5325 72.143 53.307 72.2065 53.0832C72.2646 53.0781 72.3299 53.0713 72.3389 53.0046C72.348 52.9363 72.2863 52.9192 72.2265 52.9107C72.1884 52.7074 72.2192 52.5092 72.2881 52.3145C72.4496 52.306 72.5167 52.1966 72.524 52.0719C72.5312 51.9575 72.4097 51.9814 72.3299 51.9694C72.2954 51.58 72.3934 51.2024 72.4333 50.8198C72.4623 50.514 72.4931 50.2065 72.5222 49.9008C72.5893 49.1628 72.6564 48.4266 72.7217 47.6886L72.729 47.6971C73.041 47.6049 72.9466 47.4409 72.8124 47.2701C72.816 46.703 73.0228 46.1461 72.8995 45.5738C73.1226 45.3193 72.9466 44.9828 73.1008 44.7146C73.1915 44.6599 73.197 44.6035 73.1063 44.5437C73.1099 44.3456 73.1135 44.1474 73.1172 43.9493C73.2296 43.9254 73.3276 43.8963 73.1952 43.775L73.4673 41.047L73.4655 41.0538ZM70.1004 62.6408L70.0968 62.6442C70.3834 62.569 70.4777 62.376 70.4596 62.1164C70.7063 61.5851 71.1507 61.1597 71.3702 60.6148C71.2814 60.3586 71.1598 60.362 71.0111 60.5738L70.4687 60.6011C70.2709 60.4969 70.0732 60.4047 69.9226 60.6644C69.7431 60.6746 69.5616 60.6831 69.3821 60.6934C69.1843 60.362 69.0573 60.5755 68.9249 60.7463C68.7453 60.7566 68.5639 60.7668 68.3843 60.7771C68.1558 60.6541 67.9326 60.5806 67.7458 60.8403C67.4483 60.8642 67.1526 60.8864 66.8551 60.9103L66.7445 60.8027L66.6574 60.9291C66.0551 60.9992 65.4547 61.0795 64.847 61.0777C64.8343 61.0026 64.8615 60.8864 64.7399 60.8915C64.6057 60.8967 64.4896 60.9582 64.4805 61.1119C64.2429 61.1717 64.0034 61.2093 63.7567 61.1717C63.6134 60.9599 63.4919 60.9633 63.3921 61.2024C63.1545 61.2674 62.915 61.2964 62.6683 61.2622C62.6592 61.2059 62.6447 61.1444 62.5704 61.1512C62.4978 61.158 62.4924 61.2212 62.4869 61.2776C62.2493 61.3203 62.0116 61.363 61.725 61.4143C61.9754 61.6808 62.1858 61.9079 62.398 62.1334C62.3726 62.3282 62.4633 62.4153 62.6719 62.3948C63.5499 63.184 64.4134 63.9869 65.2207 64.8427C65.2098 64.9418 65.1808 65.0613 65.2715 65.1246C65.6724 65.4047 65.9499 65.7976 66.3182 66.1051C66.3744 66.1512 66.4887 66.1358 66.5776 66.1478C66.7209 66.2708 66.8769 66.3852 67.002 66.5219C67.1816 66.7166 67.3104 66.7508 67.4664 66.4928C67.6297 66.2247 67.8311 65.9787 68.0161 65.7224C68.2084 65.7139 68.2048 65.5875 68.1957 65.4577C68.7399 64.5882 69.3004 63.7289 69.919 62.9056C70.1131 62.8987 70.1095 62.7723 70.0968 62.6425L70.1004 62.6408Z" fill="#665E5E"/>
<path d="M24.2185 66.5783C24.9985 66.0282 25.6008 65.304 26.2937 64.6685C26.9921 64.0262 27.6633 63.3566 28.3763 62.7279C28.5903 62.5383 28.7191 62.3009 28.9186 62.1096C29.2851 61.756 29.5608 61.7816 29.8456 62.2052C29.6406 62.1044 29.539 62.2548 29.4284 62.3624C27.598 64.1184 25.7731 65.883 23.9319 67.6289C23.6979 67.8509 23.8085 67.9859 23.9355 68.1721C25.3232 70.2237 26.7092 72.277 28.0951 74.3286C28.1767 74.4481 28.262 74.5677 28.3255 74.6958C28.476 74.9982 28.4016 75.2647 28.1041 75.4372C27.803 75.6114 27.511 75.5465 27.3078 75.2766C27.0393 74.9162 26.7944 74.5404 26.5423 74.168C25.3903 72.4632 24.2348 70.7618 23.0974 69.0501C22.8997 68.7529 22.7781 68.729 22.5115 68.9886C20.8534 70.6063 19.1809 72.2103 17.5138 73.8195C17.2852 74.0399 17.0476 74.2363 16.683 74.0928C16.2476 73.922 16.1732 73.4744 16.5433 73.114C17.3106 72.3675 18.0889 71.6313 18.8598 70.8882C19.8648 69.923 20.8589 68.9476 21.8766 67.9927C22.1106 67.7724 22.1414 67.6237 21.9546 67.3521C20.5487 65.2954 19.1791 63.2148 17.7569 61.1683C17.4304 60.6968 17.5102 60.2493 17.6136 59.7915C17.6626 59.578 17.6934 59.3798 17.6626 59.1697C16.8861 53.787 16.1116 48.4044 15.3333 43.0217C15.2626 42.5315 15.1719 42.0429 15.0903 41.5527C15.132 41.1307 14.8617 40.7105 15.0866 40.2886C15.6326 39.9333 15.8594 39.9794 16.244 40.5294C16.4562 42.0429 16.6703 43.5547 16.8825 45.0682C16.9188 45.7515 17.0476 46.4246 17.1546 47.0993C17.3288 48.1499 17.5029 49.2021 17.5991 50.263L17.5918 50.3552C17.4739 50.4645 17.4884 50.5516 17.639 50.6183L17.6825 50.9531C17.5719 51.0556 17.5791 51.1444 17.7188 51.2161C18.0725 53.6333 18.4245 56.0505 18.7782 58.4676L18.5986 58.6316C18.2539 58.6248 18.1106 58.7802 18.1451 59.1048C18.1632 59.2876 18.1505 59.472 18.1523 59.6548C17.8984 59.9384 17.8694 60.5243 18.1306 60.8677C18.9904 61.9951 19.6943 63.2165 20.5106 64.3695C21.1401 65.2595 21.7369 66.1717 22.3464 67.0754C22.6221 67.4854 22.5822 67.991 22.2249 68.3258C21.4267 69.0723 20.594 69.7898 19.8249 70.5568C19.1682 71.2127 18.3174 71.7013 17.8458 72.5195C17.7859 72.622 17.6081 72.7314 17.7641 72.8424C17.8766 72.921 17.9728 72.7655 18.0471 72.6869C18.7691 71.9114 19.56 71.1974 20.3256 70.4611C20.9423 69.8649 21.5391 69.25 22.1595 68.6572C22.6022 68.2336 22.9468 68.2712 23.3786 68.7068C23.9609 69.2944 24.2965 70.0306 24.7699 70.6832C25.1509 71.2076 25.4992 71.7542 25.8566 72.2923C26.3899 73.0935 26.9214 73.8947 27.4511 74.6975C27.5291 74.8171 27.5944 75.0016 27.7758 74.9076C27.9409 74.8222 27.8012 74.677 27.745 74.5728C27.54 74.1936 27.2243 73.8861 26.9885 73.5206C26.2575 72.3863 25.4774 71.2811 24.7173 70.1622C24.3237 69.5831 23.93 69.0023 23.5346 68.4232C23.2625 68.0218 23.3169 67.6015 23.6688 67.224C23.8629 67.0156 24.1641 66.8858 24.2257 66.5766L24.2185 66.5783ZM16.9932 73.4744C17.1873 73.4386 17.2834 73.3668 17.2889 73.1755C17.0966 73.208 17.0059 73.2814 16.9932 73.4744Z" fill="#6F6767"/>
<path d="M24.4688 38.9918C24.5649 38.6911 24.34 38.3153 24.7136 38.0813C24.8388 38.0813 24.9622 38.0813 25.0873 38.0813C25.2814 38.2231 25.3377 38.4264 25.3685 38.6416C25.8891 42.2767 26.4116 45.9101 26.9322 49.5453C26.9377 49.588 26.9377 49.6307 26.9413 49.6734C26.6692 49.7707 26.3934 49.8493 26.0978 49.8391C26.0125 49.2771 25.9272 48.7151 25.842 48.1548C25.6914 47.1196 25.5408 46.0844 25.3903 45.0492C25.305 44.4496 25.2198 43.85 25.1345 43.2504C24.9767 42.1537 24.8497 41.0536 24.6447 39.9638C24.5848 39.6409 24.7136 39.2839 24.4706 38.9918H24.4688Z" fill="#665E5E"/>
<path d="M74.5521 40.8777C74.3616 40.8863 74.2075 40.8504 74.1875 40.6335C74.3109 40.6078 74.3889 40.7069 74.4959 40.7308C74.5158 40.7787 74.534 40.8282 74.5539 40.876L74.5521 40.8777Z" fill="#6F6767"/>
<path d="M74.5733 41.8242C74.4219 41.6875 74.38 41.5645 74.6189 41.474C74.6371 41.5953 74.6553 41.7149 74.5733 41.8242Z" fill="#6F6767"/>
<path d="M74.4806 42.6801C74.3293 42.5673 74.3256 42.4768 74.5226 42.4136C74.5317 42.499 74.539 42.5844 74.5481 42.6698C74.5262 42.6801 74.5044 42.6835 74.4806 42.6801Z" fill="#6F6767"/>
<path d="M71.6084 58.3821C71.6265 58.4094 71.6447 58.4385 71.6628 58.4658C71.6537 58.4914 71.6519 58.5188 71.6537 58.5461C71.6356 58.6623 71.5649 58.7306 71.4415 58.7169C70.9572 58.6691 70.4855 58.7887 70.0048 58.8109C69.1359 58.8519 68.2687 58.9185 67.4035 58.9902C66.1808 59.091 64.9599 59.2055 63.7373 59.3182C62.9028 59.3951 62.072 59.4993 61.2357 59.5488C60.4212 59.5984 59.594 59.7692 58.8067 59.378C58.5818 59.267 58.3333 59.1986 58.0902 59.1235C55.8372 58.418 53.5823 57.7142 51.3275 57.0155C51.2277 56.9848 51.1678 56.9489 51.1533 56.8515C52.9401 56.679 54.7252 56.503 56.512 56.3339C58.3732 56.158 60.2362 55.9906 62.0992 55.8198C62.2516 55.8061 62.3985 55.7736 62.5001 55.6506C62.7232 55.8744 63.0189 55.8915 63.3164 55.9069C63.4108 55.9513 63.4997 56.0059 63.5976 56.0367C65.6184 56.6482 67.6375 57.27 69.6656 57.8628C70.3077 58.0507 70.9209 58.3445 71.6102 58.3821H71.6084Z" fill="#908383"/>
<path d="M44.3268 53.6213C43.7209 53.6179 43.1132 53.6128 42.5073 53.6094C41.3336 53.6025 40.1581 53.6042 38.9845 53.5855C38.7142 53.582 38.6035 53.6487 38.6144 53.9169C38.6235 54.1235 38.6652 54.3422 38.5582 54.5438C38.5255 54.484 38.4802 54.4259 38.4638 54.3627C38.3876 54.0911 38.647 53.6999 38.3114 53.5547C38.0375 53.4368 37.662 53.5308 37.3337 53.512C37.0706 53.4983 37.0126 53.6111 36.9963 53.8383C36.9799 54.0723 37.1323 54.3456 36.8675 54.5404C36.862 54.3149 36.8384 54.086 36.8548 53.8622C36.8729 53.6111 36.7913 53.5103 36.5065 53.5086C35.9351 53.5052 35.3636 53.4625 34.7922 53.4403C33.0163 53.3702 31.2458 53.2523 29.4753 53.1037C28.7878 53.0457 28.1075 52.8902 27.4109 52.9346C27.1207 52.839 26.8195 52.6101 26.5746 53.0012C26.5039 52.7792 26.3207 52.7194 26.1012 52.6903C25.517 52.6152 24.942 52.5007 24.3778 52.3436C23.3819 52.0651 23.3402 52.0053 23.3946 51.0351C23.469 51.0436 23.5543 51.0316 23.6178 51.0607C24.4794 51.4672 25.4155 51.5885 26.3515 51.7354C28.561 52.0788 30.7905 52.2257 33.0163 52.3948C34.2607 52.4888 35.5106 52.4888 36.7568 52.5622C38.0956 52.6425 39.4398 52.6032 40.7803 52.6323C42.9209 52.6784 45.0633 52.7177 47.2075 52.5878C48.5898 52.5041 49.9793 52.5503 51.3671 52.5024C52.7657 52.4546 54.1607 52.3555 55.5593 52.2974C55.9602 52.2804 56.3684 52.2564 56.7711 52.2137C57.7543 52.1095 58.7375 52.007 59.7171 51.8858C60.8182 51.7491 61.9211 51.6278 62.9823 51.2947C63.2653 51.2059 63.5066 50.9992 63.8313 51.0265C63.8259 51.375 63.8059 51.7235 63.7188 52.0634C63.4086 52.007 63.1728 52.2889 62.8608 52.2325C62.7647 52.2308 62.6866 52.2547 62.6649 52.3572C62.6032 52.3692 62.5433 52.3794 62.4817 52.3914C62.3746 52.2787 62.3311 52.3453 62.3021 52.4478C60.5969 52.839 58.8554 53.0047 57.1139 53.1499C54.7248 53.348 52.3303 53.4761 49.9322 53.524C49.7326 53.5274 49.573 53.5513 49.5313 53.7665C49.4206 53.5615 49.2501 53.5052 49.0052 53.5017C48.6025 53.4966 48.2143 53.5667 47.8206 53.6196H44.325L44.3268 53.6213Z" fill="#847A7A"/>
<path d="M47.8228 53.623C48.2164 53.5701 48.6046 53.5 49.0073 53.5051C49.2522 53.5086 49.4246 53.5649 49.5334 53.7699C49.6187 54.0518 49.6078 54.3388 49.6023 54.6258C49.4899 54.7778 49.4536 54.923 49.635 55.0562C49.7348 56.1341 49.742 57.212 49.6386 58.2899C49.4699 58.3924 49.4826 58.5086 49.606 58.635C49.6114 58.8348 49.6168 59.0364 49.5407 59.2277C49.4409 59.2739 49.3992 59.3268 49.5134 59.402C49.3393 60.7771 48.9602 62.0771 47.9788 63.1652C46.8885 64.3729 46.0251 65.7241 45.1888 67.0942C44.7643 67.0651 44.8949 66.6278 44.65 66.4331C44.4559 66.2793 44.309 66.0658 44.0532 65.9667C43.9117 65.9121 43.7666 65.8437 43.8573 65.6524C44.1548 65.8557 44.1475 65.5397 44.2092 65.4406C44.8985 64.32 45.6604 63.2455 46.5457 62.2581C47.1588 61.5731 47.5271 60.801 47.7139 59.9418C48.1674 57.8424 48.0096 55.7327 47.821 53.6247L47.8228 53.623Z" fill="#6F6767"/>
<path d="M51.1539 56.8533C51.1684 56.9489 51.2283 56.9865 51.328 57.0173C53.5829 57.7159 55.8377 58.4197 58.0908 59.1252C58.3339 59.2004 58.5824 59.2687 58.8073 59.3798C59.5928 59.7709 60.4218 59.6001 61.2363 59.5506C62.0726 59.4993 62.9034 59.3951 63.7379 59.32C64.9587 59.2089 66.1814 59.0945 67.404 58.992C68.2693 58.9202 69.1364 58.8536 70.0054 58.8126C70.4861 58.7904 70.9577 58.6691 71.4421 58.7187C71.5672 58.7306 71.638 58.664 71.6543 58.5478H71.6979L71.7414 58.5444C72.3727 58.5137 72.155 58.9595 72.1913 59.2585C72.2384 59.6309 71.9536 59.5591 71.7196 59.5796C70.5133 59.6838 69.3088 59.829 68.0988 59.8956C66.9904 59.9554 65.8929 60.1058 64.7882 60.1826C63.6853 60.2595 62.5878 60.4081 61.4848 60.4952C60.859 60.5448 60.2277 60.5465 59.6146 60.6917C59.5874 60.5038 59.406 60.5055 59.2753 60.4576C58.7692 60.2749 58.2613 60.0989 57.7497 59.9264C55.9811 59.3268 54.2106 58.7289 52.4401 58.131C52.0446 57.9841 51.6491 57.8372 51.2519 57.692C51.143 57.6527 51.0287 57.5946 50.9417 57.7296C50.7802 57.5144 50.8328 57.2667 50.831 57.0292C50.9253 57.0104 50.9652 56.9489 50.9725 56.8652L51.1521 56.8567L51.1539 56.8533Z" fill="#847A7A"/>
<path d="M62.8646 52.2358C63.1766 52.2922 63.4125 52.0103 63.7227 52.0667C63.5866 53.3462 63.4524 54.6273 63.3163 55.9068C63.0188 55.8914 62.7231 55.8744 62.5 55.6506C62.5181 55.4832 62.5363 55.3158 62.5544 55.1466C62.7122 55.0442 62.7032 54.9246 62.5943 54.7948C62.6107 54.6273 62.6288 54.4599 62.6451 54.2925C62.8229 54.1644 62.7848 54.0141 62.6941 53.8586C62.7104 53.7186 62.7249 53.5785 62.7413 53.4384C62.9045 53.3103 62.881 53.1617 62.7921 53.0062C62.8102 52.8081 62.8283 52.6099 62.8465 52.4101C62.8519 52.3503 62.8592 52.2922 62.8646 52.2324V52.2358Z" fill="#665E5E"/>
<path d="M62.112 74.484C62.1265 74.5386 62.1356 74.595 62.1556 74.648C62.2444 74.8837 62.1809 75.2629 62.571 75.2527C62.8594 75.2441 62.9973 74.9435 63.1478 74.7248C63.2367 74.5967 63.2784 74.4293 63.4907 74.4344C63.3964 74.7061 63.2113 74.9298 63.0408 75.1553C62.814 75.4543 62.4549 75.5123 62.1809 75.3244C61.8871 75.1229 61.8635 74.8325 62.1138 74.484H62.112Z" fill="#6F6767"/>
<path d="M68.1909 69.2277C68.9401 69.5625 69.439 70.1245 69.8199 70.7975C69.2285 70.3175 68.6988 69.7828 68.1909 69.2277Z" fill="#6F6767"/>
<path d="M70.7541 70.1586C70.1482 69.9041 69.702 69.5027 69.4644 68.9082C69.9342 69.2891 70.3732 69.6957 70.7541 70.1586Z" fill="#6F6767"/>
<path d="M73.2852 73.9954C73.7532 73.7545 73.7749 73.3719 73.6588 72.9465C73.9636 73.1242 74.1015 73.377 73.9545 73.6947C73.8348 73.9527 73.6226 74.1201 73.2852 73.9954Z" fill="#6F6767"/>
<path d="M63.9277 65.1314C64.3305 65.0682 64.3812 65.4423 64.5917 65.6148C64.842 65.8215 65.1486 65.9975 65.1976 66.3545C64.7259 65.9923 64.3159 65.5721 63.9295 65.1314H63.9277Z" fill="#6F6767"/>
<path d="M72.3667 73.2402C72.8383 73.2505 72.9418 73.6126 73.0996 73.9235C72.7821 73.7664 72.5862 73.4913 72.3667 73.2402Z" fill="#6F6767"/>
<path d="M63.3003 72.7159C63.2677 73.061 63.1335 73.3463 62.7725 73.4932C62.8976 73.2045 63.0772 72.9466 63.3003 72.7159Z" fill="#6F6767"/>
<path d="M63.7395 72.0753C63.7068 72.3606 63.6615 72.6356 63.2969 72.7193C63.3912 72.4733 63.5327 72.2547 63.7395 72.0753Z" fill="#6F6767"/>
<path d="M73.736 49.5009C73.4694 49.2959 73.4494 49.1199 73.8032 48.9867C73.8267 49.1626 73.8231 49.3369 73.736 49.5009Z" fill="#6F6767"/>
<path d="M72.6515 60.8677C72.6787 60.6644 72.559 60.4406 72.744 60.2578C72.9055 60.4867 72.8529 60.6866 72.6515 60.8677Z" fill="#6F6767"/>
<path d="M72.7358 58.7222C72.6318 58.536 72.5279 58.3498 72.8069 58.2097C72.8251 58.3857 72.8306 58.5599 72.7358 58.7222Z" fill="#6F6767"/>
<path d="M65.3803 69.6274C65.3803 69.8768 65.3513 70.1092 65.0229 70.1621C65.0937 69.9554 65.2171 69.7795 65.3803 69.6274Z" fill="#6F6767"/>
<path d="M73.4468 52.1419C73.3629 51.9591 73.2626 51.7729 73.5216 51.6345C73.5344 51.8088 73.5654 51.9847 73.4468 52.1419Z" fill="#6F6767"/>
<path d="M72.694 59.6633C72.477 59.4857 72.4624 59.3132 72.7067 59.1475C72.7031 59.32 72.6976 59.4908 72.694 59.6633Z" fill="#6F6767"/>
<path d="M73.6398 50.3534C73.5382 50.1672 73.433 49.9793 73.7142 49.8409C73.725 50.0169 73.7432 50.1928 73.6398 50.3534Z" fill="#6F6767"/>
<path d="M71.5644 62.4819C71.4393 62.212 71.637 62.1317 71.8456 62.0582C71.7948 62.2239 71.7059 62.3691 71.5644 62.4819Z" fill="#6F6767"/>
<path d="M49.6355 55.0561C49.4531 54.9246 49.4896 54.7776 49.6027 54.6256C49.7066 54.7623 49.6866 54.9075 49.6355 55.0561Z" fill="#847A7A"/>
<path d="M62.6947 53.8605C62.7858 54.0159 62.8241 54.1662 62.6454 54.2944C62.5925 54.1423 62.5907 53.9954 62.6947 53.8605Z" fill="#908383"/>
<path d="M72.9439 56.7625C72.6046 56.6037 72.8241 56.5114 72.991 56.4158C73.0164 56.5371 73.0255 56.6549 72.9439 56.7625Z" fill="#6F6767"/>
<path d="M62.7926 53.0079C62.8802 53.1634 62.9039 53.312 62.7416 53.4401C62.6832 53.2881 62.6723 53.1412 62.7926 53.0079Z" fill="#908383"/>
<path d="M73.5481 51.2076C73.4278 51.0453 73.3712 50.8933 73.6138 50.7805C73.6283 50.9274 73.6502 51.076 73.5481 51.2076Z" fill="#6F6767"/>
<path d="M73.9433 47.5416C73.8562 47.5297 73.7492 47.5314 73.751 47.4135C73.7528 47.2683 73.8798 47.2871 73.9814 47.2786C74.0122 47.3708 74.0068 47.4596 73.9433 47.5416Z" fill="#6F6767"/>
<path d="M49.6071 58.635C49.4849 58.5086 49.4722 58.3907 49.6399 58.2899C49.6873 58.4095 49.7019 58.5274 49.6071 58.635Z" fill="#847A7A"/>
<path d="M62.5948 54.7983C62.7042 54.9282 62.7133 55.0477 62.5547 55.1502C62.4981 55.0255 62.5054 54.9094 62.5948 54.7983Z" fill="#908383"/>
<path d="M64.9363 72.2972C64.802 72.094 64.958 72.0666 65.1122 72.0393C65.0959 72.1503 65.0397 72.2375 64.9363 72.2972Z" fill="#6F6767"/>
<path d="M71.1111 70.502C70.9007 70.5259 70.81 70.437 70.8372 70.2389C70.9624 70.2953 71.0549 70.3824 71.1111 70.502Z" fill="#6F6767"/>
<path d="M73.2527 53.9423C73.1798 53.9269 73.1141 53.903 73.1123 53.8193C73.1123 53.7134 73.1925 53.6929 73.2819 53.6843C73.3111 53.7749 73.302 53.8603 73.2509 53.9423H73.2527Z" fill="#6F6767"/>
<path d="M68.5665 66.9199C68.5611 66.7969 68.5593 66.6739 68.7416 66.6603C68.7289 66.7747 68.6741 66.8619 68.5665 66.9199Z" fill="#6F6767"/>
<path d="M70.1113 64.6223C70.1041 64.4925 70.1004 64.3661 70.2937 64.3575C70.2773 64.472 70.2171 64.5608 70.1113 64.6223Z" fill="#6F6767"/>
<path d="M70.9258 63.4247C70.9203 63.3 70.913 63.1736 71.1009 63.1616C71.0881 63.2761 71.0243 63.3598 70.9258 63.4247Z" fill="#6F6767"/>
<path d="M66.2953 68.278C66.3026 68.4061 66.3044 68.5308 66.1147 68.541C66.133 68.4283 66.1877 68.3377 66.2953 68.278Z" fill="#6F6767"/>
<path d="M66.8413 69.4771C66.8413 69.3558 66.8395 69.2345 67.0164 69.2225C67 69.3336 66.9471 69.4224 66.8413 69.4771Z" fill="#6F6767"/>
<path d="M66.1284 70.5294C66.1139 70.3911 66.1067 70.2578 66.3135 70.2493C66.2935 70.3671 66.2336 70.4611 66.1284 70.5294Z" fill="#6F6767"/>
<path d="M70.4712 64.1012C70.4676 63.9799 70.4639 63.8569 70.6445 63.8416C70.6335 63.9543 70.5788 64.0431 70.4712 64.1012Z" fill="#6F6767"/>
<path d="M72.0353 61.7627C72.0098 61.6363 72.0462 61.5492 72.2012 61.5406C72.1848 61.6397 72.1319 61.7149 72.0353 61.7627Z" fill="#6F6767"/>
<path d="M49.5154 59.4037C49.4005 59.3286 49.4407 59.2739 49.5428 59.2295C49.5847 59.2944 49.5793 59.3542 49.5154 59.4037Z" fill="#847A7A"/>
<path d="M70.3095 64.3216C70.2858 64.1969 70.3205 64.1114 70.4718 64.1012C70.4591 64.202 70.4044 64.2754 70.3095 64.3216Z" fill="#6F6767"/>
<path d="M72.4563 61.1955C72.3287 61.0674 72.4345 61.0452 72.5439 61.0247C72.5475 61.0964 72.5293 61.1596 72.4563 61.1955Z" fill="#6F6767"/>
<path d="M66.5537 67.8953C66.5774 68.0148 66.5464 68.0985 66.4023 68.1173C66.406 68.0148 66.4662 67.9465 66.5537 67.8953Z" fill="#6F6767"/>
<path d="M73.1618 54.7964C73.1034 54.7862 73.0396 54.7708 73.0487 54.7008C73.0578 54.6342 73.1253 54.629 73.1837 54.6239C73.1764 54.682 73.1691 54.7384 73.1636 54.7964H73.1618Z" fill="#6F6767"/>
<path d="M73.3448 53.0883C73.2846 53.0781 73.2208 53.0644 73.2299 52.9944C73.239 52.9277 73.3065 52.9226 73.3648 52.9158C73.3575 52.9739 73.3521 53.0302 73.3448 53.0883V53.0883Z" fill="#6F6767"/>
<path d="M67.1937 68.9627C67.0715 68.8209 67.1882 68.8107 67.2977 68.7953C67.2977 68.8705 67.2557 68.9217 67.1937 68.9627Z" fill="#6F6767"/>
<path d="M66.7291 69.6426C66.6197 69.5008 66.7364 69.494 66.8385 69.4769C66.8349 69.5521 66.8057 69.6102 66.7291 69.6426Z" fill="#6F6767"/>
<path d="M62.3062 52.4511C62.3372 52.3486 62.3791 52.2819 62.4867 52.3947C62.4393 52.4476 62.3791 52.4698 62.3062 52.4511Z" fill="#908383"/>
<path d="M74.3466 43.8672C74.2865 43.8587 74.2208 43.845 74.2281 43.7733C74.2354 43.705 74.3047 43.6998 74.3649 43.6947C74.3594 43.7528 74.3521 43.8092 74.3466 43.8672Z" fill="#6F6767"/>
<path d="M50.9751 56.8616C50.966 56.9453 50.9259 57.0068 50.8329 57.0256C50.78 56.894 50.831 56.8411 50.9751 56.8616Z" fill="#908383"/>
<path d="M64.8302 70.4592C64.8521 70.5788 64.8192 70.6642 64.6733 70.6762C64.6843 70.5771 64.739 70.5054 64.8302 70.4592Z" fill="#6F6767"/>
<path d="M64.6486 70.7155C64.6723 70.8316 64.6394 70.917 64.499 70.9358C64.499 70.8333 64.561 70.7667 64.6486 70.7155Z" fill="#6F6767"/>
<path d="M65.589 71.3169C65.5672 71.1991 65.6018 71.1153 65.7422 71.0983C65.7386 71.2008 65.682 71.2691 65.589 71.3169Z" fill="#6F6767"/>
<path d="M65.4116 71.5782C65.3897 71.4569 65.4207 71.3715 65.5702 71.3595C65.5593 71.4586 65.5064 71.532 65.4116 71.5782Z" fill="#6F6767"/>
<path d="M72.8443 57.6972C72.7805 57.6852 72.6857 57.6972 72.6984 57.6049C72.7094 57.5195 72.8006 57.54 72.8662 57.5332C72.8589 57.5879 72.8516 57.6425 72.8443 57.6972V57.6972Z" fill="#6F6767"/>
<path d="M62.8649 52.2359C62.8594 52.2957 62.8522 52.3538 62.8467 52.4136C62.7869 52.3965 62.7288 52.3777 62.6689 52.3606C62.6907 52.2581 62.7687 52.2342 62.8649 52.2359V52.2359Z" fill="#908383"/>
<path d="M74.252 44.7214C74.1918 44.7111 74.128 44.6957 74.1371 44.6257C74.1462 44.5591 74.2137 44.554 74.2721 44.5488C74.2648 44.6069 74.2575 44.6633 74.252 44.7214V44.7214Z" fill="#6F6767"/>
<path d="M72.7359 60.0015C72.6447 59.9451 72.6447 59.8888 72.7359 59.8324C72.7979 59.8888 72.7979 59.9451 72.7359 60.0015Z" fill="#6F6767"/>
<path d="M62.7459 73.5375C62.7677 73.6536 62.7349 73.7356 62.5981 73.7544C62.5981 73.6536 62.6583 73.5853 62.7459 73.5375Z" fill="#6F6767"/>
<path d="M63.8689 73.8791C63.8452 73.7629 63.878 73.6792 64.0184 73.6587C64.0184 73.7612 63.9582 73.8278 63.8689 73.8791Z" fill="#6F6767"/>
<path d="M63.686 74.1371C63.6641 74.0192 63.6951 73.9338 63.841 73.9202C63.8337 74.021 63.7772 74.0893 63.686 74.1371Z" fill="#6F6767"/>
<path d="M63.5075 74.3969C63.4837 74.2739 63.5166 74.1885 63.6679 74.1765C63.657 74.2773 63.6023 74.3508 63.5075 74.3969Z" fill="#6F6767"/>
<path d="M74.1592 45.5755C74.099 45.5652 74.0352 45.5499 74.0462 45.4798C74.0553 45.4132 74.1227 45.4081 74.1811 45.403C74.1738 45.461 74.1665 45.5174 74.1592 45.5755V45.5755Z" fill="#6F6767"/>
<path d="M63.8358 51.0299C63.5111 51.0026 63.2699 51.2093 62.9869 51.2981C61.9257 51.6312 60.8209 51.7542 59.7216 51.8892C58.7402 52.0105 57.757 52.113 56.7756 52.2172C56.3729 52.2599 55.9647 52.2838 55.5638 52.3009C54.1652 52.359 52.7702 52.458 51.3716 52.5059C49.9839 52.5537 48.5943 52.5059 47.212 52.5913C45.0678 52.7211 42.9236 52.6818 40.7849 52.6357C39.4443 52.6066 38.1001 52.6442 36.7614 52.5656C35.5151 52.4922 34.2652 52.4922 33.0208 52.3982C30.795 52.2291 28.5655 52.0839 26.356 51.7389C25.4182 51.5937 24.484 51.4724 23.6223 51.0641C23.5588 51.0351 23.4754 51.0453 23.3992 51.0385C23.3157 50.7122 23.4917 50.5414 23.7892 50.4133C24.5257 50.0973 25.3148 49.9794 26.1003 49.8376C26.396 49.8496 26.6717 49.771 26.9438 49.6719C28.2191 49.5643 29.4943 49.455 30.7696 49.349C31.2358 49.3098 31.702 49.2722 32.1682 49.2431C32.2934 49.2346 32.4966 49.1936 32.473 49.3883C32.4077 49.9128 32.7959 50.1058 33.1877 50.3057C33.0916 50.4594 32.921 50.4423 32.7886 50.497C32.6653 50.5482 32.5056 50.567 32.4984 50.7242C32.4911 50.9018 32.6544 50.9633 32.7977 50.9975C33.1043 51.0675 33.4163 51.1495 33.7283 51.1649C34.9782 51.2247 36.2317 51.2759 37.4725 51.0419C37.5904 51.0197 37.7192 51.0009 37.8135 50.9394C38.0257 50.8028 38.062 50.6251 37.7827 50.538C37.4997 50.4491 37.1967 50.3825 36.8992 50.3689C36.5292 50.3501 36.531 50.239 36.7178 49.9982C36.8521 49.8239 36.9446 49.6138 36.9282 49.4003C36.901 49.033 37.1096 48.9886 37.4271 48.992C38.3722 48.9989 38.2307 48.8929 38.2162 49.7231C38.209 50.0973 38.3269 50.2783 38.7241 50.3039C39.5223 50.3552 40.3205 50.3842 41.1169 50.2817C41.3871 50.2476 41.4851 50.1656 41.4615 49.8735C41.3871 48.9152 41.4071 48.9152 42.4048 48.9083C43.1141 48.9049 43.8234 48.8998 44.5327 48.8964L44.5182 49.2722C44.2987 49.3217 44.0755 49.361 43.8615 49.4259C43.6801 49.4789 43.4606 49.5199 43.4606 49.7641C43.4606 49.993 43.6619 50.0614 43.8397 50.1382C44.1028 50.2527 44.3821 50.3022 44.6669 50.3381C46.3014 50.5465 47.9413 50.5141 49.5793 50.4013C50.1163 50.3637 50.6623 50.3176 51.1702 50.1177C51.3444 50.0494 51.4986 49.964 51.495 49.7556C51.4913 49.5557 51.3244 49.4994 51.1702 49.4498C50.9145 49.3695 50.6587 49.2824 50.3811 49.2927L50.3576 48.9715C51.5113 49.1116 52.6759 49.0894 53.8332 49.1611C56.6033 49.3337 59.3697 49.5216 62.0998 50.0204C62.4318 50.0802 62.7456 50.2852 63.1066 50.1639C63.2789 50.4594 63.5565 50.5892 63.903 50.608C63.9556 50.7583 63.9265 50.8984 63.8377 51.0317L63.8358 51.0299Z" fill="#908383"/>
<path d="M73.1161 43.9542C73.1125 44.1524 73.1089 44.3505 73.1053 44.5487C73.0109 44.6033 73.0091 44.6597 73.0998 44.7195C72.9456 44.9877 73.1216 45.3242 72.8985 45.5787C72.5139 45.6061 72.1565 45.478 71.7901 45.4096C69.4137 44.9569 67.0391 44.494 64.6646 44.0328C64.8169 42.6098 64.9711 41.1852 65.1235 39.7622C66.6709 40.0014 68.2164 40.2388 69.7638 40.478C70.9973 40.6693 72.2327 40.8623 73.4663 41.0536C73.3755 41.9624 73.2848 42.8729 73.1941 43.7817C73.1198 43.821 73.1034 43.8825 73.1161 43.9559V43.9542Z" fill="#908383"/>
<path d="M65.1229 39.7624C64.9705 41.1854 64.8163 42.61 64.6639 44.033C64.5079 44.6377 64.4862 45.2578 64.4336 45.8745L64.1161 48.9818C63.9964 49.2551 64.0562 49.5523 63.9837 49.8325C63.8041 49.8888 63.7914 49.9794 63.9256 50.0972C63.9166 50.2681 63.9075 50.4372 63.8984 50.608C63.5519 50.5875 63.2744 50.4594 63.1021 50.1639C63.3687 47.6374 63.6354 45.1092 63.902 42.5827C64.0091 41.5663 64.1179 40.5499 64.2268 39.5318C64.2376 39.4327 64.2485 39.3336 64.2721 39.238C64.3193 39.0347 64.4463 38.9117 64.6748 38.9015C64.9125 38.8912 64.9959 39.0159 65.0685 39.2209C65.1356 39.4088 65.0612 39.5882 65.1211 39.7641L65.1229 39.7624Z" fill="#665E5E"/>
<path d="M38.9375 48.8585C39.1353 48.5527 39.0192 48.2794 39.0754 48.0317C39.1207 47.8318 39.0446 47.5602 39.4291 47.5449C39.8264 47.5295 39.7738 47.837 39.7974 48.0129C39.8482 48.3682 39.8119 48.7338 39.8681 49.0959C40.0568 48.6843 39.9425 48.2504 40.006 47.8284C40.0423 47.5978 40.1312 47.55 40.347 47.5568C40.5357 47.5619 40.621 47.6183 40.6228 47.8028C40.6264 48.1991 40.6463 48.5971 40.6554 48.9935C40.659 49.1404 40.6554 49.289 40.7135 49.4359C40.8713 49.1062 40.7915 48.7611 40.8169 48.4246C40.8278 48.2692 40.8187 48.1103 40.8513 47.96C40.8767 47.8387 40.9928 47.7738 41.1253 47.7823C41.274 47.7909 41.2631 47.9087 41.2649 48.0061C41.2667 48.5749 41.2631 49.1421 41.2704 49.7109C41.2722 49.8903 41.1615 49.962 41.0092 50.0098C40.2382 50.2524 39.469 50.2251 38.6981 50.0064C38.4949 49.9484 38.4133 49.8373 38.4187 49.634C38.4314 49.1096 38.4187 48.5835 38.4278 48.0573C38.4278 47.9463 38.377 47.7669 38.6092 47.7994C38.7579 47.8199 38.8976 47.8558 38.9121 48.0505C38.9303 48.2931 38.8051 48.5425 38.9375 48.8551V48.8585Z" fill="#908383"/>
<path d="M48.4193 47.7174C48.3305 47.6678 48.2434 47.6183 48.1545 47.5671C48.247 47.1588 48.1944 46.7915 47.8207 46.5233L47.6085 46.9196C47.8153 46.9538 48.0856 46.9128 48.0584 47.2152C48.0366 47.4543 47.8534 47.5414 47.6121 47.538C47.5087 47.5363 47.3944 47.5192 47.3527 47.649C47.077 47.7669 46.9336 48.0505 46.6434 48.1496C46.5273 48.1888 46.4112 48.3392 46.2897 48.2179C46.2044 48.1325 46.2661 48.0027 46.3278 47.9019C46.3568 47.854 46.3804 47.8045 46.4439 47.6883C45.9813 47.8984 45.6656 47.8233 45.477 47.4116C45.4026 47.2476 45.2012 47.2579 45.0507 47.2015C44.9437 47.1605 44.7858 47.169 44.7713 47.029C44.7586 46.9025 44.8983 46.8479 44.989 46.7796C45.0579 46.7266 45.1505 46.6497 45.2212 46.6583C45.7926 46.7369 46.1935 46.1646 46.7976 46.3166C46.9627 46.3576 47.1495 46.1663 47.2765 45.9869C47.5341 45.6214 47.8008 45.6692 48.0983 45.9801C48.4393 46.3371 48.7695 46.7454 49.3499 46.8103C49.5713 46.8342 49.7817 46.9179 49.9504 47.0853C49.8379 47.2305 49.6855 47.2664 49.5168 47.263C49.4261 46.8633 49.1087 47.374 48.9763 47.1434C48.9763 47.497 48.6388 47.5568 48.4157 47.7157L48.4193 47.7174Z" fill="#908383"/>
<path d="M44.5138 49.2721L44.5284 48.8963C44.5664 48.6349 44.7315 48.6845 44.8694 48.7955C45.0163 48.9134 45.1306 49.0671 45.2594 49.2055C45.6186 49.5881 45.7655 49.5915 46.132 49.2328C46.2154 49.1508 46.2934 49.0654 46.3732 48.98C46.502 48.8416 46.5964 48.8177 46.7741 48.9663C47.3347 49.4395 47.848 49.4122 48.3269 48.898C48.5029 48.7084 48.6952 48.664 48.9274 48.7408C49.2829 48.8587 49.6149 48.8792 49.965 48.6913C50.2498 48.5375 50.3841 48.6759 50.3532 48.968C50.3605 49.0756 50.3696 49.1815 50.3768 49.2892C50.3895 49.5608 50.2535 49.7043 49.9668 49.747C48.2979 49.9998 46.6308 49.9998 44.9619 49.747C44.6735 49.7026 44.4866 49.5779 44.5157 49.2721H44.5138Z" fill="#6F6767"/>
<path d="M33.6391 49.8015C33.6754 50.003 33.5521 50.0304 33.4269 50.0116C33.1203 49.9654 32.8065 49.8766 32.7738 49.5367C32.7521 49.3026 32.9226 49.1506 33.2056 49.1592C33.7153 49.1762 33.4287 49.646 33.6391 49.7997V49.8015Z" fill="#908383"/>
<path d="M47.3545 47.6492C47.3962 47.5193 47.5105 47.5364 47.6139 47.5381C47.8552 47.5415 48.0366 47.4544 48.0602 47.2153C48.0892 46.9129 47.8171 46.9539 47.6103 46.9197L47.8225 46.5234C48.1962 46.7916 48.2488 47.1589 48.1563 47.5672C47.9187 47.8439 47.6556 47.9105 47.3545 47.6492V47.6492Z" fill="#847A7A"/>
<path d="M48.4194 47.7176C48.6426 47.5587 48.98 47.4972 48.98 47.1453C49.1124 47.3776 49.4299 46.8652 49.5206 47.2649C49.2212 47.5604 48.9509 47.9226 48.4194 47.7176Z" fill="#847A7A"/>
<path d="M73.9177 40.6387C73.8977 40.8368 73.7599 40.8864 73.5767 40.8812C73.6329 40.7292 73.7472 40.6489 73.9177 40.6387Z" fill="#6F6767"/>
<path d="M38.5591 54.5421C38.541 55.0511 38.5228 55.5602 38.5047 56.0692C38.2888 56.1973 38.3269 56.3477 38.4666 56.5031C38.4666 56.609 38.4684 56.7149 38.4702 56.8225C38.463 57.1727 38.3178 57.61 38.5265 57.8492C38.7079 58.0576 39.0997 57.6801 39.428 57.7006C39.3482 58.1413 38.989 58.3992 38.6788 58.6811C38.5101 58.8348 38.4521 58.9903 38.463 59.2072C38.6008 61.8294 39.7854 63.9527 41.8988 65.6353C41.9677 65.69 42.0493 65.7293 42.1255 65.7771C42.3885 65.9274 42.3559 66.2605 42.5845 66.4365C42.6479 66.486 42.5881 66.5731 42.5319 66.621C42.2108 66.8875 41.9477 67.1813 41.8788 67.5981C41.8661 67.675 41.7663 67.6767 41.6883 67.6732C41.6285 67.3846 41.3382 67.3026 41.1387 67.1488C39.2466 65.6883 37.8335 63.9254 37.1641 61.6773C37.039 61.2571 37.0244 60.8113 36.8249 60.4081C36.9555 60.0614 37.2058 59.6924 36.6235 59.4823C36.834 59.2243 36.707 58.9288 36.7269 58.6504C36.7269 58.389 36.7269 58.1259 36.7269 57.8646C36.7306 57.47 36.736 57.0754 36.7396 56.6791C36.7596 56.5373 36.7814 56.3938 36.8013 56.252C36.9501 56.1734 36.9519 56.0846 36.8213 55.9889L36.8702 54.5421C37.1351 54.3456 36.9827 54.074 36.999 53.84C37.0136 53.6128 37.0734 53.4983 37.3365 53.5137C37.6648 53.5308 38.0403 53.4368 38.3142 53.5564C38.648 53.7016 38.3904 54.0911 38.4666 54.3644C38.4847 54.4276 38.5301 54.4857 38.5609 54.5455L38.5591 54.5421Z" fill="#6F6767"/>
<path d="M36.7251 57.8645C36.7251 58.1259 36.7251 58.3889 36.7269 58.6503C36.6816 58.6503 36.6326 58.6366 36.5927 58.6503C34.6245 59.3285 32.658 60.01 30.6916 60.6899C30.4993 60.6899 30.307 60.6865 30.1148 60.6848C28.513 60.543 26.9112 60.4012 25.3076 60.2577C25.2477 60.1706 25.1878 60.1689 25.1262 60.256C24.8885 60.1911 24.6491 60.1535 24.4005 60.174C24.2808 60.0527 24.1593 60.0545 24.0377 60.1706C23.8291 60.1245 23.6223 60.063 23.4028 60.0886C23.3357 59.9878 23.2305 60.0032 23.1289 60.0083C22.8876 60.0066 22.6464 60.0049 22.4051 60.0032C22.3652 59.9332 22.2981 59.9195 22.2219 59.9246C22.0115 59.9246 21.801 59.9212 21.5906 59.9195C21.4691 59.9451 21.3493 59.7675 21.226 59.9161C21.0446 59.8888 20.8741 59.8051 20.6836 59.8341C20.5929 59.8341 20.5022 59.8341 20.4097 59.8324C20.1992 59.8051 19.987 59.7777 19.7766 59.7487C19.6859 59.7487 19.5934 59.7487 19.5027 59.7487C19.0473 59.7589 18.6047 59.612 18.1476 59.6581C18.1476 59.4754 18.1603 59.2892 18.1403 59.1081C18.1077 58.7852 18.2492 58.6281 18.5938 58.6349C18.6101 58.7528 18.6827 58.8177 18.8079 58.804C19.2922 58.7545 19.7657 58.8758 20.2446 58.898C21.1135 58.9373 21.9806 59.0056 22.8477 59.0791C24.0414 59.1798 25.2332 59.2943 26.425 59.4053C27.2903 59.4856 28.1538 59.6154 29.0191 59.6291C29.6286 59.6376 30.2327 59.8717 30.8513 59.6735C32.132 59.2618 33.4236 58.8775 34.7025 58.459C35.37 58.2403 36.0213 57.9824 36.7215 57.8662L36.7251 57.8645Z" fill="#847A7A"/>
<path d="M24.2186 66.5767C24.0099 66.5476 23.8938 66.6826 23.7542 66.7953C23.1954 67.2463 22.7437 67.1882 22.3356 66.6159C21.4177 65.3245 20.5615 63.9955 19.678 62.6836C19.3497 62.1967 19.025 61.7014 18.673 61.2265C18.5261 61.0283 18.4082 60.8114 18.6077 60.6064C18.7964 60.4116 19.0141 60.2408 19.3479 60.2733C20.2857 60.3638 21.2272 60.4338 22.1669 60.5141C23.4657 60.6235 24.7628 60.7362 26.0616 60.8438C26.5242 60.8814 26.9904 60.9429 27.453 60.9309C27.8756 60.9207 28.2493 61.0642 28.6412 61.153C28.9115 61.2145 28.9931 61.4127 28.9078 61.6501C28.8244 61.8807 28.7137 62.1113 28.4924 62.2463C27.9917 62.5503 27.6924 63.0389 27.2861 63.4267C26.4317 64.2415 25.5845 65.0649 24.7283 65.878C24.5124 66.083 24.1859 66.2094 24.2186 66.5749V66.5767ZM28.5487 61.4742C28.2493 61.4468 27.9936 61.4212 27.7378 61.399C24.955 61.1633 22.1741 60.9258 19.3914 60.6935C19.2626 60.6832 19.0921 60.6183 19.0086 60.7328C18.9179 60.8592 19.0685 60.9651 19.1374 61.0676C20.3492 62.8698 21.5719 64.6651 22.7746 66.4725C22.9832 66.7851 23.1065 66.8209 23.3914 66.5408C24.9641 65.0051 26.5587 63.4882 28.1405 61.961C28.2838 61.8243 28.4616 61.7082 28.5468 61.4707L28.5487 61.4742Z" fill="#6F6767"/>
<path d="M30.7624 61.117C30.7497 61.3152 30.6463 61.4535 30.4522 61.5338C30.0785 61.3442 30.2653 60.9564 30.1147 60.6882C30.307 60.6882 30.4993 60.6916 30.6916 60.6934C30.7152 60.7754 30.737 60.8591 30.7605 60.9411C30.6553 61.0008 30.6571 61.0606 30.7605 61.1187L30.7624 61.117Z" fill="#6F6767"/>
<path d="M21.2251 59.916C21.3485 59.7674 21.4682 59.9451 21.5897 59.9195C21.4646 60.1996 21.3448 60.0869 21.2251 59.916Z" fill="#6F6767"/>
<path d="M24.0371 60.1706C24.1586 60.0544 24.2802 60.0527 24.3999 60.174C24.2784 60.2919 24.1568 60.2936 24.0371 60.1706Z" fill="#6F6767"/>
<path d="M19.5024 59.7485C19.5931 59.7485 19.6857 59.7485 19.7764 59.7485C19.7618 59.8357 19.7365 59.9159 19.6167 59.9006C19.5242 59.8886 19.5151 59.8152 19.5024 59.7468V59.7485Z" fill="#6F6767"/>
<path d="M20.4092 59.8324C20.4999 59.8324 20.5906 59.8324 20.6831 59.8341C20.6686 59.9212 20.645 60.0015 20.5235 59.9861C20.4309 59.9742 20.4219 59.9007 20.4092 59.8324V59.8324Z" fill="#6F6767"/>
<path d="M23.1279 60.0099C23.2295 60.0048 23.3347 59.9894 23.4018 60.0902C23.2567 60.2269 23.1697 60.1859 23.1279 60.0099Z" fill="#6F6767"/>
<path d="M25.1255 60.2576C25.1875 60.1722 25.2477 60.1722 25.3079 60.2593C25.2458 60.3464 25.1857 60.3447 25.1255 60.2576Z" fill="#6F6767"/>
<path d="M22.2212 59.9247C22.2978 59.9196 22.3653 59.935 22.4054 60.0033C22.2686 60.1331 22.2431 60.0306 22.2212 59.9247Z" fill="#6F6767"/>
<path d="M72.4319 50.825C69.8233 50.2425 67.2129 49.6617 64.6043 49.0809C64.4429 49.045 64.2814 49.0142 64.1182 48.9818C64.2234 47.9466 64.3304 46.9114 64.4356 45.8745C67.1984 46.4809 69.9594 47.0874 72.7221 47.6938C72.655 48.4317 72.5897 49.168 72.5226 49.9059C72.4954 50.2134 72.4627 50.5192 72.4337 50.825H72.4319Z" fill="#908383"/>
<path d="M65.2229 64.8409C65.7181 65.2355 66.1643 65.678 66.5798 66.1477C66.4927 66.1358 66.3766 66.1512 66.3204 66.105C65.9521 65.7976 65.6727 65.4047 65.2737 65.1245C65.183 65.0613 65.2138 64.9417 65.2229 64.8426V64.8409Z" fill="#6F6767"/>
<path d="M68.3866 60.7771C68.1816 60.8676 67.9657 60.8591 67.748 60.8403C67.9349 60.5806 68.158 60.6541 68.3866 60.7771Z" fill="#6F6767"/>
<path d="M69.3844 60.6934C69.2411 60.7737 69.0851 60.7685 68.9272 60.7463C69.0597 60.5755 69.1867 60.3637 69.3844 60.6934Z" fill="#6F6767"/>
<path d="M70.4713 60.6012C70.299 60.6986 70.1121 60.6798 69.9253 60.6644C70.0759 60.4031 70.2718 60.497 70.4713 60.6012Z" fill="#6F6767"/>
<path d="M71.7609 57.0155C71.7463 56.8396 71.7354 56.6653 71.8339 56.5031C71.936 56.6892 72.0399 56.8772 71.7609 57.0155Z" fill="#6F6767"/>
<path d="M70.0972 62.6441C70.1679 62.4374 70.284 62.258 70.46 62.1162C70.4763 62.3759 70.3838 62.5689 70.0972 62.6441Z" fill="#6F6767"/>
<path d="M71.6737 57.8696C71.6482 57.6937 71.6573 57.5212 71.7394 57.3555C71.8488 57.5417 71.9473 57.7262 71.6737 57.8696Z" fill="#6F6767"/>
<path d="M71.9571 55.2237C71.9425 55.0768 71.9134 54.9282 72.0228 54.7983C72.1377 54.9589 72.1942 55.1109 71.9571 55.2237Z" fill="#6F6767"/>
<path d="M71.8619 56.0777C71.8455 55.9308 71.8291 55.7822 71.9294 55.6506C72.0461 55.8112 72.1045 55.9649 71.8619 56.0777Z" fill="#6F6767"/>
<path d="M64.8513 61.0759C64.7334 61.1306 64.6118 61.1391 64.4849 61.1101C64.4957 60.9563 64.6119 60.8948 64.7443 60.8897C64.864 60.8863 64.8386 61.0008 64.8513 61.0759Z" fill="#6F6767"/>
<path d="M72.2868 52.3194C72.2578 52.1999 72.2651 52.0837 72.3285 51.9744C72.4084 51.9863 72.5299 51.9624 72.5226 52.0769C72.5154 52.2016 72.4483 52.3109 72.2868 52.3194Z" fill="#6F6767"/>
<path d="M72.728 47.7022C72.7679 47.5621 72.6772 47.3981 72.8115 47.2751C72.9439 47.446 73.04 47.61 72.728 47.7022Z" fill="#6F6767"/>
<path d="M71.3709 60.6147L71.0117 60.5737C71.1605 60.3602 71.282 60.3585 71.3709 60.6147Z" fill="#6F6767"/>
<path d="M63.7606 61.1697C63.6427 61.2227 63.523 61.2312 63.396 61.2005C63.494 60.9596 63.6173 60.9579 63.7606 61.1697Z" fill="#6F6767"/>
<path d="M62.4026 62.1317C62.5278 62.1864 62.6185 62.2735 62.6765 62.3931C62.4679 62.4153 62.379 62.3265 62.4026 62.1317Z" fill="#6F6767"/>
<path d="M59.5743 61.0316C59.4904 60.9394 59.5031 60.854 59.5943 60.772C59.711 60.8659 59.7037 60.953 59.5743 61.0316Z" fill="#6F6767"/>
<path d="M72.102 54.026C72.0728 53.9372 72.082 53.8501 72.1312 53.7681C72.2041 53.7834 72.2698 53.8056 72.2716 53.8894C72.2716 53.9953 72.1932 54.0175 72.102 54.0243V54.026Z" fill="#6F6767"/>
<path d="M68.0186 65.7223C68.0386 65.6096 68.0915 65.5173 68.1991 65.4575C68.2082 65.5873 68.2119 65.7138 68.0186 65.7223Z" fill="#6F6767"/>
<path d="M69.9219 62.9037C69.9401 62.7909 69.993 62.6987 70.1024 62.6406C70.1152 62.7722 70.117 62.8969 69.9219 62.9037Z" fill="#6F6767"/>
<path d="M62.6734 61.2605C62.6114 61.2656 62.5513 61.2707 62.4893 61.2759C62.4947 61.2195 62.502 61.1563 62.5731 61.1494C62.6479 61.1426 62.6625 61.2041 62.6716 61.2605H62.6734Z" fill="#6F6767"/>
<path d="M73.1162 43.9544C73.1035 43.8809 73.1199 43.8194 73.1946 43.7802C73.3278 43.9014 73.2293 43.9305 73.1162 43.9544Z" fill="#6F6767"/>
<path d="M72.2056 53.0883C72.2129 53.0302 72.2183 52.9739 72.2256 52.9158C72.284 52.926 72.3478 52.9414 72.3387 53.0097C72.3296 53.0746 72.2639 53.0815 72.2056 53.0883V53.0883Z" fill="#6F6767"/>
<path d="M66.8574 60.9102C66.7957 60.9529 66.7286 60.9546 66.6597 60.929L66.7467 60.8026L66.8574 60.9102V60.9102Z" fill="#6F6767"/>
<path d="M73.0998 44.7197C73.0086 44.6599 73.0104 44.6035 73.1052 44.5488C73.1964 44.6086 73.1909 44.665 73.0998 44.7197Z" fill="#6F6767"/>
<path d="M71.7418 58.5428L71.6976 58.5479H71.6533C71.6533 58.5206 71.6533 58.4932 71.6625 58.4658C71.6883 58.4915 71.716 58.5171 71.7418 58.5428Z" fill="#6F6767"/>
<path d="M18.7746 58.4708C19.4113 58.4179 19.9846 58.1514 20.5832 57.9737C22.6185 57.3741 24.6503 56.7575 26.682 56.1442C26.7944 56.1101 26.8997 56.0503 27.0085 56.0041C27.2969 56.0127 27.5636 55.8555 27.8575 55.9051C29.0094 56.0059 30.1595 56.1049 31.3114 56.2057C33.12 56.3646 34.9304 56.5234 36.739 56.6823C36.7354 57.0769 36.7299 57.4715 36.7263 57.8678C36.0261 57.984 35.373 58.2436 34.7073 58.4606C33.4284 58.8791 32.1368 59.2635 30.8561 59.6751C30.2357 59.8733 29.6334 59.641 29.0239 59.6307C28.1586 59.6171 27.2951 59.4872 26.4298 59.4069C25.238 59.2976 24.0444 59.1815 22.8525 59.0807C21.9854 59.0072 21.1183 58.9406 20.2494 58.8996C19.7687 58.8774 19.297 58.7561 18.8127 58.8056C18.6875 58.8176 18.615 58.7544 18.5986 58.6365C18.6585 58.5819 18.7184 58.5272 18.7782 58.4725L18.7746 58.4708Z" fill="#908383"/>
<path d="M24.4695 38.9921C24.7144 39.2825 24.5838 39.6412 24.6437 39.9641C24.8487 41.0522 24.9757 42.154 25.1335 43.2507C24.9702 43.278 24.807 43.2985 24.6455 43.3344C22.0569 43.9135 19.4682 44.4926 16.8778 45.0734C16.6656 43.5599 16.4515 42.0481 16.2393 40.5346C18.8624 40.0273 21.4855 39.5199 24.1085 39.016C24.2246 38.9938 24.348 39.0023 24.4677 38.9955L24.4695 38.9921Z" fill="#908383"/>
<path d="M25.8401 48.1532C23.7558 48.6742 21.6733 49.1952 19.5889 49.7162C18.9196 49.8836 18.2411 50.0237 17.5953 50.2646C17.4974 49.2037 17.325 48.1532 17.1509 47.1009C17.2107 47.0958 17.2724 47.1009 17.3305 47.0855C20.0171 46.4074 22.7018 45.7258 25.3884 45.0459C25.539 46.0811 25.6895 47.1163 25.8401 48.1515V48.1532Z" fill="#908383"/>
<path d="M16.9932 73.4744C17.0059 73.283 17.0966 73.2079 17.2889 73.1754C17.2834 73.3667 17.1873 73.4368 16.9932 73.4744Z" fill="#665E5E"/>
<path d="M17.5888 50.3568C17.6672 50.4337 17.6782 50.5225 17.6381 50.6199C17.4867 50.555 17.4703 50.4661 17.5888 50.3568Z" fill="#908383"/>
<path d="M17.6809 50.9546C17.7429 51.0366 17.7666 51.1237 17.7173 51.2177C17.5769 51.1442 17.5696 51.0571 17.6809 50.9546Z" fill="#908383"/>
<path d="M27.4115 52.9363C27.5602 53.9254 27.7072 54.9145 27.8559 55.9035C27.562 55.8557 27.2954 56.0112 27.0069 56.0026C26.8727 55.2322 26.7348 54.4618 26.6713 53.6828C26.7911 53.6026 26.7421 53.5496 26.6387 53.5052L26.5752 53.003C26.8201 52.6101 27.1212 52.839 27.4115 52.9363V52.9363Z" fill="#665E5E"/>
<path d="M44.514 49.2721C44.4868 49.5779 44.6718 49.7026 44.9602 49.747C46.6292 50.0015 48.2963 50.0015 49.9652 49.747C50.2518 49.7026 50.3896 49.5608 50.3751 49.2892C50.6527 49.2789 50.9085 49.3678 51.1642 49.448C51.3203 49.4976 51.4853 49.554 51.489 49.7538C51.4926 49.9622 51.3384 50.0493 51.1642 50.116C50.6545 50.3141 50.1103 50.3619 49.5733 50.3995C47.9353 50.5123 46.2954 50.5447 44.6609 50.3363C44.3761 50.3005 44.0949 50.2509 43.8337 50.1365C43.6578 50.0596 43.4546 49.9913 43.4546 49.7624C43.4546 49.5181 43.6741 49.4788 43.8555 49.4241C44.0695 49.3609 44.2927 49.3216 44.5122 49.2704L44.514 49.2721Z" fill="#F8F8FA"/>
<path d="M63.9869 49.8324C64.0197 49.9315 64.0379 50.0254 63.9285 50.0972C63.7936 49.9793 63.8063 49.8905 63.9869 49.8324Z" fill="#908383"/>
<path d="M39.4258 57.7003C39.0974 57.6798 38.7074 58.0573 38.5242 57.8489C38.3156 57.6098 38.4607 57.1742 38.468 56.8223C38.6439 56.853 38.8181 56.8974 38.994 56.9145C39.589 56.9743 39.6725 57.1212 39.4258 57.7003Z" fill="#847A7A"/>
<path d="M38.4645 56.5048C38.3241 56.3477 38.2858 56.199 38.5028 56.0709C38.5338 56.2195 38.5593 56.3664 38.4645 56.5048Z" fill="#847A7A"/>
<path d="M36.7994 56.2521C36.7465 56.1598 36.7502 56.0727 36.8195 55.989C36.9508 56.0864 36.9508 56.1735 36.7994 56.2521Z" fill="#847A7A"/>
<path d="M30.7619 61.1171C30.6562 61.059 30.6562 60.9992 30.7619 60.9395C30.8331 60.9975 30.8331 61.0573 30.7619 61.1171Z" fill="#847A7A"/>
<path d="M26.6392 53.505C26.7432 53.5494 26.7924 53.6024 26.6721 53.6827C26.6064 53.6314 26.5973 53.5716 26.6392 53.505Z" fill="#847A7A"/>
</svg>
