<svg width="21" height="21" viewBox="0 0 21 21" fill="none" xmlns="http://www.w3.org/2000/svg">
<g clip-path="url(#clip0_832_1092)">
<path d="M18.3182 3.59085V0.681763H0.5V17.7727H3.04545V20.3181H20.5V3.59085H18.3182ZM1.22727 17.0454V1.40904H17.5909V3.59085H3.04545V17.0454H1.22727ZM19.7727 19.5909H3.77273V17.7727V4.31813H18.3182H19.7727V19.5909Z" fill="#3E5C76"/>
<path d="M15.7727 11.5908H12.1364V7.95446C12.1364 7.75337 11.9738 7.59082 11.7727 7.59082C11.5716 7.59082 11.4091 7.75337 11.4091 7.95446V11.5908H7.77272C7.57163 11.5908 7.40909 11.7534 7.40909 11.9545C7.40909 12.1555 7.57163 12.3181 7.77272 12.3181H11.4091V15.9545C11.4091 16.1555 11.5716 16.3181 11.7727 16.3181C11.9738 16.3181 12.1364 16.1555 12.1364 15.9545V12.3181H15.7727C15.9738 12.3181 16.1364 12.1555 16.1364 11.9545C16.1364 11.7534 15.9738 11.5908 15.7727 11.5908Z" fill="#3E5C76"/>
</g>
<defs>
<clipPath id="clip0_832_1092">
<rect width="20" height="20" fill="white" transform="translate(0.5 0.5)"/>
</clipPath>
</defs>
</svg>
