<svg width="20" height="21" viewBox="0 0 20 21" fill="none" xmlns="http://www.w3.org/2000/svg">
<g clip-path="url(#clip0_649_1335)">
<path d="M14.646 8.06744C14.4527 8.06744 14.2959 8.2242 14.2959 8.4175V13.4345C14.2959 13.6278 14.4527 13.7845 14.646 13.7845C14.8393 13.7845 14.996 13.6278 14.996 13.4345V8.4175C14.996 8.2242 14.8393 8.06744 14.646 8.06744Z" fill="#3E5C76"/>
<path d="M14.4097 6.06547C14.1784 5.63322 13.8831 5.23598 13.5319 4.88481C13.3953 4.74815 13.1736 4.74808 13.0369 4.88481C12.9001 5.02154 12.9001 5.24312 13.0369 5.37985C13.3394 5.68244 13.5937 6.0243 13.7925 6.39584C13.8836 6.56618 14.0957 6.63059 14.2663 6.5393C14.4367 6.44807 14.5009 6.23594 14.4097 6.06547Z" fill="#3E5C76"/>
<path d="M17.0848 17.4031L16.3962 14.7894V8.41753C16.3962 5.59266 14.5488 3.11638 11.8695 2.29907C11.8295 1.28559 10.9969 0.5 10 0.5C9.00292 0.5 8.17057 1.2858 8.13052 2.29893C5.45134 3.11498 3.60383 5.59133 3.60383 8.41753V14.7894L2.91527 17.4031C2.85688 17.6249 3.02428 17.8424 3.25377 17.8424H7.01336C7.1874 19.3364 8.46006 20.5 10 20.5C11.54 20.5 12.8126 19.3364 12.9867 17.8424H16.7463C16.9755 17.8424 17.1432 17.6251 17.0848 17.4031ZM10 1.20011C10.5631 1.20011 11.0341 1.60029 11.1457 2.12355C10.7938 2.05984 10.3941 2.02113 10.0037 2.02092C10.0025 2.02092 10.0013 2.02085 10 2.02085C9.99869 2.02085 9.99743 2.02092 9.9961 2.02092C9.60593 2.02113 9.19923 2.0611 8.85429 2.12355C8.96631 1.59889 9.43825 1.20011 10 1.20011ZM4.30394 8.41753C4.30394 5.81599 6.06142 3.54715 8.57768 2.90018C9.51736 2.65878 10.5063 2.66481 11.4224 2.90018C11.4223 2.90018 11.4224 2.90018 11.4224 2.90018C13.9386 3.54848 15.6961 5.81725 15.6961 8.41753V14.4847H4.30394V8.41753ZM10 19.7999C8.84659 19.7999 7.88814 18.9493 7.719 17.8424H12.2811C12.1119 18.9493 11.1534 19.7999 10 19.7999ZM3.708 17.1423L4.2237 15.1848H15.7764L16.2921 17.1423C15.931 17.1423 5.16591 17.1423 3.708 17.1423Z" fill="#3E5C76"/>
</g>
<defs>
<clipPath id="clip0_649_1335">
<rect width="20" height="20" fill="white" transform="translate(0 0.5)"/>
</clipPath>
</defs>
</svg>
