<svg width="21" height="21" viewBox="0 0 21 21" fill="none" xmlns="http://www.w3.org/2000/svg">
<g clip-path="url(#clip0_649_1296)">
<path d="M0.689321 19.2993L0.509412 20.054C0.50362 20.0783 0.502172 20.1029 0.501448 20.1271C0.501448 20.1322 0.5 20.1365 0.5 20.1412C0.500362 20.1825 0.509412 20.2227 0.523529 20.2614C0.526787 20.2705 0.530407 20.2784 0.534389 20.2871C0.552127 20.3259 0.574208 20.3631 0.605339 20.3943C0.639729 20.4287 0.680272 20.4551 0.724072 20.4732C0.767873 20.4913 0.81457 20.5003 0.861267 20.5003C0.88914 20.5003 0.917376 20.4971 0.944887 20.4906L1.7 20.3107L0.689321 19.2993Z" fill="#3E5C76"/>
<path d="M19.5472 1.4524C18.2767 0.182534 16.21 0.182534 14.9395 1.4524L1.88534 14.5065C1.87919 14.5127 1.87557 14.5203 1.87014 14.5268C1.86254 14.5355 1.85602 14.5449 1.84914 14.5543C1.82996 14.5811 1.81511 14.6097 1.80389 14.6408C1.80063 14.6502 1.79593 14.6586 1.79339 14.668C1.79231 14.6716 1.79014 14.6752 1.78905 14.6788L0.885883 18.4725L2.52715 20.1134L6.32082 19.2102C6.33059 19.2081 6.33928 19.2026 6.34869 19.1994C6.361 19.1954 6.37258 19.1907 6.38453 19.1852C6.41059 19.1733 6.43484 19.1585 6.45729 19.1407C6.46597 19.1338 6.47502 19.1288 6.48335 19.1212C6.48625 19.1183 6.48987 19.1168 6.49276 19.1139L19.5472 6.05946C20.8175 4.78959 20.8175 2.72262 19.5472 1.4524ZM6.71068 17.8727L6.83883 16.7205L14.9395 8.61946C15.081 8.47792 15.081 8.24914 14.9395 8.1076C14.7979 7.96606 14.5691 7.96606 14.4276 8.1076L6.32697 16.2086L4.59919 16.4005L4.79104 14.6727L12.8924 6.57204C13.0339 6.4305 13.0339 6.20172 12.8924 6.06018C12.7509 5.91864 12.5221 5.91864 12.3805 6.06018L4.27919 14.1608L3.12697 14.289L13.148 4.26796L16.7317 7.85167L6.71068 17.8727ZM17.2435 7.33982L13.6598 3.75611L14.1717 3.24425L17.7554 6.82796L17.2435 7.33982ZM18.2672 6.31611L14.6835 2.7324L15.1957 2.22018L18.7795 5.80389L18.2672 6.31611Z" fill="#3E5C76"/>
</g>
<defs>
<clipPath id="clip0_649_1296">
<rect width="20" height="20" fill="white" transform="translate(0.5 0.5)"/>
</clipPath>
</defs>
</svg>
