<svg width="20" height="21" viewBox="0 0 20 21" fill="none" xmlns="http://www.w3.org/2000/svg">
<g clip-path="url(#clip0_649_1314)">
<path d="M19.4938 20.4897C19.7737 20.4897 20 20.2634 20 19.9835V5.17697C20 5.02882 19.9342 4.8889 19.823 4.79425L14.9383 0.617301C14.93 0.609071 14.9218 0.604956 14.9136 0.600841C14.9012 0.59261 14.893 0.58438 14.8807 0.576149C14.8642 0.567919 14.8519 0.559688 14.8354 0.551458C14.823 0.547343 14.8107 0.539112 14.7984 0.534997C14.7819 0.526767 14.7613 0.522651 14.7449 0.518536C14.7325 0.514421 14.7202 0.510306 14.7078 0.510306C14.6749 0.50619 14.6461 0.502075 14.6132 0.502075H0.506173C0.226337 0.502075 0 0.728412 0 1.00825V19.9918C0 20.2716 0.226337 20.4979 0.506173 20.4979H19.4938V20.4897ZM15.823 19.4815H4.17695V11.9054C4.17695 11.7531 4.30041 11.6338 4.44856 11.6338H15.5514C15.7037 11.6338 15.823 11.7572 15.823 11.9054V19.4815ZM6.65844 1.50619H14.1029V6.76544C14.1029 6.79837 14.0782 6.82306 14.0453 6.82306H6.72016C6.68724 6.82306 6.66255 6.79425 6.66255 6.76544V1.50619H6.65844ZM1.01235 1.50619H5.65432V6.76544C5.65432 7.35392 6.13169 7.83129 6.72016 7.83129H14.0453C14.6337 7.83129 15.1111 7.35392 15.1111 6.76544V2.09467L18.9877 5.41154V19.4815H16.8313V11.9054C16.8313 11.1975 16.2551 10.6255 15.5514 10.6255H4.44856C3.74074 10.6255 3.16872 11.2017 3.16872 11.9054V19.4856H1.01235V1.50619Z" fill="#3E5C76"/>
<path d="M9.35801 3.69549H11.572V5.03706C11.572 5.3169 11.7983 5.54323 12.0782 5.54323C12.358 5.54323 12.5843 5.3169 12.5843 5.03706V3.19343C12.5843 2.91359 12.358 2.68726 12.0782 2.68726H9.35801C9.07817 2.68726 8.85184 2.91359 8.85184 3.19343C8.85184 3.47327 9.08229 3.69549 9.35801 3.69549Z" fill="#3E5C76"/>
<path d="M12.5309 13.786H7.46912C7.18929 13.786 6.96295 14.0123 6.96295 14.2922C6.96295 14.572 7.18929 14.7984 7.46912 14.7984H12.5309C12.8107 14.7984 13.037 14.572 13.037 14.2922C13.037 14.0123 12.8107 13.786 12.5309 13.786Z" fill="#3E5C76"/>
<path d="M12.5309 16.4568H7.46912C7.18929 16.4568 6.96295 16.6832 6.96295 16.963C6.96295 17.2429 7.18929 17.4692 7.46912 17.4692H12.5309C12.8107 17.4692 13.037 17.2429 13.037 16.963C13.037 16.6832 12.8107 16.4568 12.5309 16.4568Z" fill="#3E5C76"/>
</g>
<defs>
<clipPath id="clip0_649_1314">
<rect width="20" height="20" fill="white" transform="translate(0 0.5)"/>
</clipPath>
</defs>
</svg>
