<svg width="20" height="21" viewBox="0 0 20 21" fill="none" xmlns="http://www.w3.org/2000/svg">
<g clip-path="url(#clip0_649_1302)">
<path d="M16.132 5.69613C15.0638 4.62797 13.7472 3.86102 12.3084 3.46574V2.2002C12.3084 1.2627 11.5457 0.5 10.6082 0.5C10.1541 0.5 9.72707 0.676836 9.40593 0.99793L6.62812 3.77578C6.30695 4.09695 6.13015 4.52391 6.13015 4.97801C6.13015 5.43219 6.30695 5.85914 6.62812 6.18023L9.40601 8.95813C9.72719 9.27926 10.1541 9.45605 10.6082 9.45605C11.5457 9.45605 12.3084 8.69336 12.3084 7.7559V7.08969C14.1019 7.96602 15.2715 9.80383 15.2715 11.8281C15.2715 14.7348 12.9068 17.0996 10 17.0996C7.09324 17.0996 4.72847 14.7349 4.72847 11.8281C4.72847 10.8906 3.96578 10.1279 3.02828 10.1279C2.09077 10.1279 1.32808 10.8906 1.32808 11.8281C1.32808 14.1445 2.23015 16.3221 3.86804 17.96C5.50589 19.5979 7.68359 20.5 9.99996 20.5C12.3163 20.5 14.4941 19.5979 16.132 17.96C17.7698 16.3221 18.6719 14.1445 18.6719 11.8281C18.6719 9.51176 17.7698 7.33406 16.132 5.69613ZM15.5685 17.3966C14.0811 18.884 12.1035 19.7032 10 19.7032C7.89648 19.7032 5.91882 18.884 4.43152 17.3966C2.94406 15.9092 2.12492 13.9316 2.12492 11.8281C2.12492 11.33 2.53019 10.9247 3.02831 10.9247C3.52644 10.9247 3.93171 11.33 3.93171 11.8281C3.93171 15.1742 6.65398 17.8964 10.0001 17.8964C13.3462 17.8964 16.0684 15.1742 16.0684 11.8281C16.0684 9.27437 14.4514 6.97832 12.0446 6.11469C11.9225 6.07078 11.7868 6.08922 11.6808 6.16383C11.5748 6.23844 11.5116 6.36 11.5116 6.48969V7.7559C11.5116 8.25398 11.1064 8.65926 10.6082 8.65926C10.367 8.65926 10.1401 8.56527 9.96949 8.39469L7.1916 5.6168C7.02097 5.44621 6.92703 5.2193 6.92703 4.97805C6.92703 4.7368 7.02101 4.50988 7.19164 4.3393L9.96949 1.56148C10.1401 1.39082 10.367 1.29688 10.6082 1.29688C11.1064 1.29688 11.5116 1.70215 11.5116 2.20027V3.77527C11.5116 3.96012 11.6389 4.12074 11.8189 4.16309C13.233 4.4957 14.5296 5.22066 15.5686 6.25957C17.056 7.74699 17.8752 9.72461 17.8752 11.8281C17.8751 13.9316 17.0559 15.9092 15.5685 17.3966Z" fill="#3E5C76"/>
<path d="M9.91606 6.79897L9.85356 6.73647C9.69789 6.58093 9.4457 6.58093 9.29008 6.73647C9.13449 6.8921 9.13449 7.14436 9.29008 7.29995L9.35258 7.36245C9.43039 7.44022 9.53231 7.47913 9.6343 7.47913C9.73629 7.47913 9.83821 7.44022 9.91606 7.36245C10.0716 7.20682 10.0716 6.95456 9.91606 6.79897Z" fill="#3E5C76"/>
<path d="M8.97507 5.86045L7.94136 4.82674C7.7857 4.6712 7.53351 4.6712 7.37789 4.82674C7.2223 4.98237 7.2223 5.23463 7.37789 5.39022L8.4116 6.42393C8.48941 6.5017 8.59132 6.54061 8.69332 6.54061C8.79531 6.54061 8.89722 6.50174 8.97507 6.42393C9.13066 6.26831 9.13066 6.01604 8.97507 5.86045Z" fill="#3E5C76"/>
</g>
<defs>
<clipPath id="clip0_649_1302">
<rect width="20" height="20" fill="white" transform="translate(0 0.5)"/>
</clipPath>
</defs>
</svg>
