<svg width="22" height="16" viewBox="0 0 22 16" fill="none" xmlns="http://www.w3.org/2000/svg">
<path d="M10.7985 7.99999C10.1024 7.99999 9.42925 7.6088 8.90238 6.89886C8.39008 6.20639 8.07722 5.28295 8.02202 4.29943C7.96311 3.25028 8.2174 2.28551 8.73783 1.58239C9.25825 0.879261 9.98591 0.5 10.7985 0.5C11.6054 0.5 12.3351 0.886079 12.8539 1.5875C13.3777 2.29574 13.6326 3.2588 13.5737 4.299C13.5172 5.2838 13.2046 6.20681 12.6934 6.89843C12.1678 7.6088 11.495 7.99999 10.7985 7.99999Z" fill="black"/>
<path d="M15.2637 15.5H6.33651C6.19299 15.501 6.05119 15.4605 5.92205 15.3817C5.79291 15.3028 5.67986 15.1878 5.59159 15.0453C5.49797 14.8909 5.43332 14.7118 5.40248 14.5215C5.37163 14.3312 5.3754 14.1345 5.41349 13.9463C5.69859 12.5055 6.40491 11.3107 7.45593 10.4912C8.38877 9.76421 9.57624 9.36365 10.7999 9.36365C12.0477 9.36365 13.204 9.74717 14.1423 10.4737C15.1957 11.2889 15.903 12.4906 16.1867 13.9489C16.2244 14.1372 16.2277 14.3339 16.1965 14.5241C16.1653 14.7143 16.1004 14.8932 16.0066 15.0474C15.9184 15.1892 15.8056 15.3037 15.6769 15.3822C15.5481 15.4606 15.4068 15.5009 15.2637 15.5Z" fill="black"/>
<path d="M4.65443 7.7614C3.46289 7.7614 2.41527 6.36708 2.31809 4.65359C2.27001 3.77575 2.48739 2.96396 2.92757 2.36865C3.36301 1.77931 3.97723 1.45459 4.65443 1.45459C5.33163 1.45459 5.94111 1.78101 6.37892 2.37377C6.82249 2.97376 7.03919 3.78385 6.9884 4.65444C6.89122 6.36751 5.84393 7.7614 4.65443 7.7614Z" fill="black"/>
<path d="M6.65888 9.27701C6.06328 8.91053 5.29026 8.72729 4.43597 8.72729C3.43845 8.72729 2.46971 9.05457 1.70786 9.6486C0.844093 10.3232 0.263054 11.3054 0.0284039 12.4914C-0.0059352 12.6619 -0.00918308 12.8401 0.0189033 13.0125C0.0469896 13.1849 0.105683 13.347 0.190594 13.4868C0.271163 13.617 0.374381 13.7222 0.492309 13.7943C0.610238 13.8664 0.739735 13.9035 0.870842 13.9027H4.62931C4.69274 13.9027 4.75417 13.8747 4.80286 13.8235C4.85156 13.7724 4.88445 13.7013 4.89579 13.6228C4.89951 13.5959 4.90425 13.5691 4.90967 13.5426C5.1968 12.0912 5.8696 10.8648 6.86373 9.97076C6.9003 9.93759 6.92971 9.89346 6.9493 9.84237C6.96888 9.79129 6.97803 9.73485 6.97592 9.67819C6.9738 9.62153 6.96048 9.56642 6.93716 9.51788C6.91385 9.46933 6.88128 9.42887 6.8424 9.40017C6.78924 9.36096 6.72829 9.31963 6.65888 9.27701Z" fill="black"/>
<path d="M16.7902 7.7614C15.5986 7.7614 14.551 6.36708 14.4538 4.65359C14.4057 3.77575 14.6231 2.96396 15.0633 2.36865C15.4987 1.77931 16.113 1.45459 16.7902 1.45459C17.4674 1.45459 18.0769 1.78101 18.5147 2.37377C18.9582 2.97376 19.1749 3.78385 19.1241 4.65444C19.027 6.36751 17.9797 7.7614 16.7902 7.7614Z" fill="black"/>
<path d="M15.3423 9.2773C15.9378 8.91063 16.7107 8.72729 17.5648 8.72729C18.5622 8.72729 19.5307 9.05474 20.2924 9.64909C21.1561 10.324 21.737 11.3068 21.9716 12.4933C22.0059 12.664 22.0092 12.8423 21.9811 13.0147C21.953 13.1872 21.8943 13.3495 21.8094 13.4893C21.7289 13.6196 21.6257 13.7248 21.5078 13.7969C21.3899 13.8691 21.2604 13.9062 21.1293 13.9055H17.3715C17.3081 13.9054 17.2467 13.8774 17.198 13.8262C17.1493 13.775 17.1164 13.7039 17.1051 13.6253C17.1014 13.5985 17.0966 13.5716 17.0912 13.5452C16.8041 12.093 16.1314 10.8659 15.1375 9.97142C15.1009 9.93823 15.0715 9.89408 15.0519 9.84296C15.0323 9.79185 15.0232 9.73538 15.0253 9.67869C15.0274 9.622 15.0407 9.56687 15.0641 9.51829C15.0874 9.46972 15.1199 9.42924 15.1588 9.40052C15.212 9.3613 15.2729 9.31994 15.3423 9.2773Z" fill="black"/>
</svg>
