<svg width="20" height="20" viewBox="0 0 20 20" fill="none" xmlns="http://www.w3.org/2000/svg">
<path d="M10.0008 10C9.19772 10 8.42116 9.64141 7.81335 8.99063C7.22233 8.35586 6.86139 7.50938 6.79772 6.60781C6.72975 5.64609 7.02311 4.76172 7.6235 4.11719C8.22389 3.47266 9.06335 3.125 10.0008 3.125C10.9317 3.125 11.7735 3.47891 12.3719 4.12187C12.9762 4.77109 13.2704 5.65391 13.2024 6.60742C13.1372 7.51016 12.7766 8.35625 12.1868 8.99023C11.5805 9.64141 10.8044 10 10.0008 10Z" fill="black"/>
<path d="M15.1502 16.875H4.85136C4.68578 16.8759 4.5222 16.8388 4.37322 16.7665C4.22423 16.6943 4.09381 16.5888 3.99199 16.4582C3.88398 16.3166 3.80939 16.1525 3.77381 15.978C3.73823 15.8036 3.74257 15.6233 3.78652 15.4508C4.11542 14.1301 4.93027 13.0348 6.14277 12.2836C7.21894 11.6172 8.58886 11.25 10.0006 11.25C11.44 11.25 12.774 11.6016 13.8564 12.2676C15.0717 13.0148 15.8877 14.1164 16.215 15.4531C16.2584 15.6258 16.2623 15.806 16.2263 15.9804C16.1903 16.1548 16.1154 16.3188 16.0072 16.4602C15.9055 16.5901 15.7754 16.6951 15.6268 16.767C15.4783 16.8389 15.3152 16.8758 15.1502 16.875Z" fill="black"/>
</svg>
