<svg width="18" height="20" viewBox="0 0 18 20" fill="none" xmlns="http://www.w3.org/2000/svg">
<path d="M12.5042 12.4639C12.4382 12.068 12.1444 11.7476 11.7557 11.6477L10.0156 11.2002V10.5894C10.6595 10.1441 11.0523 9.40507 11.0523 8.61773V7.58101C11.0523 6.44965 10.1319 5.52917 9.0005 5.52917H8.30936C7.17799 5.52917 6.25752 6.44965 6.25752 7.58101V8.61773C6.25752 9.40507 6.65035 10.1441 7.29424 10.5894V11.2002L5.55419 11.6477C5.16547 11.7476 4.87164 12.068 4.80568 12.4639L4.66819 13.2889C4.61903 13.5838 4.70167 13.8837 4.89493 14.1119C5.08819 14.3401 5.37052 14.4709 5.66948 14.4709H11.6404C11.9393 14.4709 12.2217 14.3401 12.4149 14.1119C12.6082 13.8838 12.6908 13.5838 12.6417 13.2889L12.5042 12.4639ZM11.9205 13.6931C11.8496 13.7768 11.7501 13.8229 11.6404 13.8229H5.66948C5.55977 13.8229 5.46024 13.7768 5.38931 13.6931C5.31838 13.6093 5.28927 13.5036 5.30733 13.3954L5.44482 12.5704C5.46866 12.4272 5.57493 12.3113 5.71553 12.2752L7.6989 11.7652C7.8421 11.7283 7.94218 11.5992 7.94218 11.4514V10.4115C7.94218 10.2959 7.88063 10.1891 7.78059 10.1311C7.2408 9.81846 6.90547 9.23855 6.90547 8.61773V7.58101C6.90547 6.80693 7.53527 6.17712 8.30936 6.17712H9.0005C9.77458 6.17712 10.4044 6.80693 10.4044 7.58101V8.61773C10.4044 9.23855 10.0691 9.81846 9.52927 10.1312C9.42927 10.1891 9.36767 10.2959 9.36767 10.4115V11.4514C9.36767 11.5993 9.46776 11.7284 9.61095 11.7652L11.5943 12.2752C11.7349 12.3114 11.8412 12.4273 11.865 12.5704L12.0025 13.3954C12.0206 13.5036 11.9914 13.6093 11.9205 13.6931Z" fill="black"/>
<path d="M16.6031 1.72786H16.2359V1.36069C16.2359 0.61041 15.6255 0 14.8753 0H2.43465C1.68437 0 1.07396 0.61041 1.07396 1.36069V2.76458H0.706787C0.527866 2.76458 0.382812 2.90963 0.382812 3.08855C0.382812 3.26747 0.527866 3.41253 0.706787 3.41253H1.07396V4.49244H0.706787C0.527866 4.49244 0.382812 4.63749 0.382812 4.81641C0.382812 4.99533 0.527866 5.14039 0.706787 5.14039H1.07396V6.2203H0.706787C0.527866 6.2203 0.382812 6.36536 0.382812 6.54428C0.382812 6.7232 0.527866 6.86825 0.706787 6.86825H1.07396V7.94816H0.706787C0.527866 7.94816 0.382812 8.09322 0.382812 8.27214C0.382812 8.45106 0.527866 8.59611 0.706787 8.59611H1.07396V9.67603H0.706787C0.527866 9.67603 0.382812 9.82108 0.382812 10C0.382812 10.1789 0.527866 10.324 0.706787 10.324H1.07396V11.4039H0.706787C0.527866 11.4039 0.382812 11.5489 0.382812 11.7279C0.382812 11.9068 0.527866 12.0518 0.706787 12.0518H1.07396V13.1317H0.706787C0.527866 13.1317 0.382812 13.2768 0.382812 13.4557C0.382812 13.6346 0.527866 13.7797 0.706787 13.7797H1.07396V14.8596H0.706787C0.527866 14.8596 0.382812 15.0047 0.382812 15.1836C0.382812 15.3625 0.527866 15.5076 0.706787 15.5076H1.07396V16.5875H0.706787C0.527866 16.5875 0.382812 16.7325 0.382812 16.9114C0.382812 17.0904 0.527866 17.2354 0.706787 17.2354H1.07396V18.6393C1.07396 19.3896 1.68437 20 2.43465 20H14.8753C15.6255 20 16.2359 19.3896 16.2359 18.6393V12.743H16.6031C17.1629 12.743 17.6182 12.2876 17.6182 11.7279V2.74298C17.6182 2.18324 17.1629 1.72786 16.6031 1.72786ZM16.2359 6.52268H16.9703V7.94816H16.2359V6.52268ZM16.2359 5.87473V4.44924H16.9703V5.87473H16.2359ZM16.2359 8.59611H16.9703V10.0216H16.2359V8.59611ZM16.6031 2.37581C16.8056 2.37581 16.9703 2.54052 16.9703 2.74298V3.8013H16.2359V2.37581H16.6031ZM15.588 18.6393C15.588 19.0323 15.2683 19.3521 14.8753 19.3521H2.43465C2.04165 19.3521 1.72191 19.0323 1.72191 18.6393V17.2354H2.08908C2.268 17.2354 2.41305 17.0904 2.41305 16.9114C2.41305 16.7325 2.268 16.5875 2.08908 16.5875H1.72191V15.5076H2.08908C2.268 15.5076 2.41305 15.3625 2.41305 15.1836C2.41305 15.0047 2.268 14.8596 2.08908 14.8596H1.72191V13.7797H2.08908C2.268 13.7797 2.41305 13.6346 2.41305 13.4557C2.41305 13.2768 2.268 13.1317 2.08908 13.1317H1.72191V12.0518H2.08908C2.268 12.0518 2.41305 11.9068 2.41305 11.7279C2.41305 11.5489 2.268 11.4039 2.08908 11.4039H1.72191V10.324H2.08908C2.268 10.324 2.41305 10.1789 2.41305 10C2.41305 9.82108 2.268 9.67603 2.08908 9.67603H1.72191V8.59611H2.08908C2.268 8.59611 2.41305 8.45106 2.41305 8.27214C2.41305 8.09322 2.268 7.94816 2.08908 7.94816H1.72191V6.86825H2.08908C2.268 6.86825 2.41305 6.7232 2.41305 6.54428C2.41305 6.36536 2.268 6.2203 2.08908 6.2203H1.72191V5.14039H2.08908C2.268 5.14039 2.41305 4.99533 2.41305 4.81641C2.41305 4.63749 2.268 4.49244 2.08908 4.49244H1.72191V3.41253H2.08908C2.268 3.41253 2.41305 3.26747 2.41305 3.08855C2.41305 2.90963 2.268 2.76458 2.08908 2.76458H1.72191V1.36069C1.72191 0.967689 2.04165 0.647948 2.43465 0.647948H14.8753C15.2683 0.647948 15.588 0.967689 15.588 1.36069V18.6393ZM16.6031 12.095H16.2359V10.6695H16.9703V11.7279C16.9703 11.9303 16.8056 12.095 16.6031 12.095Z" fill="black"/>
</svg>
