<svg width="20" height="14" viewBox="0 0 20 14" fill="none" xmlns="http://www.w3.org/2000/svg">
<path d="M19.5918 0.46936H0.408163C0.182776 0.46936 0 0.652136 0 0.877524V13.1224C0 13.3478 0.182776 13.5306 0.408163 13.5306H19.5918C19.8172 13.5306 20 13.3478 20 13.1224V0.877524C20 0.652136 19.8172 0.46936 19.5918 0.46936ZM18.1092 1.28569L10 6.11671L1.89078 1.28569H18.1092ZM19.1837 12.7143H0.816326V1.59577L6.97171 5.26279L2.6038 8.72075L3.11049 9.36083L7.72216 5.70993L9.79106 6.94246C9.85547 6.98079 9.92771 6.99997 10 6.99997C10.0723 6.99997 10.1445 6.98079 10.2089 6.94246L12.2778 5.70993L16.8895 9.36083L17.3962 8.72075L13.0283 5.26283L19.1837 1.59577V12.7143Z" fill="black"/>
</svg>
