<svg width="30.085px" height="30.085px" viewBox="0 -4.21 30.085 30.085" id="_20_-_Picture" data-name="20 - Picture" xmlns="http://www.w3.org/2000/svg">
  <path id="Path_258" data-name="Path 258" d="M31.042,8.17a3,3,0,0,0-3-3H3.958a3,3,0,0,0-3,3V23.83a3,3,0,0,0,3,3H28.042a3,3,0,0,0,3-3Zm-2,0V23.83a1,1,0,0,1-1,1H3.958a1,1,0,0,1-1-1V8.17a1,1,0,0,1,1-1H28.042A1,1,0,0,1,29.042,8.17Z" transform="translate(-0.958 -5.17)" fill-rule="evenodd"/>
  <path id="Path_259" data-name="Path 259" d="M30.49,17.914,22.064,13.7a1,1,0,0,0-1.047.1l-5.123,3.842L10.83,15.106a1,1,0,0,0-.763-.055L1.641,17.86a1,1,0,1,0,.633,1.9l8.032-2.677L15.553,19.7a1,1,0,0,0,1.047-.095l5.122-3.841L29.595,19.7a1,1,0,1,0,.895-1.789Z" transform="translate(-0.958 -5.17)" fill-rule="evenodd"/>
  <path id="Path_260" data-name="Path 260" d="M10.383,8.079a2.929,2.929,0,1,0,2.929,2.929A2.93,2.93,0,0,0,10.383,8.079Zm0,2a.929.929,0,1,1-.929.929A.929.929,0,0,1,10.383,10.079Z" transform="translate(-0.958 -5.17)" fill-rule="evenodd"/>
</svg>
