<svg width="21" height="20" viewBox="0 0 21 20" fill="none" xmlns="http://www.w3.org/2000/svg">
<path d="M0.5 10C0.5 15.5226 4.9774 20 10.5 20C16.0226 20 20.5 15.5226 20.5 10C20.5 4.4774 16.0226 -3.57628e-07 10.5 -3.57628e-07C4.9774 -3.57628e-07 0.5 4.4774 0.5 10ZM14.5716 8.3024C14.6424 8.22797 14.7273 8.16844 14.8213 8.12734C14.9154 8.08623 15.0168 8.06438 15.1195 8.06306C15.2221 8.06175 15.324 8.081 15.4191 8.11968C15.5142 8.15836 15.6006 8.2157 15.6732 8.2883C15.7458 8.3609 15.8032 8.4473 15.8419 8.54241C15.8805 8.63752 15.8998 8.73941 15.8985 8.84208C15.8972 8.94474 15.8753 9.04611 15.8342 9.14019C15.7931 9.23428 15.7336 9.31918 15.6591 9.3899L11.0438 14.0053C10.8995 14.1494 10.7039 14.2304 10.5 14.2304C10.2961 14.2304 10.1005 14.1494 9.95625 14.0053L5.34087 9.3899C5.2027 9.24447 5.12681 9.05082 5.12937 8.85023C5.13194 8.64965 5.21277 8.458 5.35461 8.31615C5.49646 8.1743 5.68811 8.09348 5.88869 8.09091C6.08928 8.08834 6.28293 8.16423 6.42837 8.3024L10.5 12.3736L14.5716 8.3024Z" fill="#3E5C76"/>
</svg>
