<svg width="25" height="21" viewBox="0 0 25 21" fill="none" xmlns="http://www.w3.org/2000/svg">
<path d="M18.6196 0.505623C16.2179 0.579623 14.3562 1.30962 12.5437 2.01562C10.6054 2.76962 8.77589 3.48062 6.24107 3.50962C4.54732 3.53962 2.85089 3.21162 1.18393 2.56562L0 2.10762V19.1896L0.594643 19.4266C2.14732 20.0416 3.73482 20.3966 5.31518 20.4806C5.56607 20.4936 5.81161 20.5006 6.05268 20.5006C8.74286 20.5006 10.8027 19.7006 12.8 18.9286C14.9054 18.1126 16.8911 17.3416 19.6009 17.4846C21.0372 17.5673 22.455 17.8853 23.8089 18.4286L25 18.9006V1.81162L24.4125 1.57162C22.8932 0.951924 21.2983 0.595816 19.683 0.515623C19.3288 0.49801 18.9741 0.494674 18.6196 0.505623ZM18.6679 2.49162C18.9714 2.48162 19.2821 2.48162 19.6045 2.49562C19.9384 2.51162 20.2723 2.54562 20.6054 2.58962C20.7412 3.21707 21.0889 3.76112 21.5754 4.10741C22.062 4.45371 22.6494 4.5753 23.2143 4.44662V13.5486C22.9218 13.482 22.6203 13.4818 22.3278 13.5482C22.0352 13.6145 21.7576 13.7461 21.5113 13.9349C21.2651 14.1238 21.0552 14.3662 20.8942 14.6477C20.7332 14.9292 20.6243 15.2441 20.5741 15.5736C20.2784 15.5396 19.9818 15.5149 19.6848 15.4996C16.6357 15.3496 14.3875 16.2086 12.2143 17.0526C10.1062 17.8706 8.10893 18.6436 5.40089 18.4996C5.06362 18.4799 4.72709 18.4465 4.39196 18.3996C4.25496 17.7739 3.90716 17.2318 3.42137 16.8868C2.93559 16.5418 2.34947 16.4206 1.78571 16.5486V7.44662C2.07995 7.51369 2.38327 7.51339 2.6774 7.44573C2.97153 7.37808 3.2504 7.24447 3.49722 7.05295C3.74404 6.86143 3.95371 6.61596 4.11362 6.33131C4.27352 6.04666 4.38035 5.72872 4.42768 5.39662C5.03929 5.46762 5.65089 5.50862 6.26071 5.49762C9.08661 5.46562 11.1411 4.66462 13.1295 3.89062C14.8804 3.20762 16.5491 2.56562 18.6679 2.49162ZM12.5 5.49762C10.5304 5.49762 8.92857 7.74062 8.92857 10.4976C8.92857 13.2546 10.5304 15.4976 12.5 15.4976C14.4696 15.4976 16.0714 13.2546 16.0714 10.4976C16.0714 7.74062 14.4696 5.49762 12.5 5.49762ZM12.5 7.49762C13.4679 7.49762 14.2857 8.87162 14.2857 10.4976C14.2857 12.1236 13.4679 13.4976 12.5 13.4976C11.5321 13.4976 10.7143 12.1236 10.7143 10.4976C10.7143 8.87162 11.5321 7.49762 12.5 7.49762ZM19.1964 7.49762C18.8412 7.49762 18.5006 7.65566 18.2494 7.93696C17.9982 8.21827 17.8571 8.5998 17.8571 8.99762C17.8571 9.39545 17.9982 9.77698 18.2494 10.0583C18.5006 10.3396 18.8412 10.4976 19.1964 10.4976C19.5516 10.4976 19.8923 10.3396 20.1434 10.0583C20.3946 9.77698 20.5357 9.39545 20.5357 8.99762C20.5357 8.5998 20.3946 8.21827 20.1434 7.93696C19.8923 7.65566 19.5516 7.49762 19.1964 7.49762ZM5.80357 10.4976C5.44837 10.4976 5.10772 10.6557 4.85655 10.937C4.60539 11.2183 4.46429 11.5998 4.46429 11.9976C4.46429 12.3954 4.60539 12.777 4.85655 13.0583C5.10772 13.3396 5.44837 13.4976 5.80357 13.4976C6.15877 13.4976 6.49942 13.3396 6.75059 13.0583C7.00175 12.777 7.14286 12.3954 7.14286 11.9976C7.14286 11.5998 7.00175 11.2183 6.75059 10.937C6.49942 10.6557 6.15877 10.4976 5.80357 10.4976Z" fill="#3E5C76"/>
</svg>
