<svg width="30" height="31" viewBox="0 0 30 31" fill="none" xmlns="http://www.w3.org/2000/svg">
<path d="M2.8505 20.4935V11.9205C2.8505 10.9265 3.5335 10.001 4.702 9.217V5.4625C4.702 5.095 4.9935 4.791 5.373 4.7335C5.0945 4.6155 4.8975 4.372 4.8975 4.079C4.8975 3.6725 5.7235 2.3605 5.7235 2.3605C5.7235 2.3605 6.5505 3.672 6.5505 4.079C6.5505 4.368 6.358 4.6095 6.085 4.7295C6.486 4.7695 6.8005 5.081 6.8005 5.4625V8.155C7.53265 7.87572 8.28266 7.6457 9.0455 7.4665C9.00612 7.37202 8.98525 7.27085 8.984 7.1685C8.984 6.677 9.984 5.0915 9.984 5.0915C9.984 5.0915 10.899 6.5435 10.976 7.0985C11.9555 6.954 12.998 6.87 14.0735 6.836V3.2335C14.0735 2.903 14.3295 2.627 14.6675 2.5665C14.437 2.459 14.276 2.251 14.276 2.0035C14.2765 1.6475 15 0.5 15 0.5C15 0.5 15.7235 1.6475 15.7235 2.0035C15.7235 2.248 15.5665 2.454 15.3405 2.5625C15.697 2.6085 15.9735 2.89 15.9735 3.2335V6.8365C17.025 6.8715 18.0445 6.9545 19.0035 7.0955C19.0975 6.528 19.994 5.106 19.994 5.106C19.994 5.106 20.994 6.691 20.994 7.183C20.994 7.2815 20.9715 7.3745 20.9385 7.463C21.7264 7.64677 22.5005 7.88552 23.255 8.1775V5.47C23.255 5.103 23.547 4.799 23.927 4.7415C23.6485 4.6235 23.4505 4.3795 23.4505 4.0865C23.4505 3.68 24.2775 2.368 24.2775 2.368C24.2775 2.368 25.1045 3.6795 25.1045 4.0865C25.1045 4.3755 24.9115 4.617 24.6385 4.737C25.04 4.7775 25.3545 5.089 25.3545 5.47V9.257C26.488 10.033 27.1505 10.944 27.1505 11.921V20.495C28.9415 21.533 30 22.81 30 24.1915C30 27.676 23.284 30.5 15 30.5C6.716 30.5 0 27.676 0 24.1915C0 22.8095 1.059 21.5325 2.8505 20.4935ZM6.1375 4.4715C6.1375 4.268 5.7235 3.612 5.7235 3.612C5.7235 3.612 5.3095 4.268 5.3095 4.4715C5.31042 4.52065 5.32203 4.56901 5.34353 4.61322C5.36503 4.65743 5.3959 4.69643 5.434 4.7275C5.457 4.7255 5.4795 4.721 5.503 4.721H5.999C6.0055 4.721 6.011 4.7225 6.0175 4.7225C6.05432 4.6917 6.08408 4.65335 6.10479 4.61005C6.12549 4.56674 6.13665 4.51949 6.1375 4.4715ZM6.301 5.4625C6.301 5.3315 6.163 5.2215 5.999 5.2215H5.503C5.34 5.2215 5.202 5.332 5.202 5.4625V10.861C5.20284 10.9139 5.22354 10.9646 5.26 11.003L5.444 11.097C5.46331 11.1005 5.48288 11.1023 5.5025 11.1025H5.9985C6.162 11.1025 6.3005 10.9915 6.3005 10.861V5.4625H6.301ZM9.9845 6.6045C9.9845 6.6045 9.4835 7.397 9.4835 7.643C9.4835 7.8885 9.708 8.088 9.9845 8.088C10.261 8.088 10.4845 7.889 10.4845 7.643C10.4845 7.397 9.9845 6.6045 9.9845 6.6045ZM15.3615 2.3465C15.3615 2.169 15 1.5955 15 1.5955C15 1.5955 14.6375 2.1685 14.6375 2.3465C14.6384 2.38694 14.6476 2.42676 14.6646 2.46349C14.6815 2.50022 14.7058 2.53307 14.736 2.56C14.76 2.5575 14.783 2.553 14.8075 2.553H15.241C15.25 2.553 15.258 2.555 15.267 2.5555C15.2961 2.52886 15.3194 2.49661 15.3357 2.46069C15.3519 2.42476 15.3607 2.38592 15.3615 2.3465ZM15.4735 3.2335C15.4735 3.136 15.367 3.0535 15.241 3.0535H14.8075C14.681 3.0535 14.574 3.136 14.574 3.2335V7.9575C14.5746 7.99369 14.5884 8.02841 14.613 8.055L14.7655 8.1335C14.7794 8.13551 14.7934 8.13651 14.8075 8.1365H15.241C15.367 8.1365 15.4735 8.0545 15.4735 7.9575V3.2335ZM19.994 6.618C19.994 6.618 19.494 7.411 19.494 7.657C19.494 7.902 19.7175 8.102 19.994 8.102C20.2705 8.102 20.494 7.9025 20.494 7.657C20.494 7.411 19.994 6.618 19.994 6.618ZM24.6905 4.478C24.6905 4.2755 24.2775 3.6195 24.2775 3.6195C24.2775 3.6195 23.8635 4.2755 23.8635 4.478C23.8643 4.52736 23.876 4.57594 23.8975 4.62034C23.9191 4.66473 23.9502 4.70387 23.9885 4.735C24.0115 4.733 24.0335 4.7285 24.057 4.7285H24.553C24.559 4.7285 24.5645 4.73 24.5705 4.73C24.6073 4.69894 24.637 4.6604 24.6577 4.61694C24.6784 4.57349 24.6896 4.52612 24.6905 4.478ZM24.8545 5.469C24.8545 5.3385 24.7165 5.2285 24.5525 5.2285H24.0565C23.893 5.2285 23.7545 5.339 23.7545 5.469V10.868C23.7555 10.9207 23.7764 10.9711 23.813 11.009L23.997 11.1035C24.0165 11.107 24.0362 11.1088 24.056 11.109H24.552C24.7155 11.109 24.854 10.9985 24.854 10.868V5.469H24.8545ZM25.4065 11.2905C25.39 11.2055 25.357 11.128 25.3275 11.049C25.2945 11.17 25.2295 11.2785 25.141 11.368C25.18 11.6535 25.11 11.943 24.9575 12.1935C24.633 12.715 24.0775 13.08 23.5115 13.37C22.719 13.7645 21.866 14.016 20.994 14.214V9.1245C20.994 8.992 20.9305 8.876 20.8375 8.7805C20.9815 8.8085 21.1265 8.8295 21.2695 8.8615C21.942 9.0145 22.626 9.217 23.255 9.5095V9.245C23.2475 9.2415 23.2405 9.2375 23.233 9.2345C22.619 8.96 21.9785 8.7585 21.329 8.6045C20.0275 8.30329 18.7001 8.12815 17.365 8.0815C16.8975 8.064 16.429 8.0665 15.96 8.078C15.9115 8.324 15.7205 8.521 15.47 8.5985C16.0977 8.53372 16.728 8.49818 17.359 8.492C18.1001 8.48842 18.841 8.52313 19.5785 8.596C19.284 8.653 19.061 8.862 19.061 9.1245V10.0405L19.0345 10.0275C18.6915 9.8785 18.352 9.7925 18.009 9.7275C17.3245 9.6015 16.639 9.574 15.9565 9.613C15.2705 9.6605 14.6005 9.7555 13.9305 10.041C13.7655 10.116 13.601 10.2075 13.4485 10.3455C13.304 10.472 13.1345 10.7175 13.2025 10.9985C13.275 11.2605 13.4555 11.3935 13.6095 11.4955C13.7657 11.5913 13.9343 11.6653 14.1105 11.7155C14.789 11.912 15.4755 11.91 16.147 11.8245C16.4835 11.771 16.8115 11.709 17.1315 11.5545C17.28 11.4735 17.456 11.375 17.508 11.166C17.5365 10.9355 17.338 10.8155 17.2 10.7425L17.164 10.808C17.296 10.888 17.427 11.019 17.389 11.14C17.351 11.261 17.2015 11.345 17.0625 11.4035C16.776 11.518 16.44 11.5595 16.1225 11.5835C15.48 11.618 14.8165 11.557 14.2305 11.3555C13.9675 11.271 13.6405 11.055 13.6275 10.9055C13.5865 10.7985 13.8465 10.5855 14.1225 10.492C14.685 10.285 15.3515 10.222 15.982 10.1985C16.62 10.184 17.265 10.233 17.879 10.3685C18.1835 10.4365 18.4855 10.5275 18.746 10.652C18.8564 10.705 18.9618 10.7678 19.061 10.8395V11.598C18.875 11.727 18.6415 11.834 18.3995 11.919C17.831 12.1135 17.175 12.2225 16.547 12.2895C15.2745 12.424 13.9675 12.381 12.7175 12.1465C12.103 12.0255 11.4945 11.853 10.984 11.561V9.76C11.185 9.64 11.3975 9.53 11.622 9.436C12.2005 9.1935 12.828 9.033 13.4665 8.8985C14.0228 8.78926 14.5833 8.70219 15.1465 8.6375H14.8065C14.744 8.6375 14.682 8.63 14.6215 8.615L14.3495 8.483L14.2975 8.4475C14.221 8.3785 14.1635 8.297 14.1255 8.208C13.8685 8.2395 13.612 8.2705 13.356 8.3145C12.6965 8.43 12.03 8.575 11.377 8.822C11.2355 8.875 11.0955 8.9365 10.9565 9.0025C10.8935 8.752 10.6375 8.559 10.3165 8.559H9.717C9.349 8.559 9.05 8.807 9.05 9.112V14.315C7.507 13.8585 6.046 13.138 4.816 12.0545L4.764 12.108C5.663 13.0905 6.806 13.855 8.036 14.392C8.3685 14.5355 8.707 14.664 9.0495 14.7815V15.2C9.0495 15.352 9.1235 15.4905 9.244 15.59L9.544 15.734C9.60084 15.7464 9.65882 15.753 9.717 15.7535H10.3165C10.643 15.7535 10.9025 15.555 10.96 15.297C11.2765 15.3605 11.595 15.415 11.914 15.459C14.2955 15.7855 16.7165 15.6715 19.067 15.239C19.0716 15.3093 19.0905 15.3779 19.1227 15.4406C19.1549 15.5033 19.1996 15.5588 19.254 15.6035L19.554 15.747C19.6085 15.759 19.6675 15.767 19.727 15.767H20.3265C20.6955 15.767 20.9935 15.519 20.9935 15.2135V14.803C21.9285 14.5475 22.853 14.223 23.7095 13.7375C24.292 13.395 24.875 12.978 25.2255 12.3455C25.3965 12.0315 25.481 11.6505 25.4065 11.2905ZM3.8505 23.1685C3.8505 25.109 8.6185 27.279 15 27.279C21.382 27.279 26.1505 25.109 26.1505 23.1685V21.1815C25.6585 21.155 25.2655 20.7985 25.2655 20.359V18.4315C25.2655 17.8245 24.706 17.3325 24.0155 17.3325C23.325 17.3325 22.7645 17.8245 22.7645 18.4315V20.8095C22.7645 21.5155 22.113 22.0885 21.3105 22.0885C20.507 22.0885 19.8555 21.5155 19.8555 20.8095V18.38C19.8555 17.7445 19.2695 17.23 18.547 17.23C17.8235 17.23 17.2375 17.7445 17.2375 18.38V19.929C17.2375 20.2825 16.9125 20.5685 16.51 20.5685C16.1085 20.5685 15.7835 20.2825 15.7835 19.929V18.7C15.7835 18.241 15.3595 17.869 14.837 17.869C14.3155 17.869 13.8925 18.241 13.8925 18.7V20.81C13.8925 21.516 13.24 22.089 12.4375 22.089C11.634 22.089 10.9825 21.516 10.9825 20.81V18.445C10.9825 17.845 10.429 17.358 9.746 17.358C9.063 17.358 8.5095 17.845 8.5095 18.445V20.171C8.5095 20.524 8.1845 20.81 7.782 20.81C7.3805 20.81 7.0545 20.524 7.0545 20.171V18.9625C7.0545 18.648 6.7655 18.393 6.408 18.393C6.0495 18.393 5.7595 18.648 5.7595 18.9625V20.81C5.7595 21.516 5.109 22.089 4.3055 22.089C4.1455 22.089 3.9945 22.0605 3.8505 22.0185V23.1685Z" fill="#303233"/>
</svg>
