<svg width="30" height="30" viewBox="0 0 30 30" fill="none" xmlns="http://www.w3.org/2000/svg">
<path d="M2.8505 19.9935V11.4205C2.8505 10.4265 3.5335 9.501 4.702 8.717V4.9625C4.702 4.595 4.9935 4.291 5.373 4.2335C5.0945 4.1155 4.8975 3.872 4.8975 3.579C4.8975 3.1725 5.7235 1.8605 5.7235 1.8605C5.7235 1.8605 6.5505 3.172 6.5505 3.579C6.5505 3.868 6.358 4.1095 6.085 4.2295C6.486 4.2695 6.8005 4.581 6.8005 4.9625V7.655C7.53265 7.37572 8.28266 7.1457 9.0455 6.9665C9.00612 6.87202 8.98525 6.77085 8.984 6.6685C8.984 6.177 9.984 4.5915 9.984 4.5915C9.984 4.5915 10.899 6.0435 10.976 6.5985C11.9555 6.454 12.998 6.37 14.0735 6.336V2.7335C14.0735 2.403 14.3295 2.127 14.6675 2.0665C14.437 1.959 14.276 1.751 14.276 1.5035C14.2765 1.1475 15 0 15 0C15 0 15.7235 1.1475 15.7235 1.5035C15.7235 1.748 15.5665 1.954 15.3405 2.0625C15.697 2.1085 15.9735 2.39 15.9735 2.7335V6.3365C17.025 6.3715 18.0445 6.4545 19.0035 6.5955C19.0975 6.028 19.994 4.606 19.994 4.606C19.994 4.606 20.994 6.191 20.994 6.683C20.994 6.7815 20.9715 6.8745 20.9385 6.963C21.7264 7.14677 22.5005 7.38552 23.255 7.6775V4.97C23.255 4.603 23.547 4.299 23.927 4.2415C23.6485 4.1235 23.4505 3.8795 23.4505 3.5865C23.4505 3.18 24.2775 1.868 24.2775 1.868C24.2775 1.868 25.1045 3.1795 25.1045 3.5865C25.1045 3.8755 24.9115 4.117 24.6385 4.237C25.04 4.2775 25.3545 4.589 25.3545 4.97V8.757C26.488 9.533 27.1505 10.444 27.1505 11.421V19.995C28.9415 21.033 30 22.31 30 23.6915C30 27.176 23.284 30 15 30C6.716 30 0 27.176 0 23.6915C0 22.3095 1.059 21.0325 2.8505 19.9935ZM6.1375 3.9715C6.1375 3.768 5.7235 3.112 5.7235 3.112C5.7235 3.112 5.3095 3.768 5.3095 3.9715C5.31042 4.02065 5.32203 4.06901 5.34353 4.11322C5.36503 4.15743 5.3959 4.19643 5.434 4.2275C5.457 4.2255 5.4795 4.221 5.503 4.221H5.999C6.0055 4.221 6.011 4.2225 6.0175 4.2225C6.05432 4.1917 6.08408 4.15335 6.10479 4.11005C6.12549 4.06674 6.13665 4.01949 6.1375 3.9715ZM6.301 4.9625C6.301 4.8315 6.163 4.7215 5.999 4.7215H5.503C5.34 4.7215 5.202 4.832 5.202 4.9625V10.361C5.20284 10.4139 5.22354 10.4646 5.26 10.503L5.444 10.597C5.46331 10.6005 5.48288 10.6023 5.5025 10.6025H5.9985C6.162 10.6025 6.3005 10.4915 6.3005 10.361V4.9625H6.301ZM9.9845 6.1045C9.9845 6.1045 9.4835 6.897 9.4835 7.143C9.4835 7.3885 9.708 7.588 9.9845 7.588C10.261 7.588 10.4845 7.389 10.4845 7.143C10.4845 6.897 9.9845 6.1045 9.9845 6.1045ZM15.3615 1.8465C15.3615 1.669 15 1.0955 15 1.0955C15 1.0955 14.6375 1.6685 14.6375 1.8465C14.6384 1.88694 14.6476 1.92676 14.6646 1.96349C14.6815 2.00022 14.7058 2.03307 14.736 2.06C14.76 2.0575 14.783 2.053 14.8075 2.053H15.241C15.25 2.053 15.258 2.055 15.267 2.0555C15.2961 2.02886 15.3194 1.99661 15.3357 1.96069C15.3519 1.92476 15.3607 1.88592 15.3615 1.8465ZM15.4735 2.7335C15.4735 2.636 15.367 2.5535 15.241 2.5535H14.8075C14.681 2.5535 14.574 2.636 14.574 2.7335V7.4575C14.5746 7.49369 14.5884 7.52841 14.613 7.555L14.7655 7.6335C14.7794 7.63551 14.7934 7.63651 14.8075 7.6365H15.241C15.367 7.6365 15.4735 7.5545 15.4735 7.4575V2.7335ZM19.994 6.118C19.994 6.118 19.494 6.911 19.494 7.157C19.494 7.402 19.7175 7.602 19.994 7.602C20.2705 7.602 20.494 7.4025 20.494 7.157C20.494 6.911 19.994 6.118 19.994 6.118ZM24.6905 3.978C24.6905 3.7755 24.2775 3.1195 24.2775 3.1195C24.2775 3.1195 23.8635 3.7755 23.8635 3.978C23.8643 4.02736 23.876 4.07594 23.8975 4.12034C23.9191 4.16473 23.9502 4.20387 23.9885 4.235C24.0115 4.233 24.0335 4.2285 24.057 4.2285H24.553C24.559 4.2285 24.5645 4.23 24.5705 4.23C24.6073 4.19894 24.637 4.1604 24.6577 4.11694C24.6784 4.07349 24.6896 4.02612 24.6905 3.978ZM24.8545 4.969C24.8545 4.8385 24.7165 4.7285 24.5525 4.7285H24.0565C23.893 4.7285 23.7545 4.839 23.7545 4.969V10.368C23.7555 10.4207 23.7764 10.4711 23.813 10.509L23.997 10.6035C24.0165 10.607 24.0362 10.6088 24.056 10.609H24.552C24.7155 10.609 24.854 10.4985 24.854 10.368V4.969H24.8545ZM25.4065 10.7905C25.39 10.7055 25.357 10.628 25.3275 10.549C25.2945 10.67 25.2295 10.7785 25.141 10.868C25.18 11.1535 25.11 11.443 24.9575 11.6935C24.633 12.215 24.0775 12.58 23.5115 12.87C22.719 13.2645 21.866 13.516 20.994 13.714V8.6245C20.994 8.492 20.9305 8.376 20.8375 8.2805C20.9815 8.3085 21.1265 8.3295 21.2695 8.3615C21.942 8.5145 22.626 8.717 23.255 9.0095V8.745C23.2475 8.7415 23.2405 8.7375 23.233 8.7345C22.619 8.46 21.9785 8.2585 21.329 8.1045C20.0275 7.80329 18.7001 7.62815 17.365 7.5815C16.8975 7.564 16.429 7.5665 15.96 7.578C15.9115 7.824 15.7205 8.021 15.47 8.0985C16.0977 8.03372 16.728 7.99818 17.359 7.992C18.1001 7.98842 18.841 8.02313 19.5785 8.096C19.284 8.153 19.061 8.362 19.061 8.6245V9.5405L19.0345 9.5275C18.6915 9.3785 18.352 9.2925 18.009 9.2275C17.3245 9.1015 16.639 9.074 15.9565 9.113C15.2705 9.1605 14.6005 9.2555 13.9305 9.541C13.7655 9.616 13.601 9.7075 13.4485 9.8455C13.304 9.972 13.1345 10.2175 13.2025 10.4985C13.275 10.7605 13.4555 10.8935 13.6095 10.9955C13.7657 11.0913 13.9343 11.1653 14.1105 11.2155C14.789 11.412 15.4755 11.41 16.147 11.3245C16.4835 11.271 16.8115 11.209 17.1315 11.0545C17.28 10.9735 17.456 10.875 17.508 10.666C17.5365 10.4355 17.338 10.3155 17.2 10.2425L17.164 10.308C17.296 10.388 17.427 10.519 17.389 10.64C17.351 10.761 17.2015 10.845 17.0625 10.9035C16.776 11.018 16.44 11.0595 16.1225 11.0835C15.48 11.118 14.8165 11.057 14.2305 10.8555C13.9675 10.771 13.6405 10.555 13.6275 10.4055C13.5865 10.2985 13.8465 10.0855 14.1225 9.992C14.685 9.785 15.3515 9.722 15.982 9.6985C16.62 9.684 17.265 9.733 17.879 9.8685C18.1835 9.9365 18.4855 10.0275 18.746 10.152C18.8564 10.205 18.9618 10.2678 19.061 10.3395V11.098C18.875 11.227 18.6415 11.334 18.3995 11.419C17.831 11.6135 17.175 11.7225 16.547 11.7895C15.2745 11.924 13.9675 11.881 12.7175 11.6465C12.103 11.5255 11.4945 11.353 10.984 11.061V9.26C11.185 9.14 11.3975 9.03 11.622 8.936C12.2005 8.6935 12.828 8.533 13.4665 8.3985C14.0228 8.28926 14.5833 8.20219 15.1465 8.1375H14.8065C14.744 8.1375 14.682 8.13 14.6215 8.115L14.3495 7.983L14.2975 7.9475C14.221 7.8785 14.1635 7.797 14.1255 7.708C13.8685 7.7395 13.612 7.7705 13.356 7.8145C12.6965 7.93 12.03 8.075 11.377 8.322C11.2355 8.375 11.0955 8.4365 10.9565 8.5025C10.8935 8.252 10.6375 8.059 10.3165 8.059H9.717C9.349 8.059 9.05 8.307 9.05 8.612V13.815C7.507 13.3585 6.046 12.638 4.816 11.5545L4.764 11.608C5.663 12.5905 6.806 13.355 8.036 13.892C8.3685 14.0355 8.707 14.164 9.0495 14.2815V14.7C9.0495 14.852 9.1235 14.9905 9.244 15.09L9.544 15.234C9.60084 15.2464 9.65882 15.253 9.717 15.2535H10.3165C10.643 15.2535 10.9025 15.055 10.96 14.797C11.2765 14.8605 11.595 14.915 11.914 14.959C14.2955 15.2855 16.7165 15.1715 19.067 14.739C19.0716 14.8093 19.0905 14.8779 19.1227 14.9406C19.1549 15.0033 19.1996 15.0588 19.254 15.1035L19.554 15.247C19.6085 15.259 19.6675 15.267 19.727 15.267H20.3265C20.6955 15.267 20.9935 15.019 20.9935 14.7135V14.303C21.9285 14.0475 22.853 13.723 23.7095 13.2375C24.292 12.895 24.875 12.478 25.2255 11.8455C25.3965 11.5315 25.481 11.1505 25.4065 10.7905ZM3.8505 22.6685C3.8505 24.609 8.6185 26.779 15 26.779C21.382 26.779 26.1505 24.609 26.1505 22.6685V20.6815C25.6585 20.655 25.2655 20.2985 25.2655 19.859V17.9315C25.2655 17.3245 24.706 16.8325 24.0155 16.8325C23.325 16.8325 22.7645 17.3245 22.7645 17.9315V20.3095C22.7645 21.0155 22.113 21.5885 21.3105 21.5885C20.507 21.5885 19.8555 21.0155 19.8555 20.3095V17.88C19.8555 17.2445 19.2695 16.73 18.547 16.73C17.8235 16.73 17.2375 17.2445 17.2375 17.88V19.429C17.2375 19.7825 16.9125 20.0685 16.51 20.0685C16.1085 20.0685 15.7835 19.7825 15.7835 19.429V18.2C15.7835 17.741 15.3595 17.369 14.837 17.369C14.3155 17.369 13.8925 17.741 13.8925 18.2V20.31C13.8925 21.016 13.24 21.589 12.4375 21.589C11.634 21.589 10.9825 21.016 10.9825 20.31V17.945C10.9825 17.345 10.429 16.858 9.746 16.858C9.063 16.858 8.5095 17.345 8.5095 17.945V19.671C8.5095 20.024 8.1845 20.31 7.782 20.31C7.3805 20.31 7.0545 20.024 7.0545 19.671V18.4625C7.0545 18.148 6.7655 17.893 6.408 17.893C6.0495 17.893 5.7595 18.148 5.7595 18.4625V20.31C5.7595 21.016 5.109 21.589 4.3055 21.589C4.1455 21.589 3.9945 21.5605 3.8505 21.5185V22.6685Z" fill="white"/>
</svg>
