<svg width="27" height="27" viewBox="0 0 27 27" fill="none" xmlns="http://www.w3.org/2000/svg">
<path d="M25.1667 22.2497V8.39551C25.1667 6.65502 24.4753 4.98583 23.2446 3.75512C22.0139 2.52441 20.3447 1.83301 18.6042 1.83301H8.39592C7.53412 1.83301 6.68076 2.00275 5.88456 2.33255C5.08836 2.66234 4.36491 3.14573 3.75553 3.75512C3.14614 4.3645 2.66275 5.08795 2.33296 5.88415C2.00316 6.68035 1.83342 7.53371 1.83342 8.39551V18.6038C1.83342 19.4656 2.00316 20.319 2.33296 21.1152C2.66275 21.9114 3.14614 22.6348 3.75553 23.2442C4.36491 23.8536 5.08836 24.337 5.88456 24.6668C6.68076 24.9966 7.53412 25.1663 8.39592 25.1663H22.2501C23.0236 25.1663 23.7655 24.859 24.3125 24.3121C24.8595 23.7651 25.1667 23.0232 25.1667 22.2497V22.2497Z" stroke="#3E5C76" stroke-width="2" stroke-linecap="round" stroke-linejoin="round"/>
<path d="M7.66683 19.3327H7.65224M19.3335 13.4993H14.2293C13.4558 13.4993 12.7139 13.8066 12.1669 14.3536C11.62 14.9006 11.3127 15.6425 11.3127 16.416C11.3127 17.1896 11.62 17.9314 12.1669 18.4784C12.7139 19.0254 13.4558 19.3327 14.2293 19.3327H19.3335V9.12435C19.3335 8.73757 19.1799 8.36664 18.9064 8.09315C18.6329 7.81966 18.2619 7.66602 17.8752 7.66602H15.6877C14.9141 7.66602 14.1722 7.97331 13.6253 8.52029C13.0783 9.06727 12.771 9.80913 12.771 10.5827C12.771 11.3562 13.0783 12.0981 13.6253 12.6451C14.1722 13.1921 14.9141 13.4993 15.6877 13.4993H17.8752H19.3335Z" stroke="#3E5C76" stroke-width="2" stroke-linecap="round" stroke-linejoin="round"/>
</svg>
