<svg width="15" height="15" viewBox="0 0 15 15" fill="none" xmlns="http://www.w3.org/2000/svg">
<path d="M15 7.5C15 5.51088 14.2098 3.60322 12.8033 2.1967C11.3968 0.790177 9.48912 1.50175e-07 7.5 0C5.51088 -1.50175e-07 3.60322 0.790176 2.1967 2.1967C0.790177 3.60322 3.00349e-07 5.51088 0 7.5L7.5 7.5H15Z" fill="#63DF60"/>
<path d="M0 7.5C0 9.48912 0.790176 11.3968 2.1967 12.8033C3.60322 14.2098 5.51088 15 7.5 15C9.48912 15 11.3968 14.2098 12.8033 12.8033C14.2098 11.3968 15 9.48912 15 7.5L7.5 7.5L0 7.5Z" fill="#E05959"/>
</svg>
