<svg width="30" height="30" viewBox="0 0 30 30" fill="none" xmlns="http://www.w3.org/2000/svg">
<path d="M28.9286 28.125C29.2127 28.125 29.4853 28.2238 29.6862 28.3996C29.8871 28.5754 30 28.8139 30 29.0625C30 29.3111 29.8871 29.5496 29.6862 29.7254C29.4853 29.9012 29.2127 30 28.9286 30H1.07143C0.78727 30 0.514746 29.9012 0.313814 29.7254C0.112883 29.5496 0 29.3111 0 29.0625C0 28.8139 0.112883 28.5754 0.313814 28.3996C0.514746 28.2238 0.78727 28.125 1.07143 28.125H4.28572V4.68738C4.28572 3.94146 4.62436 3.22608 5.22716 2.69863C5.82995 2.17118 6.64752 1.87487 7.5 1.87487H8.57143V0.937362C8.57145 0.80317 8.6044 0.670545 8.66804 0.548453C8.73169 0.42636 8.82454 0.317646 8.94034 0.229658C9.05613 0.141669 9.19216 0.0764574 9.33924 0.0384301C9.48631 0.000402749 9.641 -0.00955392 9.79286 0.00923308L24.7929 1.88424C25.0485 1.91586 25.2824 2.02717 25.4517 2.1977C25.621 2.36822 25.7142 2.58649 25.7143 2.81237V28.125H28.9286ZM8.57143 3.74988H7.5C7.21584 3.74988 6.94332 3.84865 6.74239 4.02446C6.54145 4.20028 6.42857 4.43874 6.42857 4.68738V28.125H8.57143V3.74988ZM13.9286 18.7499C14.52 18.7499 15 17.9099 15 16.8749C15 15.8399 14.52 14.9999 13.9286 14.9999C13.3371 14.9999 12.8571 15.8399 12.8571 16.8749C12.8571 17.9099 13.3371 18.7499 13.9286 18.7499Z" fill="black"/>
</svg>
