<svg width="30" height="31" viewBox="0 0 30 31" fill="none" xmlns="http://www.w3.org/2000/svg">
<path d="M4.125 12.8529C3.07457 12.8529 2.06369 13.3243 1.29855 14.171C0.533417 15.0177 0.0716705 16.1759 0.00749969 17.4094L0 17.7059V29.1765C8.7738e-05 29.5118 0.108368 29.8346 0.302959 30.0796C0.497551 30.3247 0.763947 30.4737 1.04832 30.4965C1.33269 30.5194 1.61384 30.4144 1.83495 30.2028C2.05606 29.9911 2.20065 29.6887 2.2395 29.3565L2.25 29.1765V25.2059H27.75V29.1765C27.75 29.4963 27.8485 29.8053 28.0272 30.0464C28.2058 30.2874 28.4527 30.4442 28.722 30.4876L28.875 30.5C29.1469 30.5 29.4095 30.3842 29.6144 30.1739C29.8193 29.9637 29.9525 29.6733 29.9895 29.3565L30 29.1765V17.7059C30.0001 16.4701 29.5994 15.2808 28.8797 14.3807C28.16 13.4805 27.1755 12.9373 26.127 12.8618L25.875 12.8529H4.125ZM22.875 0.5H7.125C6.07457 0.499939 5.06369 0.971339 4.29855 1.81805C3.53342 2.66475 3.07167 3.82298 3.0075 5.05647L3 5.35294V11.0882H7.5L7.5105 10.8818C7.54999 10.4879 7.70112 10.1211 7.93952 9.84061C8.17791 9.56014 8.48967 9.38234 8.8245 9.33588L9 9.32353H12C12.3674 9.32359 12.722 9.48228 12.9966 9.7695C13.2711 10.0567 13.4465 10.4525 13.4895 10.8818L13.5 11.0882H16.5L16.5105 10.8818C16.55 10.4879 16.7011 10.1211 16.9395 9.84061C17.1779 9.56014 17.4897 9.38234 17.8245 9.33588L18 9.32353H21C21.3674 9.32359 21.722 9.48228 21.9966 9.7695C22.2711 10.0567 22.4465 10.4525 22.4895 10.8818L22.5 11.0882H27V5.35294C27.0001 4.11714 26.5994 2.92787 25.8797 2.02771C25.16 1.12755 24.1755 0.58432 23.127 0.508824L22.875 0.5Z" fill="#303233"/>
</svg>
