<svg width="30" height="30" viewBox="0 0 30 30" fill="none" xmlns="http://www.w3.org/2000/svg">
<path d="M4.125 12.3529C3.07457 12.3529 2.06369 12.8243 1.29855 13.671C0.533417 14.5177 0.0716705 15.6759 0.00749969 16.9094L0 17.2059V28.6765C8.7738e-05 29.0118 0.108368 29.3346 0.302959 29.5796C0.497551 29.8247 0.763947 29.9737 1.04832 29.9965C1.33269 30.0194 1.61384 29.9144 1.83495 29.7028C2.05606 29.4911 2.20065 29.1887 2.2395 28.8565L2.25 28.6765V24.7059H27.75V28.6765C27.75 28.9963 27.8485 29.3053 28.0272 29.5464C28.2058 29.7874 28.4527 29.9442 28.722 29.9876L28.875 30C29.1469 30 29.4095 29.8842 29.6144 29.6739C29.8193 29.4637 29.9525 29.1733 29.9895 28.8565L30 28.6765V17.2059C30.0001 15.9701 29.5994 14.7808 28.8797 13.8807C28.16 12.9805 27.1755 12.4373 26.127 12.3618L25.875 12.3529H4.125ZM22.875 5.97981e-09H7.125C6.07457 -6.13045e-05 5.06369 0.471339 4.29855 1.31805C3.53342 2.16475 3.07167 3.32298 3.0075 4.55647L3 4.85294V10.5882H7.5L7.5105 10.3818C7.54999 9.98785 7.70112 9.62108 7.93952 9.34061C8.17791 9.06014 8.48967 8.88234 8.8245 8.83588L9 8.82353H12C12.3674 8.82359 12.722 8.98228 12.9966 9.2695C13.2711 9.55672 13.4465 9.9525 13.4895 10.3818L13.5 10.5882H16.5L16.5105 10.3818C16.55 9.98785 16.7011 9.62108 16.9395 9.34061C17.1779 9.06014 17.4897 8.88234 17.8245 8.83588L18 8.82353H21C21.3674 8.82359 21.722 8.98228 21.9966 9.2695C22.2711 9.55672 22.4465 9.9525 22.4895 10.3818L22.5 10.5882H27V4.85294C27.0001 3.61714 26.5994 2.42787 25.8797 1.52771C25.16 0.627551 24.1755 0.0843199 23.127 0.00882374L22.875 5.97981e-09Z" fill="white"/>
</svg>
