<svg width="30" height="30" viewBox="0 0 30 30" fill="none" xmlns="http://www.w3.org/2000/svg">
<path d="M0.725815 6.1479C1.19129 4.94483 1.86245 3.85462 2.70174 2.93829C3.54165 2.01924 4.53193 1.28887 5.61874 0.786925C6.74568 0.264367 7.95439 -0.003108 9.1747 2.72463e-05C10.8867 2.72463e-05 12.557 0.523333 14.0086 1.5118C14.3558 1.74826 14.6857 2.00797 14.9983 2.29095C15.3108 2.00797 15.6407 1.74826 15.988 1.5118C17.4395 0.523333 19.1099 2.72463e-05 20.8219 2.72463e-05C22.0546 2.72463e-05 23.2492 0.263619 24.3778 0.786925C25.4682 1.29085 26.451 2.01572 27.2948 2.93829C28.1352 3.85358 28.8065 4.94406 29.2707 6.1479C29.7534 7.39996 30 8.72955 30 10.0979C30 11.3887 29.7639 12.7338 29.2951 14.1022C28.9027 15.2457 28.3401 16.4318 27.6213 17.6296C26.4822 19.5252 24.9161 21.5021 22.9714 23.5062C19.7488 26.8282 16.5575 29.123 16.4221 29.216L15.599 29.8052C15.2344 30.0649 14.7656 30.0649 14.401 29.8052L13.578 29.216C13.4425 29.1191 10.2547 26.8282 7.02862 23.5062C5.08395 21.5021 3.5178 19.5252 2.37878 17.6296C1.65995 16.4318 1.09391 15.2457 0.704979 14.1022C0.236176 12.7338 3.62396e-05 11.3887 3.62396e-05 10.0979C-0.00343704 8.72955 0.24312 7.39996 0.725815 6.1479Z" fill="white"/>
</svg>
