<svg width="30" height="31" viewBox="0 0 30 31" fill="none" xmlns="http://www.w3.org/2000/svg">
<path d="M0.725815 6.6479C1.19129 5.44483 1.86245 4.35462 2.70174 3.43829C3.54165 2.51924 4.53193 1.78887 5.61874 1.28692C6.74568 0.764367 7.95439 0.496892 9.1747 0.500027C10.8867 0.500027 12.557 1.02333 14.0086 2.0118C14.3558 2.24826 14.6857 2.50797 14.9983 2.79095C15.3108 2.50797 15.6407 2.24826 15.988 2.0118C17.4395 1.02333 19.1099 0.500027 20.8219 0.500027C22.0546 0.500027 23.2492 0.763619 24.3778 1.28692C25.4682 1.79085 26.451 2.51572 27.2948 3.43829C28.1352 4.35358 28.8065 5.44406 29.2707 6.6479C29.7534 7.89996 30 9.22955 30 10.5979C30 11.8887 29.7639 13.2338 29.2951 14.6022C28.9027 15.7457 28.3401 16.9318 27.6213 18.1296C26.4822 20.0252 24.9161 22.0021 22.9714 24.0062C19.7488 27.3282 16.5575 29.623 16.4221 29.716L15.599 30.3052C15.2344 30.5649 14.7656 30.5649 14.401 30.3052L13.578 29.716C13.4425 29.6191 10.2547 27.3282 7.02862 24.0062C5.08395 22.0021 3.5178 20.0252 2.37878 18.1296C1.65995 16.9318 1.09391 15.7457 0.704979 14.6022C0.236176 13.2338 3.62396e-05 11.8887 3.62396e-05 10.5979C-0.00343704 9.22955 0.24312 7.89996 0.725815 6.6479Z" fill="#303233"/>
</svg>
