<svg width="21" height="21" viewBox="0 0 21 21" fill="none" xmlns="http://www.w3.org/2000/svg">
<path d="M11.2143 14.7857V9.07142H8.35714V10.5H9.78571V14.7857H7.64286V16.2143H13.3571V14.7857H11.2143ZM10.5 4.78571C10.2881 4.78571 10.0809 4.84854 9.90474 4.96627C9.72855 5.084 9.59122 5.25134 9.51013 5.44712C9.42903 5.64289 9.40782 5.85832 9.44916 6.06616C9.4905 6.274 9.59254 6.46491 9.74238 6.61475C9.89223 6.76459 10.0831 6.86663 10.291 6.90798C10.4988 6.94932 10.7142 6.9281 10.91 6.847C11.1058 6.76591 11.2731 6.62858 11.3909 6.45239C11.5086 6.27619 11.5714 6.06904 11.5714 5.85713C11.5714 5.57297 11.4585 5.30045 11.2576 5.09952C11.0567 4.89859 10.7842 4.78571 10.5 4.78571Z" fill="#3E5C76"/>
<path d="M10.5 20.5C8.52219 20.5 6.58879 19.9135 4.9443 18.8147C3.29981 17.7159 2.01809 16.1541 1.26121 14.3268C0.504333 12.4996 0.3063 10.4889 0.692152 8.5491C1.078 6.60929 2.03041 4.82746 3.42894 3.42894C4.82746 2.03041 6.60929 1.078 8.5491 0.692152C10.4889 0.3063 12.4996 0.504333 14.3268 1.26121C16.1541 2.01809 17.7159 3.29981 18.8147 4.9443C19.9135 6.58879 20.5 8.52219 20.5 10.5C20.5 13.1522 19.4464 15.6957 17.5711 17.5711C15.6957 19.4464 13.1522 20.5 10.5 20.5ZM10.5 1.92858C8.80473 1.92858 7.14754 2.43128 5.73797 3.37312C4.32841 4.31496 3.22979 5.65364 2.58104 7.21986C1.93229 8.78608 1.76254 10.5095 2.09327 12.1722C2.424 13.8349 3.24035 15.3622 4.43909 16.5609C5.63782 17.7597 7.16511 18.576 8.8278 18.9067C10.4905 19.2375 12.2139 19.0677 13.7801 18.419C15.3464 17.7702 16.685 16.6716 17.6269 15.262C18.5687 13.8525 19.0714 12.1953 19.0714 10.5C19.0714 8.22672 18.1684 6.04654 16.5609 4.43909C14.9535 2.83163 12.7733 1.92858 10.5 1.92858Z" fill="#3E5C76"/>
</svg>
