<svg width="30" height="30" viewBox="0 0 30 30" fill="none" xmlns="http://www.w3.org/2000/svg">
<path d="M12.5 2C13.8261 2 15.0979 2.42143 16.0355 3.17157C16.9732 3.92172 17.5 4.93913 17.5 6V8H7.5V6C7.5 4.93913 8.02678 3.92172 8.96447 3.17157C9.90215 2.42143 11.1739 2 12.5 2ZM20 8V6C20 4.4087 19.2098 2.88258 17.8033 1.75736C16.3968 0.632141 14.4891 0 12.5 0C10.5109 0 8.60322 0.632141 7.1967 1.75736C5.79018 2.88258 5 4.4087 5 6V8H3.75C2.75544 8 1.80161 8.31607 1.09835 8.87868C0.395088 9.44129 0 10.2044 0 11V23C0 23.7956 0.395088 24.5587 1.09835 25.1213C1.80161 25.6839 2.75544 26 3.75 26H21.25C22.2446 26 23.1984 25.6839 23.9017 25.1213C24.6049 24.5587 25 23.7956 25 23V11C25 10.2044 24.6049 9.44129 23.9017 8.87868C23.1984 8.31607 22.2446 8 21.25 8H20ZM5.215 28C5.47346 28.5848 5.95218 29.0912 6.58525 29.4494C7.21832 29.8075 7.97461 29.9999 8.75 30H21.25C23.5706 30 25.7962 29.2625 27.4372 27.9497C29.0781 26.637 30 24.8565 30 23V15C30.0004 14.3793 29.7602 13.7739 29.3124 13.267C28.8647 12.7602 28.2314 12.3769 27.5 12.17V23C27.5 24.3261 26.8415 25.5979 25.6694 26.5355C24.4973 27.4732 22.9076 28 21.25 28H5.215ZM15 17C15 17.5304 14.7366 18.0391 14.2678 18.4142C13.7989 18.7893 13.163 19 12.5 19C11.837 19 11.2011 18.7893 10.7322 18.4142C10.2634 18.0391 10 17.5304 10 17C10 16.4696 10.2634 15.9609 10.7322 15.5858C11.2011 15.2107 11.837 15 12.5 15C13.163 15 13.7989 15.2107 14.2678 15.5858C14.7366 15.9609 15 16.4696 15 17Z" fill="white"/>
</svg>
