<svg width="30" height="31" viewBox="0 0 30 31" fill="none" xmlns="http://www.w3.org/2000/svg">
<path d="M12.5 2.5C13.8261 2.5 15.0979 2.92143 16.0355 3.67157C16.9732 4.42172 17.5 5.43913 17.5 6.5V8.5H7.5V6.5C7.5 5.43913 8.02678 4.42172 8.96447 3.67157C9.90215 2.92143 11.1739 2.5 12.5 2.5ZM20 8.5V6.5C20 4.9087 19.2098 3.38258 17.8033 2.25736C16.3968 1.13214 14.4891 0.5 12.5 0.5C10.5109 0.5 8.60322 1.13214 7.1967 2.25736C5.79018 3.38258 5 4.9087 5 6.5V8.5H3.75C2.75544 8.5 1.80161 8.81607 1.09835 9.37868C0.395088 9.94129 0 10.7044 0 11.5V23.5C0 24.2956 0.395088 25.0587 1.09835 25.6213C1.80161 26.1839 2.75544 26.5 3.75 26.5H21.25C22.2446 26.5 23.1984 26.1839 23.9017 25.6213C24.6049 25.0587 25 24.2956 25 23.5V11.5C25 10.7044 24.6049 9.94129 23.9017 9.37868C23.1984 8.81607 22.2446 8.5 21.25 8.5H20ZM5.215 28.5C5.47346 29.0848 5.95218 29.5912 6.58525 29.9494C7.21832 30.3075 7.97461 30.4999 8.75 30.5H21.25C23.5706 30.5 25.7962 29.7625 27.4372 28.4497C29.0781 27.137 30 25.3565 30 23.5V15.5C30.0004 14.8793 29.7602 14.2739 29.3124 13.767C28.8647 13.2602 28.2314 12.8769 27.5 12.67V23.5C27.5 24.8261 26.8415 26.0979 25.6694 27.0355C24.4973 27.9732 22.9076 28.5 21.25 28.5H5.215ZM15 17.5C15 18.0304 14.7366 18.5391 14.2678 18.9142C13.7989 19.2893 13.163 19.5 12.5 19.5C11.837 19.5 11.2011 19.2893 10.7322 18.9142C10.2634 18.5391 10 18.0304 10 17.5C10 16.9696 10.2634 16.4609 10.7322 16.0858C11.2011 15.7107 11.837 15.5 12.5 15.5C13.163 15.5 13.7989 15.7107 14.2678 16.0858C14.7366 16.4609 15 16.9696 15 17.5Z" fill="#303233"/>
</svg>
