<svg width="25" height="30" viewBox="0 0 25 30" fill="none" xmlns="http://www.w3.org/2000/svg">
<path d="M1.13636 13.2H3.55114V4.8C3.55114 2.14875 5.58594 0 8.09659 0H16.9034C19.4141 0 21.4489 2.14875 21.4489 4.8V13.2H23.8636C24.4922 13.2 25 13.7363 25 14.4V28.8C25 29.4638 24.4922 30 23.8636 30H1.13636C0.507812 30 0 29.4638 0 28.8V14.4C0 13.7363 0.507812 13.2 1.13636 13.2ZM11.5057 22.0875V24.075C11.5057 24.24 11.6335 24.375 11.7898 24.375H13.2102C13.3665 24.375 13.4943 24.24 13.4943 24.075V22.0875C13.7875 21.8653 14.0063 21.5505 14.1192 21.1886C14.2322 20.8267 14.2335 20.4363 14.1229 20.0735C14.0124 19.7108 13.7957 19.3944 13.5041 19.17C13.2124 18.9456 12.8609 18.8246 12.5 18.8246C12.1391 18.8246 11.7876 18.9456 11.4959 19.17C11.2043 19.3944 10.9876 19.7108 10.8771 20.0735C10.7665 20.4363 10.7678 20.8267 10.8808 21.1886C10.9938 21.5505 11.2125 21.8653 11.5057 22.0875ZM6.10795 13.2H18.892V4.8C18.892 3.64125 18.0007 2.7 16.9034 2.7H8.09659C6.99929 2.7 6.10795 3.64125 6.10795 4.8V13.2Z" fill="black"/>
</svg>
