<svg width="24" height="30" viewBox="0 0 24 30" fill="none" xmlns="http://www.w3.org/2000/svg">
<path d="M4.16096 22.9303L1.00346 27.8053L1.33946 29.3998L2.92946 29.0593L6.08546 24.1873C5.4068 23.8282 4.76259 23.4074 4.16096 22.9303ZM17.529 21.2278C17.55 21.1843 17.5635 21.1363 17.583 21.0898C17.6625 20.9143 17.733 20.7388 17.79 20.5543C17.799 20.5213 17.8035 20.4883 17.814 20.4583C17.8725 20.2567 17.9215 20.0525 17.961 19.8463V19.8148C18.2535 18.0613 17.7435 16.1053 16.5765 14.3383L18.2415 11.7673C20.16 12.0118 21.819 11.5288 22.617 10.2943C24.0015 8.15983 22.317 4.60633 18.8595 2.35483C15.399 0.101835 11.475 0.00733441 10.0935 2.13883C9.29246 3.37483 9.52646 5.08933 10.533 6.74833L8.86496 9.31933C6.78146 8.96983 4.79096 9.29533 3.31046 10.2793C3.30146 10.2823 3.29096 10.2853 3.28496 10.2913C3.11198 10.4089 2.94572 10.5361 2.78696 10.6723C2.76146 10.6933 2.73146 10.7128 2.71046 10.7338C2.56646 10.8611 2.43068 10.9974 2.30396 11.1418C2.27396 11.1778 2.23196 11.2093 2.20346 11.2468C2.0437 11.4278 1.89826 11.6208 1.76846 11.8243C-0.307539 15.0238 1.46396 19.8658 5.71796 22.6378C9.97496 25.4098 15.108 25.0588 17.1795 21.8593C17.31 21.6568 17.43 21.4453 17.529 21.2278ZM16.3065 6.29083C14.976 5.42533 14.3265 4.06033 14.859 3.23683C15.39 2.41633 16.9005 2.45383 18.228 3.31933C19.5615 4.18483 20.205 5.55283 19.6755 6.37333C19.146 7.19383 17.6385 7.15633 16.3065 6.29083Z" fill="white"/>
</svg>
