<svg width="24" height="29" viewBox="0 0 24 29" fill="none" xmlns="http://www.w3.org/2000/svg">
<path d="M4.16096 22.4303L1.00346 27.3053L1.33946 28.8998L2.92946 28.5593L6.08546 23.6873C5.4068 23.3282 4.76259 22.9074 4.16096 22.4303ZM17.529 20.7278C17.55 20.6843 17.5635 20.6363 17.583 20.5898C17.6625 20.4143 17.733 20.2388 17.79 20.0543C17.799 20.0213 17.8035 19.9883 17.814 19.9583C17.8725 19.7567 17.9215 19.5525 17.961 19.3463V19.3148C18.2535 17.5613 17.7435 15.6053 16.5765 13.8383L18.2415 11.2673C20.16 11.5118 21.819 11.0288 22.617 9.79433C24.0015 7.65983 22.317 4.10633 18.8595 1.85483C15.399 -0.398165 11.475 -0.492666 10.0935 1.63883C9.29246 2.87483 9.52646 4.58933 10.533 6.24833L8.86496 8.81933C6.78146 8.46983 4.79096 8.79533 3.31046 9.77934C3.30146 9.78234 3.29096 9.78533 3.28496 9.79134C3.11198 9.90894 2.94572 10.0361 2.78696 10.1723C2.76146 10.1933 2.73146 10.2128 2.71046 10.2338C2.56646 10.3611 2.43068 10.4974 2.30396 10.6418C2.27396 10.6778 2.23196 10.7093 2.20346 10.7468C2.0437 10.9278 1.89826 11.1208 1.76846 11.3243C-0.307539 14.5238 1.46396 19.3658 5.71796 22.1378C9.97496 24.9098 15.108 24.5588 17.1795 21.3593C17.31 21.1568 17.43 20.9453 17.529 20.7278ZM16.3065 5.79083C14.976 4.92533 14.3265 3.56033 14.859 2.73683C15.39 1.91633 16.9005 1.95383 18.228 2.81933C19.5615 3.68483 20.205 5.05283 19.6755 5.87333C19.146 6.69383 17.6385 6.65633 16.3065 5.79083Z" fill="#303233"/>
</svg>
