<svg width="30" height="30" viewBox="0 0 30 30" fill="none" xmlns="http://www.w3.org/2000/svg">
<circle cx="15" cy="15" r="15" fill="black"/>
<path d="M6.87765 20.5374V9.86645H9.216V9.27344H20.3238V9.86645H22.6621V20.5374H23.5391V22.3159H6.00073V20.5374H6.87765ZM17.1083 21.7228H21.2007V21.1301H17.1083V21.7228ZM18.57 18.7589C18.57 18.6803 18.5392 18.605 18.4844 18.5494C18.4296 18.4939 18.3553 18.4627 18.2778 18.4627C18.2004 18.4627 18.1261 18.4939 18.0713 18.5494C18.0165 18.605 17.9857 18.6803 17.9857 18.7589C17.9857 18.8375 18.0165 18.9128 18.0713 18.9684C18.1261 19.0239 18.2004 19.0551 18.2778 19.0551C18.3553 19.0551 18.4296 19.0239 18.4844 18.9684C18.5392 18.9128 18.57 18.8375 18.57 18.7589ZM7.46217 20.5374H17.693V16.0912H20.6159V20.5374H22.0776V10.4592H7.46217V20.5374Z" fill="white"/>
<path d="M8.99329 11.9779H9.28874V9.04314H12.2422V11.9779H12.5376V12.5647H8.99329V11.9779ZM10.4703 11.6843V11.9776H11.0609V11.6843C11.0609 11.1982 11.458 10.8039 11.947 10.8039C11.4577 10.8039 11.0609 10.4094 11.0609 9.92353V9.3367H10.4703V9.92353C10.4703 10.4097 10.0732 10.8039 9.58419 10.8039C9.81915 10.8041 10.0444 10.8969 10.2106 11.0619C10.3767 11.227 10.4701 11.4509 10.4703 11.6843ZM17.8541 11.9779H18.1496V9.04314H21.103V11.9779H21.3984V12.5647H17.8541V11.9779ZM19.3311 11.6843V11.9776H19.9217V11.6843C19.9217 11.1982 20.3188 10.8039 20.8078 10.8039C20.3185 10.8039 19.9217 10.4094 19.9217 9.92353V9.3367H19.3311V9.92353C19.3311 10.4097 18.934 10.8039 18.445 10.8039C18.68 10.8041 18.9053 10.8969 19.0714 11.0619C19.2375 11.227 19.331 11.4509 19.3311 11.6843ZM13.4237 11.9779H13.7192V9.04314H16.6726V11.9779H16.968V12.5647H13.4237V11.9779ZM14.9007 11.6843V11.9776H15.4913V11.6843C15.4913 11.1982 15.8884 10.8039 16.3774 10.8039C15.8881 10.8039 15.4913 10.4094 15.4913 9.92353V9.3367H14.9007V9.92353C14.9007 10.4097 14.5036 10.8039 14.0146 10.8039C14.2496 10.8041 14.4749 10.8969 14.641 11.0619C14.8071 11.227 14.9005 11.4509 14.9007 11.6843ZM8.99329 16.3798H9.28874V13.4451H12.2422V16.3798H12.5376V16.9667H8.99329V16.3798ZM10.4703 16.0863V16.3796H11.0609V16.0863C11.0609 15.6001 11.458 15.2059 11.947 15.2059C11.4577 15.2059 11.0609 14.8114 11.0609 14.3255V13.7387H10.4703V14.3255C10.4703 14.8116 10.0732 15.2059 9.58419 15.2059C9.81915 15.206 10.0444 15.2988 10.2106 15.4639C10.3767 15.629 10.4701 15.8528 10.4703 16.0863ZM13.4237 16.3798H13.7192V13.4451H16.6726V16.3798H16.968V16.9667H13.4237V16.3798ZM14.9007 16.0863V16.3796H15.4913V16.0863C15.4913 15.6001 15.8884 15.2059 16.3774 15.2059C15.8881 15.2059 15.4913 14.8114 15.4913 14.3255V13.7387H14.9007V14.3255C14.9007 14.8116 14.5036 15.2059 14.0146 15.2059C14.2496 15.206 14.4749 15.2988 14.641 15.4639C14.8071 15.629 14.9005 15.8528 14.9007 16.0863ZM12.5376 3.17395C12.5376 2.52548 13.164 2 13.9365 2C14.4939 2 14.9707 2.27512 15.1959 2.67075C15.4207 2.27512 15.8978 2 16.4552 2C17.2278 2 17.8541 2.52548 17.8541 3.17395C17.8541 4.3479 15.1959 6.69552 15.1959 6.69552C15.1959 6.69552 12.5376 4.34762 12.5376 3.17395Z" fill="white"/>
</svg>
