<svg width="30" height="30" viewBox="0 0 30 30" fill="none" xmlns="http://www.w3.org/2000/svg">
<path d="M16.541 20.1387L14.5371 22.0371C14.3262 22.3535 13.9688 22.5 13.5938 22.5H11.25V24.8438C11.25 25.623 10.623 26.25 9.84375 26.25H7.5V28.5938C7.5 29.373 6.87305 30 6.09375 30H1.40625C0.629883 30 0 29.373 0 28.5938V23.9062C0 23.5312 0.148184 23.1738 0.411855 22.9102L9.86133 13.459C9.54492 12.4688 9.375 11.4082 9.375 10.3125C9.375 4.61719 13.9922 0 19.6875 0C25.3828 0 30 4.61719 30 10.3125C30 16.0078 25.3828 20.625 19.6875 20.625C18.5918 20.625 17.5312 20.4551 16.541 20.1387ZM22.0312 10.3125C23.3262 10.3125 24.375 9.26367 24.375 7.96875C24.375 6.67383 23.3262 5.625 22.0312 5.625C20.7363 5.625 19.6875 6.67383 19.6875 7.96875C19.6875 9.26367 20.7363 10.3125 22.0312 10.3125Z" fill="#151010"/>
</svg>
