<svg width="28" height="28" viewBox="0 0 28 28" fill="none" xmlns="http://www.w3.org/2000/svg">
<path d="M28 14C28 6.26836 21.7316 -1.90735e-06 14 -1.90735e-06C6.26836 -1.90735e-06 -1.90735e-06 6.26836 -1.90735e-06 14C-1.90735e-06 21.7316 6.26836 28 14 28C21.7316 28 28 21.7316 28 14ZM13.687 20.1492C13.5866 20.0496 13.5068 19.9312 13.4521 19.8008C13.3975 19.6703 13.369 19.5303 13.3685 19.3889C13.3679 19.2475 13.3952 19.1073 13.4488 18.9764C13.5025 18.8455 13.5813 18.7265 13.681 18.6261L17.2025 15.0769L8.21154 15.0769C7.92592 15.0769 7.652 14.9635 7.45004 14.7615C7.24808 14.5595 7.13461 14.2856 7.13461 14C7.13461 13.7144 7.24808 13.4405 7.45004 13.2385C7.652 13.0365 7.92592 12.9231 8.21154 12.9231L17.2025 12.9231L13.681 9.37394C13.5813 9.27344 13.5025 9.15431 13.4489 9.02334C13.3954 8.89237 13.3681 8.75213 13.3687 8.61062C13.3694 8.46912 13.3978 8.32913 13.4526 8.19864C13.5073 8.06814 13.5872 7.94971 13.6877 7.8501C13.7882 7.75048 13.9073 7.67163 14.0383 7.61806C14.1693 7.56449 14.3095 7.53724 14.451 7.53786C14.5925 7.53849 14.7325 7.56698 14.863 7.6217C14.9935 7.67643 15.1119 7.75633 15.2115 7.85683L20.5551 13.2414C20.7553 13.4432 20.8676 13.7158 20.8676 14C20.8676 14.2842 20.7553 14.5568 20.5551 14.7586L15.2115 20.1432C15.1119 20.2438 14.9934 20.3238 14.8628 20.3786C14.7322 20.4333 14.5921 20.4618 14.4505 20.4624C14.3089 20.463 14.1686 20.4356 14.0376 20.3818C13.9066 20.3281 13.7874 20.2491 13.687 20.1492Z" fill="black"/>
</svg>
