<svg width="13" height="11" viewBox="0 0 13 11" fill="none" xmlns="http://www.w3.org/2000/svg">
<path d="M12.5422 4.58122C11.2188 3.25858 9.89563 1.93594 8.57224 0.613301C7.31995 -0.638484 5.3837 1.31152 6.63913 2.56624C7.17851 3.10531 7.71793 3.64444 8.25731 4.18371C6.13326 4.18371 4.00921 4.18371 1.88536 4.18371C0.110544 4.18371 0.0949636 6.93118 1.86557 6.93118C3.99638 6.93118 6.12719 6.93118 8.25785 6.93118C7.7148 7.47393 7.17174 8.01668 6.62869 8.55942C5.3762 9.81101 7.3273 11.7462 8.58273 10.4915C9.90611 9.16901 11.2293 7.84657 12.5527 6.52393C13.084 5.99269 13.0695 5.10805 12.5422 4.58122Z" fill="white"/>
</svg>
