<svg width="13" height="11" viewBox="0 0 13 11" fill="none" xmlns="http://www.w3.org/2000/svg">
<path d="M0.672642 6.61214C1.99603 7.93478 3.31921 9.25742 4.6426 10.5801C5.89489 11.8318 7.83115 9.88184 6.57572 8.62712C6.03634 8.08804 5.49691 7.54892 4.95753 7.00965C7.08158 7.00965 9.20563 7.00965 11.3295 7.00965C13.1043 7.00965 13.1199 4.26218 11.3493 4.26218C9.21847 4.26218 7.08766 4.26218 4.957 4.26218C5.50005 3.71943 6.0431 3.17668 6.58615 2.63394C7.83864 1.38235 5.88754 -0.552817 4.63211 0.701905C3.30873 2.02435 1.98554 3.34679 0.662157 4.66943C0.130863 5.20067 0.145316 6.08531 0.672642 6.61214Z" fill="white"/>
</svg>
