<svg width="7" height="6" viewBox="0 0 7 6" fill="none" xmlns="http://www.w3.org/2000/svg">
<path d="M6.19544 0.139961C6.23887 0.0956475 6.2907 0.060444 6.34791 0.0364113C6.40511 0.0123787 6.46654 0 6.52858 0C6.59063 0 6.65205 0.0123787 6.70926 0.0364113C6.76646 0.060444 6.8183 0.0956475 6.86173 0.139961C7.04373 0.323874 7.04628 0.621062 6.86809 0.808156L3.10519 5.25643C3.06247 5.30334 3.01063 5.34105 2.95283 5.36724C2.89504 5.39343 2.83251 5.40755 2.76906 5.40874C2.70562 5.40993 2.64261 5.39817 2.58387 5.37417C2.52513 5.35017 2.47191 5.31443 2.42745 5.26916L0.13777 2.94893C0.0494649 2.85887 0 2.73777 0 2.61165C0 2.48552 0.0494649 2.36442 0.13777 2.27437C0.181201 2.23005 0.233035 2.19485 0.290239 2.17082C0.347443 2.14679 0.408866 2.13441 0.470914 2.13441C0.532961 2.13441 0.594384 2.14679 0.651588 2.17082C0.708792 2.19485 0.760627 2.23005 0.804057 2.27437L2.74628 4.24268L6.18271 0.153961C6.18667 0.149043 6.19092 0.144368 6.19544 0.139961Z" fill="#3D91DE"/>
</svg>
