<svg width="17" height="17" viewBox="0 0 17 17" fill="none" xmlns="http://www.w3.org/2000/svg">
<rect x="1" y="1" width="15" height="15" rx="4" fill="white"/>
<path d="M11.1954 6.13996C11.2389 6.09565 11.2907 6.06044 11.3479 6.03641C11.4051 6.01238 11.4665 6 11.5286 6C11.5906 6 11.6521 6.01238 11.7093 6.03641C11.7665 6.06044 11.8183 6.09565 11.8617 6.13996C12.0437 6.32387 12.0463 6.62106 11.8681 6.80816L8.10519 11.2564C8.06247 11.3033 8.01063 11.341 7.95283 11.3672C7.89504 11.3934 7.83251 11.4075 7.76906 11.4087C7.70562 11.4099 7.64261 11.3982 7.58387 11.3742C7.52513 11.3502 7.47191 11.3144 7.42745 11.2692L5.13777 8.94893C5.04946 8.85887 5 8.73777 5 8.61165C5 8.48552 5.04946 8.36442 5.13777 8.27437C5.1812 8.23005 5.23304 8.19485 5.29024 8.17082C5.34744 8.14679 5.40887 8.13441 5.47091 8.13441C5.53296 8.13441 5.59438 8.14679 5.65159 8.17082C5.70879 8.19485 5.76063 8.23005 5.80406 8.27437L7.74628 10.2427L11.1827 6.15396C11.1867 6.14904 11.1909 6.14437 11.1954 6.13996Z" fill="#3D91DE"/>
<rect x="1" y="1" width="15" height="15" rx="4" stroke="#9D9D9D" stroke-width="0.5"/>
</svg>
