<svg width="24" height="24" viewBox="0 0 24 24" fill="none" xmlns="http://www.w3.org/2000/svg">
<path fill-rule="evenodd" clip-rule="evenodd" d="M9.83278 1.16633C9.83299 0.940402 9.76255 0.720062 9.63132 0.536147C9.5001 0.352232 9.31466 0.213945 9.10095 0.14064C8.88724 0.0673348 8.65596 0.062679 8.43948 0.127324C8.22299 0.19197 8.03214 0.322681 7.89362 0.501166L0.310283 10.2512C0.162349 10.4413 0.0820313 10.6754 0.0820312 10.9163C0.0820312 11.1573 0.162349 11.3913 0.310283 11.5815L7.89362 21.3315C8.03214 21.51 8.22299 21.6407 8.43948 21.7053C8.65596 21.77 8.88724 21.7653 9.10095 21.692C9.31466 21.6187 9.5001 21.4804 9.63132 21.2965C9.76255 21.1126 9.83299 20.8923 9.83278 20.6663V16.3438C15.66 16.4652 18.4594 17.5712 19.8655 18.7737C21.2024 19.9167 21.4472 21.2611 21.7018 22.6694L21.7679 23.0323C21.8165 23.292 21.9583 23.525 22.1667 23.6874C22.3751 23.8498 22.6356 23.9305 22.8993 23.9143C23.163 23.898 23.4117 23.786 23.5985 23.5992C23.7854 23.4125 23.8976 23.1639 23.9139 22.9002C24.0992 19.9232 23.8208 15.6093 21.718 12.0007C19.677 8.49833 16.0013 5.80517 9.83278 5.5235V1.16633Z" fill="#3E5C76"/>
</svg>
