<svg width="50" height="50" viewBox="0 0 50 50" fill="none" xmlns="http://www.w3.org/2000/svg">
<path d="M28.866 18.5567V15.9794H39.1753V0H10.3093V15.9794H20.6186V18.5567H0V38.6599H2.06182V42.7836H4.12363V50H45.8762V42.7835H47.938V38.6598H50V18.5567H28.866ZM41.7525 20.1031V37.1135H25.7732V20.1031H41.7525ZM22.1649 18.5567V15.9794H27.3196V18.5567H22.1649ZM11.8557 14.433V1.54639H37.6289V14.433H11.8557ZM8.24746 20.1031H24.2269V37.1135H8.24746V20.1031ZM1.54639 37.1134V20.1031H6.70107V37.1135H1.54639V37.1134ZM44.3299 48.4536H5.67012V42.7835H44.3299V48.4536ZM46.3918 41.2371H3.6082V38.6598H46.3917V41.2371H46.3918ZM48.4536 37.1134H43.2989V20.1031H48.4536V37.1134Z" fill="black"/>
<path d="M13.9175 3.60815V7.47417H15.464V5.15464H20.3608V3.60815H13.9175Z" fill="black"/>
<path d="M15.4639 9.02063H13.9175V11.0824H15.4639V9.02063Z" fill="black"/>
<path d="M35.3092 44.8453H14.6907V46.3917H35.3092V44.8453Z" fill="black"/>
<path d="M39.4329 44.8453H37.3711V46.3917H39.4329V44.8453Z" fill="black"/>
<path d="M12.6288 44.8453H10.567V46.3917H12.6288V44.8453Z" fill="black"/>
<path d="M5.41243 21.6495H2.83508V23.1959H5.41243V21.6495Z" fill="black"/>
<path d="M5.41243 24.7423H2.83508V26.2887H5.41243V24.7423Z" fill="black"/>
<path d="M5.41243 27.8351H2.83508V29.3815H5.41243V27.8351Z" fill="black"/>
<path d="M5.41243 30.9279H2.83508V32.4742H5.41243V30.9279Z" fill="black"/>
<path d="M5.41243 34.0206H2.83508V35.567H5.41243V34.0206Z" fill="black"/>
<path d="M47.165 21.6495H44.5876V23.1959H47.165V21.6495Z" fill="black"/>
<path d="M47.165 24.7423H44.5876V26.2887H47.165V24.7423Z" fill="black"/>
<path d="M47.165 27.8351H44.5876V29.3815H47.165V27.8351Z" fill="black"/>
<path d="M47.165 30.9279H44.5876V32.4742H47.165V30.9279Z" fill="black"/>
<path d="M47.165 34.0206H44.5876V35.567H47.165V34.0206Z" fill="black"/>
<path d="M22.4226 33.5051H10.0515V35.0515H22.4226V33.5051Z" fill="black"/>
<path d="M13.1443 29.8969H10.0515V31.4432H13.1443V29.8969Z" fill="black"/>
<path d="M22.4226 29.8969H19.3298V31.4432H22.4226V29.8969Z" fill="black"/>
<path d="M18.299 29.8969H14.1753V31.4432H18.299V29.8969Z" fill="black"/>
<path d="M13.1443 26.2887H10.0515V27.8351H13.1443V26.2887Z" fill="black"/>
<path d="M22.4226 26.2887H19.3298V27.8351H22.4226V26.2887Z" fill="black"/>
<path d="M18.299 26.2887H14.1753V27.8351H18.299V26.2887Z" fill="black"/>
<path d="M12.1133 22.6804H10.0515V24.2268H12.1133V22.6804Z" fill="black"/>
<path d="M22.4227 22.6804H20.3608V24.2268H22.4227V22.6804Z" fill="black"/>
<path d="M19.3299 22.6804H17.2681V24.2268H19.3299V22.6804Z" fill="black"/>
<path d="M15.7216 22.6804H13.6598V24.2268H15.7216V22.6804Z" fill="black"/>
<path d="M39.9485 33.5051H27.5774V35.0515H39.9485V33.5051Z" fill="black"/>
<path d="M30.6702 29.8969H27.5774V31.4432H30.6702V29.8969Z" fill="black"/>
<path d="M39.9485 29.8969H36.8557V31.4432H39.9485V29.8969Z" fill="black"/>
<path d="M35.8248 29.8969H31.701V31.4432H35.8248V29.8969Z" fill="black"/>
<path d="M30.6702 26.2887H27.5774V27.8351H30.6702V26.2887Z" fill="black"/>
<path d="M39.9485 26.2887H36.8557V27.8351H39.9485V26.2887Z" fill="black"/>
<path d="M35.8248 26.2887H31.701V27.8351H35.8248V26.2887Z" fill="black"/>
<path d="M29.6392 22.6804H27.5774V24.2268H29.6392V22.6804Z" fill="black"/>
<path d="M39.9484 22.6804H37.8866V24.2268H39.9484V22.6804Z" fill="black"/>
<path d="M36.8556 22.6804H34.7938V24.2268H36.8556V22.6804Z" fill="black"/>
<path d="M33.2474 22.6804H31.1855V24.2268H33.2474V22.6804Z" fill="black"/>
</svg>
