<svg width="50" height="50" viewBox="0 0 50 50" fill="none" xmlns="http://www.w3.org/2000/svg">
<path d="M43.4825 33.7501L38.8192 40.4501L35.5283 37.7492C35.1733 37.4559 34.6475 37.5101 34.3558 37.8642C34.0633 38.2201 34.115 38.7459 34.4717 39.0367L38.46 42.3109C38.6092 42.4342 38.7967 42.5001 38.9883 42.5001C39.0258 42.5001 39.0642 42.4976 39.1025 42.4917C39.3325 42.4601 39.5392 42.3334 39.6725 42.1426L44.8508 34.7017C45.1133 34.3242 45.0208 33.8051 44.6425 33.5417C44.2642 33.2776 43.7458 33.3717 43.4825 33.7501Z" fill="black"/>
<path d="M45.1367 29.3025C45.5908 27.4817 45.8333 25.6184 45.8333 23.75C45.8333 11.1142 35.5533 0.833374 22.9167 0.833374C10.28 0.833374 0 11.1142 0 23.75C0 30.425 2.87 36.4409 7.43917 40.6325L7.4175 40.6517L8.16 41.2775C8.20667 41.3167 8.2575 41.3492 8.30417 41.3884C8.70167 41.7184 9.11417 42.0317 9.53417 42.335C9.66667 42.4309 9.79917 42.5267 9.93333 42.6192C10.3792 42.9267 10.8375 43.2184 11.305 43.495C11.4067 43.5542 11.5083 43.6125 11.61 43.6709C12.1208 43.9617 12.6425 44.2359 13.1775 44.4884C13.2167 44.5067 13.2558 44.5234 13.295 44.5417C15.0358 45.3509 16.8942 45.945 18.8367 46.2959C18.8883 46.305 18.9392 46.3142 18.9908 46.3234C19.5933 46.4275 20.2033 46.5109 20.8217 46.5667C20.8967 46.5734 20.9725 46.5775 21.0475 46.5842C21.665 46.6342 22.2867 46.6667 22.9167 46.6667C25.635 46.6667 28.295 46.1859 30.8358 45.2484C32.8242 47.64 35.82 49.1667 39.1667 49.1667C45.14 49.1667 50 44.3067 50 38.3334C50 34.565 48.0642 31.2434 45.1367 29.3025ZM1.66667 23.75C1.66667 12.0325 11.1992 2.50004 22.9167 2.50004C34.6342 2.50004 44.1667 12.0325 44.1667 23.75C44.1667 25.3359 43.9883 26.92 43.6342 28.4717C43.62 28.465 43.6042 28.4609 43.59 28.4542C43.2767 28.3134 42.955 28.1875 42.6267 28.0767C42.5983 28.0675 42.5708 28.055 42.5425 28.0459C42.2 27.9334 41.8508 27.8367 41.4942 27.7584C41.4775 27.7542 41.4608 27.7492 41.4442 27.745C41.0967 27.67 40.7433 27.6134 40.385 27.5725C40.36 27.5692 40.335 27.5642 40.31 27.5609C39.9342 27.5225 39.5533 27.5 39.1667 27.5C34.2308 27.5 30.0642 30.8217 28.7625 35.3442C28.3975 35 28.1817 34.5209 28.1817 34V31.5359C28.3467 31.3334 28.5192 31.1042 28.6958 30.855C29.6092 29.5659 30.3417 28.1309 30.8758 26.5859C31.9308 26.0842 32.6133 25.0325 32.6133 23.845V20.8909C32.6133 20.1692 32.3483 19.4675 31.875 18.9167V15.0275C31.9183 14.5942 32.0717 12.1542 30.3058 10.1409C28.77 8.38754 26.2842 7.50004 22.9167 7.50004C19.5492 7.50004 17.0633 8.38754 15.5275 10.14C13.7617 12.1534 13.915 14.595 13.9583 15.0267V18.9159C13.485 19.4667 13.22 20.1684 13.22 20.89V23.8442C13.22 24.7617 13.6317 25.6175 14.3358 26.195C15.0108 28.8392 16.3992 30.8409 16.9125 31.5192V33.9309C16.9125 34.6109 16.5417 35.2359 15.9442 35.5625L9.355 39.1567C9.14417 39.2717 8.93667 39.405 8.72833 39.5542C4.39667 35.66 1.66667 30.0184 1.66667 23.75ZM21.3375 44.935C21.2467 44.9284 21.1558 44.9225 21.0658 44.9142C20.5375 44.8675 20.0108 44.805 19.4883 44.7192C19.4667 44.7159 19.445 44.7109 19.4242 44.7075C18.3183 44.5225 17.2308 44.2509 16.1717 43.8959C16.1433 43.8867 16.115 43.8767 16.0867 43.8667C15.0558 43.5167 14.0533 43.0842 13.0858 42.58C13.03 42.5509 12.9733 42.5234 12.9183 42.4942C12.4892 42.265 12.0692 42.0167 11.6558 41.7584C11.5367 41.6834 11.4192 41.6075 11.3017 41.5309C10.9217 41.2825 10.5475 41.0242 10.1825 40.7509C10.145 40.7225 10.1092 40.6925 10.0717 40.6642C10.0983 40.6492 10.125 40.6342 10.1525 40.6192L16.7417 37.025C17.8742 36.4067 18.5783 35.2209 18.5783 33.93V30.9275L18.3842 30.6959C18.3667 30.675 16.5708 28.5009 15.885 25.5167L15.8092 25.1867L15.525 25.0025C15.1242 24.7434 14.8842 24.31 14.8842 23.8425V20.8884C14.8842 20.5009 15.0492 20.14 15.3483 19.8692L15.6233 19.6209V14.9792L15.6158 14.87C15.6133 14.85 15.3675 12.8459 16.7792 11.2367C17.9858 9.86421 20.05 9.16671 22.9167 9.16671C25.7708 9.16671 27.8308 9.85837 29.0383 11.2217C30.4483 12.8142 30.2175 14.8559 30.2158 14.8725L30.2083 19.6234L30.4833 19.8717C30.7825 20.1417 30.9475 20.5034 30.9475 20.8909V23.845C30.9475 24.4484 30.5517 24.975 29.9633 25.1567L29.5483 25.285L29.415 25.6984C28.9242 27.2259 28.2242 28.6359 27.335 29.8917C27.1192 30.1975 26.9067 30.4709 26.7217 30.6817L26.515 30.9175V34C26.515 35.3225 27.2383 36.5125 28.405 37.1217C28.3608 37.52 28.3333 37.9234 28.3333 38.3334C28.3333 38.5767 28.3417 38.8192 28.3575 39.0609C28.3633 39.1467 28.375 39.2317 28.3833 39.3167C28.3908 39.3967 28.3983 39.4759 28.4075 39.5559C28.4158 39.6309 28.42 39.7067 28.43 39.7809C28.4492 39.9225 28.4767 40.0625 28.5017 40.2034C28.5183 40.2992 28.5308 40.3959 28.55 40.4909C28.55 40.4909 28.5517 40.4975 28.5525 40.5009C28.5575 40.5259 28.565 40.5492 28.57 40.5742C28.5958 40.6959 28.6267 40.8167 28.6567 40.9375C28.6775 41.0217 28.6942 41.1059 28.7167 41.1892C28.7367 41.2625 28.7625 41.3334 28.7842 41.4059C28.8125 41.5025 28.8425 41.5984 28.8742 41.6934C28.8942 41.7534 28.9092 41.8142 28.93 41.8734C28.9883 42.0409 29.055 42.2059 29.1217 42.37C29.1225 42.3725 29.1233 42.3742 29.1242 42.3767C29.175 42.5017 29.2283 42.6242 29.2833 42.7467C29.3242 42.8375 29.3667 42.9284 29.41 43.0184C29.4383 43.0775 29.4633 43.1375 29.4925 43.1959C29.5117 43.2342 29.5342 43.2709 29.5542 43.3092C29.6242 43.445 29.6983 43.5775 29.7742 43.7092C29.7967 43.7484 29.8167 43.7892 29.8392 43.8284C27.5992 44.6059 25.275 45 22.9167 45C22.3883 45 21.8617 44.9742 21.3375 44.935ZM39.1667 47.5C36.1158 47.5 33.4158 45.9959 31.7483 43.6967C31.6792 43.6017 31.6167 43.5042 31.5517 43.4075C31.5067 43.3409 31.4592 43.2759 31.4167 43.2084C31.3808 43.1509 31.3458 43.0934 31.3108 43.035C31.2733 42.9734 31.24 42.91 31.2042 42.8475C31.1467 42.7459 31.085 42.6467 31.0317 42.5434C30.9925 42.4675 30.9575 42.3892 30.92 42.3117C30.91 42.2909 30.9008 42.2692 30.8908 42.2484C30.8283 42.1175 30.7633 41.9884 30.7067 41.855C30.6767 41.7842 30.6542 41.7109 30.6258 41.64C30.5617 41.4742 30.4967 41.3084 30.4417 41.1384C30.4158 41.0592 30.3958 40.9775 30.3725 40.8975C30.365 40.8725 30.3583 40.8484 30.3517 40.8242C30.305 40.6584 30.26 40.4917 30.2225 40.3217C30.2108 40.2692 30.2017 40.2159 30.1908 40.1625C30.1808 40.1125 30.17 40.0617 30.1608 40.0117C30.1267 39.8267 30.0983 39.64 30.075 39.4517C30.0725 39.43 30.07 39.4084 30.0675 39.3859C30.06 39.3175 30.0492 39.2492 30.0433 39.1809C30.0175 38.9009 30 38.6192 30 38.3334C30 38.0709 30.0175 37.8117 30.0392 37.555C30.0625 37.3092 30.095 37.0559 30.1408 36.7892L30.2025 36.4284C31.0817 32.285 34.7658 29.1667 39.1667 29.1667C39.5383 29.1667 39.9083 29.195 40.2767 29.2409C40.3608 29.2509 40.4425 29.2667 40.5258 29.2792C40.83 29.325 41.1325 29.385 41.4308 29.4617C41.4933 29.4775 41.5558 29.4925 41.6183 29.51C42.3533 29.7159 43.0642 30.0109 43.7325 30.3959C46.4775 31.9809 48.3333 34.9417 48.3333 38.3334C48.3333 43.3875 44.2208 47.5 39.1667 47.5Z" fill="black"/>
</svg>
