<svg width="51" height="50" viewBox="0 0 51 50" fill="none" xmlns="http://www.w3.org/2000/svg">
<path d="M19.9356 4.24182H13.7475C13.1974 4.24182 12.7515 4.68772 12.7515 5.23782V11.426C12.7515 11.9761 13.1974 12.422 13.7475 12.422H19.9356C20.4857 12.422 20.9316 11.9761 20.9316 11.426V5.23791C20.9316 4.68782 20.4857 4.24182 19.9356 4.24182ZM18.9396 10.43H14.7436V6.23391H18.9396V10.43Z" fill="black"/>
<path d="M31.0144 4.24182H24.8263C24.2762 4.24182 23.8303 4.68772 23.8303 5.23782V11.426C23.8303 11.9761 24.2762 12.422 24.8263 12.422H31.0144C31.5645 12.422 32.0104 11.9761 32.0104 11.426V5.23791C32.0104 4.68782 31.5645 4.24182 31.0144 4.24182ZM30.0184 10.43H25.8223V6.23391H30.0183V10.43H30.0184Z" fill="black"/>
<path d="M19.9356 15.2208H13.7475C13.1974 15.2208 12.7515 15.6667 12.7515 16.2168V22.405C12.7515 22.9551 13.1974 23.401 13.7475 23.401H19.9356C20.4857 23.401 20.9316 22.9551 20.9316 22.405V16.2168C20.9316 15.6667 20.4857 15.2208 19.9356 15.2208ZM18.9396 21.409H14.7436V17.2129H18.9396V21.409Z" fill="black"/>
<path d="M31.0144 15.2208H24.8263C24.2762 15.2208 23.8303 15.6667 23.8303 16.2168V22.405C23.8303 22.9551 24.2762 23.401 24.8263 23.401H31.0144C31.5645 23.401 32.0104 22.9551 32.0104 22.405V16.2168C32.0104 15.6667 31.5645 15.2208 31.0144 15.2208ZM30.0184 21.409H25.8223V17.2129H30.0183V21.409H30.0184Z" fill="black"/>
<path d="M19.9356 26.1998H13.7475C13.1974 26.1998 12.7515 26.6457 12.7515 27.1958V33.384C12.7515 33.9341 13.1974 34.38 13.7475 34.38H19.9356C20.4857 34.38 20.9316 33.9341 20.9316 33.384V27.1958C20.9316 26.6457 20.4857 26.1998 19.9356 26.1998ZM18.9396 32.388H14.7436V28.1919H18.9396V32.388Z" fill="black"/>
<path d="M36.402 30.7956V0.995996C36.402 0.445898 35.9561 0 35.406 0H9.35595C8.80585 0 8.35995 0.445898 8.35995 0.995996V49.004C8.35995 49.5541 8.80585 50 9.35595 50H35.4061C35.4447 50 35.4865 49.9959 35.5298 49.989C35.8687 49.9344 36.1722 49.7433 36.3853 49.4741C36.3871 49.4718 36.389 49.4694 36.3907 49.4672C37.0304 48.6478 42.64 41.3583 42.64 37.7838C42.64 34.1743 39.907 31.1927 36.402 30.7956ZM26.4752 48.008H23.377V44.9618C23.377 44.4117 22.9311 43.9658 22.381 43.9658C21.8309 43.9658 21.385 44.4117 21.385 44.9618V48.008H18.2867V39.6698H26.4752V48.008ZM28.4672 48.008V38.6738C28.4672 38.1237 28.0213 37.6778 27.4712 37.6778H17.2907C16.7406 37.6778 16.2947 38.1237 16.2947 38.6738V48.008H10.3519V1.99199H34.4101V30.853C33.5466 31.0016 32.7364 31.307 32.0105 31.7406V27.1958C32.0105 26.6457 31.5646 26.1998 31.0145 26.1998H24.8263C24.2762 26.1998 23.8303 26.6457 23.8303 27.1958V33.384C23.8303 33.9341 24.2762 34.38 24.8263 34.38H29.4522C28.8917 35.3894 28.5712 36.5497 28.5712 37.7839C28.5712 40.5397 31.9054 45.5034 33.7258 48.008H28.4672V48.008ZM30.0185 28.1918V32.3879H25.8223V28.1918H30.0185ZM35.6055 47.2053C33.3943 44.2074 30.5633 39.7239 30.5633 37.7839C30.5633 35.0035 32.8252 32.7414 35.6056 32.7414C38.3859 32.7414 40.648 35.0034 40.648 37.7839C40.6481 39.7221 37.8167 44.2065 35.6055 47.2053Z" fill="black"/>
<path d="M35.6056 34.5739C33.8355 34.5739 32.3955 36.0138 32.3955 37.7839C32.3955 39.5539 33.8355 40.994 35.6056 40.994C37.3756 40.994 38.8156 39.5539 38.8156 37.7839C38.8156 36.0139 37.3756 34.5739 35.6056 34.5739ZM35.6057 39.0019C34.9341 39.0019 34.3876 38.4555 34.3876 37.7838C34.3876 37.1121 34.934 36.5657 35.6057 36.5657C36.2772 36.5657 36.8237 37.112 36.8237 37.7838C36.8237 38.4555 36.2772 39.0019 35.6057 39.0019Z" fill="black"/>
<path d="M22.3809 40.8717C21.8308 40.8717 21.3849 41.3176 21.3849 41.8677V41.9675C21.3849 42.5176 21.8308 42.9635 22.3809 42.9635C22.931 42.9635 23.3769 42.5176 23.3769 41.9675V41.8677C23.3769 41.3177 22.931 40.8717 22.3809 40.8717Z" fill="black"/>
</svg>
