<svg width="38" height="38" viewBox="0 0 38 38" fill="none" xmlns="http://www.w3.org/2000/svg">
<path d="M11.0449 1.99316C11.0449 1.12988 10.3457 0.430664 9.48242 0.430664H1.99219C1.12891 0.430664 0.429688 1.12988 0.429688 1.99316V9.48242C0.429688 10.3457 1.12891 11.0449 1.99219 11.0449H9.48145C10.3447 11.0449 11.0439 10.3457 11.0439 9.48242V1.99316H11.0449ZM7.91992 7.91992H3.55469V3.55566H7.91895V7.91992H7.91992Z" fill="#333333"/>
<path d="M15.2559 11.0449H22.7451C23.6084 11.0449 24.3076 10.3457 24.3076 9.48242V1.99316C24.3076 1.12988 23.6084 0.430664 22.7451 0.430664H15.2559C14.3926 0.430664 13.6934 1.12988 13.6934 1.99316V9.48242C13.6934 10.3447 14.3926 11.0449 15.2559 11.0449ZM16.8184 3.55566H21.1826V7.91992H16.8184V3.55566V3.55566Z" fill="#333333"/>
<path d="M28.5176 11.0449H36.0068C36.8701 11.0449 37.5693 10.3457 37.5693 9.48242V1.99316C37.5693 1.12988 36.8701 0.430664 36.0068 0.430664H28.5176C27.6543 0.430664 26.9551 1.12988 26.9551 1.99316V9.48242C26.9551 10.3447 27.6553 11.0449 28.5176 11.0449ZM30.0801 3.55566H34.4443V7.91992H30.0801V3.55566Z" fill="#333333"/>
<path d="M11.0449 15.2549C11.0449 14.3916 10.3457 13.6924 9.48242 13.6924H1.99219C1.12891 13.6924 0.429688 14.3916 0.429688 15.2549V22.7441C0.429688 23.6074 1.12891 24.3066 1.99219 24.3066H9.48145C10.3447 24.3066 11.0439 23.6074 11.0439 22.7441V15.2549H11.0449ZM7.91992 21.1826H3.55469V16.8184H7.91895V21.1826H7.91992Z" fill="#333333"/>
<path d="M13.6934 22.7451C13.6934 23.6084 14.3926 24.3076 15.2559 24.3076H22.7451C23.6084 24.3076 24.3076 23.6084 24.3076 22.7451V15.2559C24.3076 14.3926 23.6084 13.6934 22.7451 13.6934H15.2559C14.3926 13.6934 13.6934 14.3926 13.6934 15.2559V22.7451V22.7451ZM16.8184 16.8174H21.1826V21.1816H16.8184V16.8174V16.8174Z" fill="#333333"/>
<path d="M26.9551 22.7451C26.9551 23.6084 27.6543 24.3076 28.5176 24.3076H36.0068C36.8701 24.3076 37.5693 23.6084 37.5693 22.7451V15.2559C37.5693 14.3926 36.8701 13.6934 36.0068 13.6934H28.5176C27.6543 13.6934 26.9551 14.3926 26.9551 15.2559V22.7451ZM30.0801 16.8174H34.4443V21.1816H30.0801V16.8174Z" fill="#333333"/>
<path d="M9.48243 26.9551H1.99219C1.12891 26.9551 0.429688 27.6543 0.429688 28.5176V36.0068C0.429688 36.8701 1.12891 37.5693 1.99219 37.5693H9.48145C10.3447 37.5693 11.044 36.8701 11.044 36.0068V28.5176C11.0449 27.6553 10.3447 26.9551 9.48243 26.9551ZM7.91993 34.4443H3.55469V30.0801H7.91895V34.4443H7.91993Z" fill="#333333"/>
<path d="M13.6934 36.0068C13.6934 36.8701 14.3926 37.5693 15.2559 37.5693H22.7451C23.6084 37.5693 24.3076 36.8701 24.3076 36.0068V28.5176C24.3076 27.6543 23.6084 26.9551 22.7451 26.9551H15.2559C14.3926 26.9551 13.6934 27.6543 13.6934 28.5176V36.0068V36.0068ZM16.8184 30.0801H21.1826V34.4443H16.8184V30.0801V30.0801Z" fill="#333333"/>
<path d="M26.9551 36.0068C26.9551 36.8701 27.6543 37.5693 28.5176 37.5693H36.0068C36.8701 37.5693 37.5693 36.8701 37.5693 36.0068V28.5176C37.5693 27.6543 36.8701 26.9551 36.0068 26.9551H28.5176C27.6543 26.9551 26.9551 27.6543 26.9551 28.5176V36.0068ZM30.0801 30.0801H34.4443V34.4443H30.0801V30.0801Z" fill="#333333"/>
</svg>
