<svg width="50" height="50" viewBox="0 0 50 50" fill="none" xmlns="http://www.w3.org/2000/svg">
<path d="M20.2982 26.5624H18.7643V28.9206H16.3919V22.642H18.7643V23.4372H20.2982V21.1082H14.858V30.4545H20.2982V26.5624Z" fill="#1D1D1B"/>
<path d="M22.6563 24.2332H17.1876V25.767H22.6563V24.2332Z" fill="#1D1D1B"/>
<path d="M10.142 5.48303H2.35809V17.9544H10.142V5.48303V5.48303ZM8.60811 16.4206H3.89189V7.01692H8.60801V16.4206H8.60811Z" fill="#1D1D1B"/>
<path d="M7.81245 14.0769H4.68744V15.6108H7.81245V14.0769Z" fill="#1D1D1B"/>
<path d="M7.01698 8.59375H5.48309V12.5H7.01698V8.59375Z" fill="#1D1D1B"/>
<path d="M4.6875 18.7643H3.125V20.2982H4.6875V18.7643Z" fill="#1D1D1B"/>
<path d="M7.03125 18.7643H5.46875V20.2982H7.03125V18.7643Z" fill="#1D1D1B"/>
<path d="M9.375 18.7643H7.8125V20.2982H9.375V18.7643Z" fill="#1D1D1B"/>
<path d="M50 46.0868V44.5529H38.2669V0.0144043H11.733V44.553H0V46.0869H11.733V48.4519H0V49.9858H50V48.4519H38.2669V46.0868H50ZM36.733 48.4517H13.2669V1.5482H36.7331L36.733 48.4517Z" fill="#1D1D1B"/>
</svg>
